<svg xmlns="http://www.w3.org/2000/svg" viewBox="0 0 123.54 123.05"><defs><style>.cls-1{fill:#c63;}</style></defs><title>añadir</title><g id="Capa_2" data-name="Capa 2"><g id="Capa_1-2" data-name="Capa 1"><g id="Grupo_61" data-name="Grupo 61"><g id="Grupo_60" data-name="Grupo 60"><g id="Grupo_12" data-name="Grupo 12"><ellipse id="Elipse_1" data-name="Elipse 1" class="cls-1" cx="61.77" cy="61.52" rx="61.77" ry="61.52"/></g></g></g><path id="Trazado_307" data-name="Trazado 307" d="M94.43,53.6a4.49,4.49,0,0,0-3.28-1.35H71.05V32.15a4.61,4.61,0,0,0-4.64-4.64H57.14a4.63,4.63,0,0,0-4.64,4.64v20.1H32.4a4.63,4.63,0,0,0-4.64,4.64v9.27A4.63,4.63,0,0,0,32.4,70.8H52.5V90.9a4.61,4.61,0,0,0,4.59,4.64h9.32A4.62,4.62,0,0,0,71.05,91V70.8H91.14a4.62,4.62,0,0,0,4.64-4.6V56.89A4.46,4.46,0,0,0,94.43,53.6Z"/></g></g></svg>