<svg xmlns="http://www.w3.org/2000/svg" viewBox="0 0 204.52 204.52"><defs><style>.cls-1{fill:#c63;}</style></defs><title>contacto</title><g id="Capa_2" data-name="Capa 2"><g id="Capa_1-2" data-name="Capa 1"><path id="Trazado_267" data-name="Trazado 267" class="cls-1" d="M102.26,0A102.26,102.26,0,1,0,204.52,102.26h0A102.26,102.26,0,0,0,102.26,0Zm0,58.43A21.66,21.66,0,1,1,80.6,80.09h0a21.65,21.65,0,0,1,21.65-21.65Zm36.57,102.16a69.19,69.19,0,0,1-73.13-.12v-44a7,7,0,0,1,7-7h59.17a7,7,0,0,1,7,7v44.16Z"/></g></g></svg>