<svg xmlns="http://www.w3.org/2000/svg" viewBox="0 0 114.1 114.09"><defs><style>.cls-1{fill:#c63;}</style></defs><title>home</title><g id="Capa_2" data-name="Capa 2"><g id="Capa_1-2" data-name="Capa 1"><path id="Trazado_266" data-name="Trazado 266" class="cls-1" d="M110.17,49.92,99.83,39.58V14.26A7.15,7.15,0,0,0,92.7,7.13H85.57a7.15,7.15,0,0,0-7.13,7.13V18.2L64.18,4c-2-1.84-3.73-4-7.13-4s-5.19,2.12-7.13,4l-46,46C1.7,52.23,0,53.92,0,57.05a7,7,0,0,0,6.9,7.13h7.36V107a7.15,7.15,0,0,0,7.13,7.13h21.4V78.44a7.15,7.15,0,0,1,7.13-7.13H64.18a7.15,7.15,0,0,1,7.13,7.13v35.65H92.7A7.14,7.14,0,0,0,99.83,107V64.18H107a7,7,0,0,0,7.13-6.9.89.89,0,0,0,0-.23C114.1,53.92,112.4,52.23,110.17,49.92Z"/></g></g></svg>