<svg xmlns="http://www.w3.org/2000/svg" viewBox="0 0 146.84 146.32"><defs><style>.cls-1{fill:#c63;}</style></defs><title>incapacidades</title><g id="Capa_2" data-name="Capa 2"><g id="Capa_1-2" data-name="Capa 1"><g id="Grupo_13" data-name="Grupo 13"><g id="Grupo_60" data-name="Grupo 60"><g id="Grupo_12" data-name="Grupo 12"><ellipse id="Elipse_1" data-name="Elipse 1" class="cls-1" cx="73.42" cy="73.16" rx="73.42" ry="73.16"/></g></g></g><g id="Grupo_64" data-name="Grupo 64"><g id="Grupo_63" data-name="Grupo 63"><path id="Trazado_280" data-name="Trazado 280" d="M105.77,27a14.41,14.41,0,0,0-4.35,28.17v6.43h2.9v41.81a10.14,10.14,0,0,1-10.16,10.09H75.3a10.14,10.14,0,0,1-7.09-2.88H97.58L93,95.71a13,13,0,0,0-7-7.95,27.08,27.08,0,0,0,5.27-16V67.39a4.35,4.35,0,0,0-4.35-4.33v-13a23.22,23.22,0,0,0-46.43,0v13a4.35,4.35,0,0,0-4.35,4.33v4.32A27.14,27.14,0,0,0,41.4,87.77a13,13,0,0,0-7,7.94l-4.62,14.93H64.45a13.08,13.08,0,0,0,10.85,5.77H94.16a13,13,0,0,0,13.06-13V61.62h2.91V55.19A14.41,14.41,0,0,0,105.77,27ZM86.76,66h.15a1.44,1.44,0,0,1,1.45,1.44v4.32a24.31,24.31,0,0,1-5.21,15l-9.3-3.08V80a17.29,17.29,0,0,0,6.25-8.3A7.24,7.24,0,0,0,86.76,66ZM63.69,80.36A14.47,14.47,0,0,1,49.18,66V53h6.38a28.08,28.08,0,0,0,17.88-6.43l.17-.14A24.83,24.83,0,0,1,78.2,60.76V66A14.47,14.47,0,0,1,63.69,80.36ZM71,81.65V84.2a9.5,9.5,0,0,1-13.33,1.18,9.4,9.4,0,0,1-1.18-1.18V81.65a17.27,17.27,0,0,0,14.51,0Zm-7.26,8.8a12.32,12.32,0,0,0,9.2-4.08l8.19,2.71a24.74,24.74,0,0,1-34.77,0l8.18-2.71a12.39,12.39,0,0,0,9.2,4.09Zm17.4-30a4.29,4.29,0,0,1-.22,8.2A17.35,17.35,0,0,0,81.11,66V60.76C81.1,60.66,81.09,60.55,81.09,60.44ZM43.38,50.09a20.32,20.32,0,0,1,40.63,0h0v8.69a7.25,7.25,0,0,0-3.14-1.36,27.75,27.75,0,0,0-5.89-14l-.92-1.15-2.48,2a25.11,25.11,0,0,1-16,5.77H46.28v7.35a7.26,7.26,0,0,0-2.9,1.34Zm2.9,10.36V66a18.66,18.66,0,0,0,.23,2.69,4.29,4.29,0,0,1-.23-8.19ZM39,71.72V67.39A1.44,1.44,0,0,1,40.48,66h.15a7.23,7.23,0,0,0,6.65,5.72A17.38,17.38,0,0,0,53.54,80v3.68l-9.3,3.08a24.25,24.25,0,0,1-5.21-15Zm7.45,36,1.24-9.91-2.88-.36-1.29,10.27H33.74l3.47-11.21a10.12,10.12,0,0,1,6.11-6.45,27.55,27.55,0,0,0,16,8.63v6.14h3a12.53,12.53,0,0,0,.68,2.89ZM65.14,102h-2.9V99c.49,0,1,.08,1.45.08s1,0,1.45-.08Zm1,5.77a10.17,10.17,0,0,1-.88-2.89h2.79V98.73a27.55,27.55,0,0,0,16-8.63,10.12,10.12,0,0,1,6.11,6.45l3.47,11.21H83.84l-1.3-10.27-2.88.35,1.25,9.92Zm41.08-49h-2.9V55.86h2.9ZM105.77,53a11.54,11.54,0,1,1,11.61-11.53A11.57,11.57,0,0,1,105.77,53Z"/></g></g></g></g></svg>