<svg xmlns="http://www.w3.org/2000/svg" viewBox="0 0 197.74 197.15"><defs><style>.cls-1{fill:#c63;}</style></defs><title>información</title><g id="Capa_2" data-name="Capa 2"><g id="Capa_1-2" data-name="Capa 1"><g id="Grupo_13" data-name="Grupo 13"><g id="Grupo_60" data-name="Grupo 60"><g id="Grupo_12" data-name="Grupo 12"><ellipse id="Elipse_1" data-name="Elipse 1" class="cls-1" cx="98.87" cy="98.58" rx="98.87" ry="98.58"/></g></g><g id="Grupo_59" data-name="Grupo 59"><path id="Trazado_279" data-name="Trazado 279" d="M123,144.18l-1.63,6.65q-7.32,2.89-11.67,4.4a30.55,30.55,0,0,1-10.13,1.51q-8.86,0-13.77-4.32a14,14,0,0,1-4.92-11,38.82,38.82,0,0,1,.37-5.28,61.63,61.63,0,0,1,1.19-6.1l6.09-21.58q.81-3.1,1.37-5.88a25.2,25.2,0,0,0,.56-5q0-4.14-1.71-5.77c-1.13-1.08-3.3-1.63-6.52-1.63a16.91,16.91,0,0,0-4.84.74c-1.66.49-3.08,1-4.27,1.41l1.63-6.66q6-2.43,11.46-4.17a34.17,34.17,0,0,1,10.37-1.74q8.79,0,13.57,4.25A14.08,14.08,0,0,1,114.92,95c0,.93-.1,2.59-.33,4.95a32.92,32.92,0,0,1-1.22,6.51L107.3,128a57.48,57.48,0,0,0-1.33,5.92,30.44,30.44,0,0,0-.6,5c0,2.86.64,4.8,1.92,5.84s3.5,1.55,6.64,1.55a19,19,0,0,0,5-.77A27.69,27.69,0,0,0,123,144.18ZM124.55,54a12.59,12.59,0,0,1-4.25,9.57,14.47,14.47,0,0,1-10.22,4,14.63,14.63,0,0,1-10.28-4A12.57,12.57,0,0,1,95.51,54a12.7,12.7,0,0,1,4.29-9.61,15.18,15.18,0,0,1,20.5,0A12.71,12.71,0,0,1,124.55,54Z"/></g></g></g></g></svg>