<svg xmlns="http://www.w3.org/2000/svg" viewBox="0 0 148.9 148.9"><defs><style>.cls-1{fill:#c63;}.cls-2{fill:#fff;}</style></defs><title>infraestructura</title><g id="Capa_2" data-name="Capa 2"><g id="Capa_1-2" data-name="Capa 1"><circle id="Elipse_2" data-name="Elipse 2" class="cls-1" cx="74.45" cy="74.45" r="74.45"/><g id="Grupo_19" data-name="Grupo 19"><path id="Trazado_245" data-name="Trazado 245" class="cls-2" d="M74.45,51.85A15.82,15.82,0,1,1,90.27,36h0A15.84,15.84,0,0,1,74.45,51.85Zm0-27.12A11.3,11.3,0,1,0,85.75,36a11.3,11.3,0,0,0-11.3-11.3Z"/></g><g id="Grupo_20" data-name="Grupo 20"><path id="Trazado_246" data-name="Trazado 246" class="cls-2" d="M81.23,106.09H67.67a2.26,2.26,0,0,1-2.26-2.26h0v-18c-10-5.23-13.56-18.94-13.56-29.45a2.26,2.26,0,0,1,2.26-2.26H94.79a2.26,2.26,0,0,1,2.26,2.26h0c0,10.51-3.58,24.22-13.56,29.45v18a2.26,2.26,0,0,1-2.26,2.26Zm-11.3-4.52h9V84.39a2.27,2.27,0,0,1,1.38-2.08C89.09,78.63,92,66.59,92.46,58.63h-36c.46,8,3.38,20,12.12,23.68a2.28,2.28,0,0,1,1.38,2.08Z"/></g><g id="Grupo_21" data-name="Grupo 21"><path id="Trazado_247" data-name="Trazado 247" class="cls-2" d="M74.45,117.39c-12.59,0-33.9-2.14-33.9-10.17,0-4,5.18-6.92,15.4-8.71a2.26,2.26,0,0,1,.78,4.45h0c-9.08,1.59-11.51,3.81-11.67,4.31.61,1.89,11.25,5.6,29.39,5.6s28.78-3.71,29.39-5.7c-.16-.4-2.58-2.61-11.61-4.2A2.26,2.26,0,1,1,93,98.52h0c10.18,1.79,15.34,4.72,15.34,8.7C108.35,115.25,87,117.39,74.45,117.39Z"/></g><g id="Grupo_22" data-name="Grupo 22"><path id="Trazado_248" data-name="Trazado 248" class="cls-2" d="M74.45,128.69c-35.23,0-54.25-10.47-54.25-20.34,0-10.74,18.53-17,35.88-19.2a2.26,2.26,0,0,1,.59,4.48h0c-21,2.71-31.93,9.45-31.93,14.71,0,7.49,20.43,15.82,49.73,15.82s49.72-8.33,49.72-15.82c0-5.26-11-12-31.91-14.71a2.26,2.26,0,0,1,.57-4.49h0c17.34,2.24,35.86,8.46,35.86,19.2C128.7,118.22,109.68,128.69,74.45,128.69Z"/></g></g></g></svg>