<svg xmlns="http://www.w3.org/2000/svg" viewBox="0 0 185.8 185.8"><defs><style>.cls-1{fill:#c63;}.cls-2{fill:#fff;}</style></defs><title>normativa</title><g id="Capa_2" data-name="Capa 2"><g id="Capa_1-2" data-name="Capa 1"><circle id="Elipse_4" data-name="Elipse 4" class="cls-1" cx="92.9" cy="92.9" r="92.9"/><path id="Trazado_261" data-name="Trazado 261" class="cls-2" d="M158.48,82l-.06-.13,0,0L158,81,136.12,39.27c-.6-1.08-2.68-4.28-6.69-4.28H56c-4.47,0-6.71,4.4-6.76,4.5l-21.53,41v0l-.15.29a5.7,5.7,0,0,0-.37,4.57A30.91,30.91,0,0,0,79.61,86c.85-2-.33-4.38-.33-4.38L58.9,42.78l-.19-.38c-.28-.63-.52-1.83,1.66-1.83H87.08c.76,0,2.87.4,2.87,3.93v91.91a4.83,4.83,0,0,1-2.29,3.92L74.29,148.6s-3.51,2.21,0,2.21h37.94c2.59,0,0-1.79,0-1.79l-13.77-8.43v0a5.11,5.11,0,0,1-2.75-4V44.11c0-3.2,2.29-3.52,3.09-3.54h26.12c.68,0,2.77.24,1.46,2.74L105.92,82.24a4.42,4.42,0,0,0,.08,3.22,30.94,30.94,0,0,0,52.75,0A4.88,4.88,0,0,0,158.48,82ZM72.66,80.73h0l.28.54c.44.89,1.09,2.6-.28,2.6H33.83c-1.28,0-1-1.18-.62-2.13l.62-1.17h0L52.34,45.31s.95-1.46,1.72,0h0Zm40,.42.27-.52v0l18.1-34.46s1.25-2.37,2.5,0l18,34.35c.37.74,1.51,3.36-1.17,3.36h-36c-2.62,0-2.14-1.79-1.72-2.72Z"/></g></g></svg>