<svg xmlns="http://www.w3.org/2000/svg" viewBox="0 0 152.35 151.85"><defs><style>.cls-1{fill:#434440;}.cls-2{fill:#ea4c3a;}.cls-3{fill:none;stroke:#ea4c3a;stroke-linejoin:round;stroke-width:0.75px;}</style></defs><title>pdf</title><g id="Capa_2" data-name="Capa 2"><g id="Capa_1-2" data-name="Capa 1"><g id="Grupo_44" data-name="Grupo 44"><path id="Trazado_270" data-name="Trazado 270" class="cls-1" d="M146,38.59,118.2,6.38,112.7,0H47.1a15.94,15.94,0,0,0-16,15.92v20.3H41V19.83a9,9,0,0,1,8.94-9l56.12,0V37.4A17.9,17.9,0,0,0,124,55.32h19.45l-1,76.66a9,9,0,0,1-8.94,9l-84.25,0c-4.51,0-8.14-4.42-8.17-9.88v-6.48H31.21v9.67c0,9.74,6.52,17.64,14.52,17.64l90.67,0a16,16,0,0,0,15.95-15.95V46L146,38.59"/><path id="Trazado_271" data-name="Trazado 271" class="cls-2" d="M102.83,129.48H0V31.27H102.83v98.2m-93-9.88H92.94V41.16H9.87"/><path id="Trazado_272" data-name="Trazado 272" class="cls-3" d="M52.65,46.28c1.55.72,1.23,1.67.75,6.13a92.1,92.1,0,0,1-5.27,21.3A114.69,114.69,0,0,1,36.27,96.12c-4.07,6-7.54,9.92-10.2,12.18s-4.5,2.85-5.69,3.06-1.73,0-2.07-.6a4.27,4.27,0,0,1-.15-2.82,8.75,8.75,0,0,1,2.76-4.4A35.26,35.26,0,0,1,30,97.47a102.57,102.57,0,0,1,25-7.81,77.94,77.94,0,0,1,8.19-1.15,44.6,44.6,0,0,1,7.49,0,43.24,43.24,0,0,1,6.88,1.1,17.58,17.58,0,0,1,5.32,2,9,9,0,0,1,3.48,3.71,5.23,5.23,0,0,1,.1,4.21,4.49,4.49,0,0,1-2.87,2.25,7,7,0,0,1-4.35,0,21,21,0,0,1-5.69-3.06,53.54,53.54,0,0,1-7-6.06,127,127,0,0,1-9.22-10.32A71.87,71.87,0,0,1,50.43,72a37.79,37.79,0,0,1-3.2-8.08,42.75,42.75,0,0,1-1.47-7.25,25.6,25.6,0,0,1,.11-5.87A8.52,8.52,0,0,1,47,47.2a3.74,3.74,0,0,1,1.85-1.4A4,4,0,0,1,50,45.55a2.17,2.17,0,0,1,1.13,0,9.06,9.06,0,0,1,1.74.92"/></g></g></g></svg>