<svg xmlns="http://www.w3.org/2000/svg" viewBox="0 0 164.73 164.15"><defs><style>.cls-1{fill:#c63;}</style></defs><title>permisos</title><g id="Capa_2" data-name="Capa 2"><g id="Capa_1-2" data-name="Capa 1"><g id="Grupo_62" data-name="Grupo 62"><g id="Grupo_60" data-name="Grupo 60"><g id="Grupo_12" data-name="Grupo 12"><ellipse id="Elipse_1" data-name="Elipse 1" class="cls-1" cx="82.37" cy="82.07" rx="82.37" ry="82.07"/></g></g></g><g id="Grupo_65" data-name="Grupo 65"><path id="Trazado_281" data-name="Trazado 281" d="M119.22,102h-14V36.57a1.54,1.54,0,0,0-1.56-1.52H41.28a1.54,1.54,0,0,0-1.56,1.52v83.65a9.24,9.24,0,0,0,9.35,9.12h62.35a9.25,9.25,0,0,0,9.36-9.12V103.49a1.54,1.54,0,0,0-1.56-1.52ZM49.07,126.3a6.16,6.16,0,0,1-6.23-6.08V38.09h59.23v82.13a9,9,0,0,0,2.39,6.08Zm68.59-6.08a6.24,6.24,0,0,1-12.47,0V105h12.47Z"/><path id="Trazado_282" data-name="Trazado 282" d="M46,59.38H77.13v3H46Z"/><path id="Trazado_283" data-name="Trazado 283" d="M46,65.47H77.13v3H46Z"/><path id="Trazado_284" data-name="Trazado 284" d="M46,71.55H77.13v3H46Z"/><path id="Trazado_285" data-name="Trazado 285" d="M46,77.63H77.13v3.05H46Z"/><path id="Trazado_286" data-name="Trazado 286" d="M46,114.14H99v3H46Z"/><path id="Trazado_287" data-name="Trazado 287" d="M46,108.05H99v3H46Z"/><path id="Trazado_288" data-name="Trazado 288" d="M46,102H99v3H46Z"/><path id="Trazado_289" data-name="Trazado 289" d="M46,95.89H99v3H46Z"/><path id="Trazado_290" data-name="Trazado 290" d="M46,89.8H99v3H46Z"/><path id="Trazado_291" data-name="Trazado 291" d="M46,83.72H99v3H46Z"/><path id="Trazado_292" data-name="Trazado 292" d="M123.89,70V92.84h-3.11V48.74a1.66,1.66,0,0,0-.1-.54L116,36a1.56,1.56,0,0,0-2-.89,1.54,1.54,0,0,0-.91.89L108.4,48.2a1.65,1.65,0,0,0-.09.54V97.41a1.53,1.53,0,0,0,1.55,1.52h9.35a1.54,1.54,0,0,0,1.56-1.52h0V95.89h4.68A1.53,1.53,0,0,0,127,94.37h0V70ZM114.54,40.9l3,7.84h-6Zm-3.12,55V51.78h6.24V95.89Z"/></g></g></g></svg>