<svg xmlns="http://www.w3.org/2000/svg" viewBox="0 0 153.03 153.03"><defs><style>.cls-1{fill:#c63;}.cls-2{fill:#fff;}</style></defs><title>procesos</title><g id="Capa_2" data-name="Capa 2"><g id="Capa_1-2" data-name="Capa 1"><circle id="Elipse_3" data-name="Elipse 3" class="cls-1" cx="76.51" cy="76.51" r="76.51"/><g id="Grupo_37" data-name="Grupo 37"><g id="Grupo_25" data-name="Grupo 25"><path id="Trazado_249" data-name="Trazado 249" class="cls-2" d="M33.39,59.79a2.39,2.39,0,0,0,2.38-2.39h0V43.5c0-6.83,6-12.38,13.37-12.38H62.05a2.39,2.39,0,1,0,.07-4.78h-13C39.14,26.34,31,34,31,43.5V57.4a2.38,2.38,0,0,0,2.38,2.39Z"/></g><g id="Grupo_26" data-name="Grupo 26"><path id="Trazado_250" data-name="Trazado 250" class="cls-2" d="M62.05,121.91H49.14c-7.37,0-13.37-5.56-13.37-12.39V95.63a2.39,2.39,0,1,0-4.78,0v13.89c0,9.47,8.15,17.17,18.15,17.17H62.05a2.39,2.39,0,0,0,0-4.78Z"/></g><g id="Grupo_27" data-name="Grupo 27"><path id="Trazado_251" data-name="Trazado 251" class="cls-2" d="M103.89,26.34H91a2.39,2.39,0,1,0-.07,4.78h13c7.37,0,13.37,5.55,13.37,12.38V57.4a2.39,2.39,0,0,0,4.77,0V43.5C122,34,113.89,26.34,103.89,26.34Z"/></g><g id="Grupo_28" data-name="Grupo 28"><path id="Trazado_252" data-name="Trazado 252" class="cls-2" d="M119.64,93.24a2.39,2.39,0,0,0-2.38,2.39h0v13.89c0,6.83-6,12.39-13.37,12.39H91a2.39,2.39,0,0,0,0,4.78h12.91c10,0,18.14-7.7,18.14-17.17V95.63a2.38,2.38,0,0,0-2.38-2.39Z"/></g><g id="Grupo_29" data-name="Grupo 29"><path id="Trazado_253" data-name="Trazado 253" class="cls-2" d="M70.43,69.83A2.39,2.39,0,0,0,70,73.17h0c.07.09,6.69,9,6.69,20.07a2.39,2.39,0,1,0,4.78,0h0c0-12.6-7.33-22.52-7.65-22.93a2.37,2.37,0,0,0-3.33-.49Z"/></g><g id="Grupo_30" data-name="Grupo 30"><path id="Trazado_254" data-name="Trazado 254" class="cls-2" d="M66,57.66c-4.85,2.42-7,7.33-6.08,13.82A30.86,30.86,0,0,0,62.56,80a2.39,2.39,0,1,0,4.27-2.13c-.06-.12-6-12.26,1.28-15.89.31-.13,7.72-3.22,16,13.25a2.39,2.39,0,0,0,4.27-2.14C77.83,52.05,66.49,57.42,66,57.66Z"/></g><g id="Grupo_31" data-name="Grupo 31"><path id="Trazado_255" data-name="Trazado 255" class="cls-2" d="M80.56,52.47c.71.27,17.26,7.17,12.82,40.46a2.4,2.4,0,0,0,2.06,2.68l.31,0a2.39,2.39,0,0,0,2.37-2.08c5-37.29-15-45.23-15.86-45.55a2.39,2.39,0,1,0-1.7,4.46Z"/></g><g id="Grupo_32" data-name="Grupo 32"><path id="Trazado_256" data-name="Trazado 256" class="cls-2" d="M52.63,72.62a2.39,2.39,0,0,0-2,2.69h0a41.81,41.81,0,0,0,7.23,18.53,2.39,2.39,0,0,0,3.78-2.91,37.82,37.82,0,0,1-6.27-16.28,2.39,2.39,0,0,0-2.68-2Z"/></g><g id="Grupo_33" data-name="Grupo 33"><path id="Trazado_257" data-name="Trazado 257" class="cls-2" d="M50.39,61.8a2.39,2.39,0,0,0,2,2.74h0l.38,0a2.39,2.39,0,0,0,2.36-2c.08-.5,2.14-12.32,16.75-12.32a2.39,2.39,0,1,0,0-4.78C53.22,45.46,50.42,61.64,50.39,61.8Z"/></g><g id="Grupo_34" data-name="Grupo 34"><path id="Trazado_258" data-name="Trazado 258" class="cls-2" d="M45.58,107.58a2.39,2.39,0,0,0,0,4.77h2.14a2.39,2.39,0,0,0,0-4.77Z"/></g><g id="Grupo_35" data-name="Grupo 35"><path id="Trazado_259" data-name="Trazado 259" class="cls-2" d="M75.32,107.58H73.18a2.39,2.39,0,1,0-.06,4.77h2.2a2.39,2.39,0,0,0,0-4.77Z"/></g><g id="Grupo_36" data-name="Grupo 36"><path id="Trazado_260" data-name="Trazado 260" class="cls-2" d="M100.78,112.35h2.14a2.39,2.39,0,0,0,0-4.77h-2.14a2.39,2.39,0,0,0,0,4.77Z"/></g></g></g></g></svg>