<svg xmlns="http://www.w3.org/2000/svg" viewBox="0 0 192.99 192.99"><defs><style>.cls-1{fill:#c63;}.cls-2{fill:#fff;}</style></defs><title>telefono</title><g id="Capa_2" data-name="Capa 2"><g id="Capa_1-2" data-name="Capa 1"><circle id="Elipse_5" data-name="Elipse 5" class="cls-1" cx="96.49" cy="96.49" r="96.49"/><path id="Trazado_262" data-name="Trazado 262" class="cls-2" d="M149.64,125.78a58.48,58.48,0,0,0-8.29-10.14c-2.5-2.5-11.08-10.65-16.6-10.65a4.87,4.87,0,0,0-3.52,1.39l-7.34,7.34a2,2,0,0,1-1.23.27c-4.08,0-12.72-4.52-21.36-13.15C79.79,89.32,77,79.66,78.42,78.26l7.34-7.35a4.76,4.76,0,0,0,1.39-3.52c0-5.52-8.15-14.1-10.65-16.6S65.43,40.14,59.91,40.14a4.8,4.8,0,0,0-3.53,1.39L41.7,56.21C37.36,60.55,38.94,69,46.4,81.42c6.48,10.74,16.73,23.35,28.85,35.47,21.51,21.51,43.29,36,54.19,36a8.82,8.82,0,0,0,6.49-2.4l14.68-14.69C153.79,132.58,150.66,127.46,149.64,125.78Zm-18.7,19.69a2.39,2.39,0,0,1-1.5.33c-7.42,0-27.2-11.88-49.21-33.89-11.74-11.74-21.61-23.85-27.8-34.13-7-11.58-6.32-16-5.76-16.59L60.5,47.37c1.8.7,6,3.36,11,8.4s7.7,9.22,8.4,11l-6.48,6.48C66.69,80,75.38,94.88,86.32,105.82,95.7,115.2,105.8,121,112.66,121a8.44,8.44,0,0,0,6.2-2.33l6.49-6.48c1.8.69,6,3.36,11,8.4s7.7,9.22,8.4,11Z"/></g></g></svg>