<svg xmlns="http://www.w3.org/2000/svg" viewBox="0 0 118.65 118.65"><defs><style>.cls-1{fill:#c63;}.cls-2{stroke:#009640;stroke-width:0.1px;}</style></defs><title>twitter</title><g id="Capa_2" data-name="Capa 2"><g id="Capa_1-2" data-name="Capa 1"><path id="rect2990-1" class="cls-1" d="M59.32,0h0a59.32,59.32,0,0,1,59.33,59.32h0a59.33,59.33,0,0,1-59.33,59.33h0A59.33,59.33,0,0,1,0,59.32H0A59.32,59.32,0,0,1,59.32,0Z"/><path id="rect2989" class="cls-2" d="M73.53,28.47A15.62,15.62,0,0,0,58.36,44.53a15.1,15.1,0,0,0,.4,3.07A44.27,44.27,0,0,1,26.64,31.32a15.61,15.61,0,0,0,4.82,20.8,15.56,15.56,0,0,1-7-1.95v.2a15.57,15.57,0,0,0,12.5,15.26,15.42,15.42,0,0,1-4.11.55,15.23,15.23,0,0,1-2.93-.28A15.57,15.57,0,0,0,44.42,76.72a31.26,31.26,0,0,1-19.34,6.67,32.87,32.87,0,0,1-3.72-.21,44.2,44.2,0,0,0,23.87,7c28.66,0,44.33-23.74,44.33-44.33,0-.67,0-1.35,0-2a31.67,31.67,0,0,0,7.77-8.06,30.9,30.9,0,0,1-9,2.45A15.58,15.58,0,0,0,95.2,29.6a31.21,31.21,0,0,1-9.9,3.79,15.54,15.54,0,0,0-11.38-4.92h-.39Z"/></g></g></svg>