<svg xmlns="http://www.w3.org/2000/svg" viewBox="0 0 274.77 206.14"><defs><style>.cls-1{fill:#c63;}.cls-2{fill:#fff;}</style></defs><title>video</title><g id="Capa_2" data-name="Capa 2"><g id="Capa_1-2" data-name="Capa 1"><g id="iconfinder_youtube_317714" data-name="iconfinder youtube 317714"><path id="Trazado_264" data-name="Trazado 264" class="cls-1" d="M272,44.48s-2.68-20.21-10.92-29.1C250.65,3.71,238.94,3.64,233.57,3c-38.45-3-96.13-3-96.13-3h-.13S79.64,0,41.19,3c-5.36.66-17.06.73-27.52,12.39C5.44,24.27,2.75,44.48,2.75,44.48A472.92,472.92,0,0,0,0,91.91v22.23a472.94,472.94,0,0,0,2.75,47.44s2.68,20.2,10.92,29.08C24.13,202.33,37.84,202,44,203.19c22,2.25,93.42,2.95,93.42,2.95s57.74-.1,96.19-3c5.37-.69,17.08-.76,27.53-12.42,8.23-8.88,10.92-29.08,10.92-29.08a472.94,472.94,0,0,0,2.75-47.44V91.92A472.94,472.94,0,0,0,272,44.48Z"/><path id="Trazado_265" data-name="Trazado 265" class="cls-2" d="M103.07,51.53V154.6L189,103.07Z"/></g></g></g></svg>