<?xml version="1.0" encoding="utf-8"?>
<!-- Generator: Adobe Illustrator 23.0.1, SVG Export Plug-In . SVG Version: 6.00 Build 0)  -->
<svg version="1.1" id="Capa_1" xmlns="http://www.w3.org/2000/svg" xmlns:xlink="http://www.w3.org/1999/xlink" x="0px" y="0px"
	 viewBox="0 0 512 512" style="enable-background:new 0 0 512 512;" xml:space="preserve">
<path d="M64,381.1c-35.2,0-64,29.7-64,65.7C0,482.6,28.6,512,64,512c35.4,0,64-29.4,64-65.2C128,410.9,99.2,381.1,64,381.1z
	 M75.3,503.2c-3.6,0.8-7.4,1.2-11.3,1.2s-7.7-0.4-11.3-1.2v-17.9c0-4.3,1.1-5.8,2.6-7.9c0.8-0.9,1.2-1.7,4.6-7l-5.8-0.9
	c-14.9-2.2-20.7-10.1-23-16.3c-3-8.2-1.4-18.5,4-25c0.8-1,1.5-2.7,0.9-4.4c-1.1-3.5-1-9.1-0.2-11.3c4,0.6,8.1,3.5,11.5,5.6
	c1.6,0.9,2.4,0.7,3.1,0.8c2.7-0.6,7-2,13.6-2c4,0,8.3,0.6,12.5,1.8c0.8,0,2,0.6,4-0.6c3.6-2.2,7.5-5,11.5-5.6
	c0.8,2.1,0.9,7.7-0.2,11.3c-0.6,1.8,0.1,3.5,0.9,4.4c5.4,6.5,7,16.8,4,25c-2.3,6.1-8.2,14-23,16.3l-5.8,0.9c3.5,5.5,3.9,6.1,4.7,7
	c1.5,2.1,2.6,3.6,2.6,7.9V503.2z M82.8,501v-15.7c0-4.4-0.9-7.3-2.1-9.4c11.4-3.1,19.5-10,23.1-19.9c3.8-10.4,2.1-22.8-4.3-31.4
	c1.1-5.1,1.1-13.3-1.6-17.2c-1.2-1.7-2.9-2.6-5-2.6c-0.1,0-0.1,0-0.1,0c-5.8,0.3-10.4,3.3-15.3,6.4c-4.5-1.2-9.1-1.8-13.7-1.8
	c-4.6,0-9.3,0.7-13.4,1.8c-5.2-3.2-9.7-6-15.7-6.4c-1.9,0-3.5,0.9-4.7,2.6c-2.7,3.8-2.7,12-1.6,17.2c-6.4,8.6-8.1,21.1-4.3,31.4
	c3.6,9.9,11.7,16.8,23.1,19.9c-0.9,1.7-1.7,3.8-2,6.7c-2.3,0.8-4.3,1.1-6.2,0.5c-2-0.6-3.5-1.9-4.8-4.2c-3-5.1-8.1-9.3-13.8-8.7
	l0.7,7.6c2.7-0.3,5.3,2.6,6.7,5c2.3,3.9,5.4,6.5,9.1,7.6c2.8,0.8,5.4,0.8,8.1,0.2V501c-21.8-7.8-37.8-29.1-37.8-54.1
	c0-31.7,25.5-58,56.5-58s56.5,26.3,56.5,58C120.5,471.8,104.6,493.1,82.8,501z"/>
</svg>
