<?xml version="1.0" encoding="utf-8"?>
<!-- Generator: Adobe Illustrator 23.0.1, SVG Export Plug-In . SVG Version: 6.00 Build 0)  -->
<svg version="1.1" id="Layer_1" xmlns="http://www.w3.org/2000/svg" xmlns:xlink="http://www.w3.org/1999/xlink" x="0px" y="0px"
	 viewBox="0 0 82.2 82.2" style="enable-background:new 0 0 82.2 82.2;" xml:space="preserve">
<style type="text/css">
	.st0{fill:#FFFFFF;stroke:#000000;stroke-miterlimit:10;}
	.st1{fill:#F93E2B;}
</style>
<circle class="st0" cx="42.5" cy="40.5" r="32"/>
<g>
	<g>
		<path d="M24.6,35.6c0.6,0,1-0.4,1-1v-5.8c0-2.9,2.5-5.2,5.6-5.2h5.4c0.6,0,1-0.4,1-1s-0.4-1-1-1h-5.4c-4.2,0-7.6,3.2-7.6,7.2v5.8
			C23.6,35.2,24,35.6,24.6,35.6z"/>
	</g>
	<g>
		<path d="M36.6,61.6h-5.4c-3.1,0-5.6-2.3-5.6-5.2v-5.8c0-0.6-0.4-1-1-1s-1,0.4-1,1v5.8c0,4,3.4,7.2,7.6,7.2h5.4c0.6,0,1-0.4,1-1
			S37.1,61.6,36.6,61.6z"/>
	</g>
	<g>
		<path d="M54.1,21.6h-5.4c-0.6,0-1,0.4-1,1s0.4,1,1,1h5.4c3.1,0,5.6,2.3,5.6,5.2v5.8c0,0.6,0.4,1,1,1s1-0.4,1-1v-5.8
			C61.7,24.8,58.3,21.6,54.1,21.6z"/>
	</g>
	<g>
		<path d="M60.7,49.6c-0.6,0-1,0.4-1,1v5.8c0,2.9-2.5,5.2-5.6,5.2h-5.4c-0.6,0-1,0.4-1,1s0.4,1,1,1h5.4c4.2,0,7.6-3.2,7.6-7.2v-5.8
			C61.7,50.1,61.2,49.6,60.7,49.6z"/>
	</g>
	<g>
		<path class="st1" d="M40.1,39.8c-0.4,0.3-0.5,1-0.2,1.4c0,0,2.8,3.8,2.8,8.4c0,0.6,0.4,1,1,1s1-0.4,1-1c0-5.3-3.1-9.4-3.2-9.6
			C41.1,39.6,40.5,39.5,40.1,39.8z"/>
	</g>
	<g>
		<path class="st1" d="M38.2,34.7c-2,1-2.9,3.1-2.5,5.8c0.3,1.9,1.1,3.5,1.1,3.6c0.2,0.4,0.5,0.6,0.9,0.6c0.2,0,0.3,0,0.4-0.1
			c0.5-0.2,0.7-0.8,0.5-1.3c0-0.1-2.5-5.1,0.5-6.7c0.1-0.1,3.2-1.3,6.7,5.5c0.2,0.5,0.8,0.7,1.3,0.4c0.5-0.2,0.7-0.8,0.4-1.3
			C43.2,32.4,38.4,34.6,38.2,34.7z"/>
	</g>
	<g>
		<path class="st1" d="M44.3,32.6c0.3,0.1,7.2,3,5.4,16.9c-0.1,0.5,0.3,1,0.9,1.1c0,0,0.1,0,0.1,0c0.5,0,0.9-0.4,1-0.9
			c2.1-15.6-6.3-18.9-6.6-19.1c-0.5-0.2-1.1,0.1-1.3,0.6C43.5,31.8,43.8,32.3,44.3,32.6z"/>
	</g>
	<g>
		<path class="st1" d="M32.6,41c-0.5,0.1-0.9,0.6-0.9,1.1c0.6,4.6,2.9,7.6,3,7.8c0.2,0.3,0.5,0.4,0.8,0.4c0.2,0,0.4-0.1,0.6-0.2
			c0.4-0.3,0.5-1,0.2-1.4c0,0-2.1-2.7-2.6-6.8C33.7,41.3,33.2,40.9,32.6,41z"/>
	</g>
	<g>
		<path class="st1" d="M31.7,36.5c-0.1,0.5,0.3,1.1,0.8,1.1c0.1,0,0.1,0,0.2,0c0.5,0,0.9-0.4,1-0.8c0-0.2,0.9-5.2,7-5.2
			c0.6,0,1-0.4,1-1s-0.4-1-1-1C32.9,29.6,31.7,36.4,31.7,36.5z"/>
	</g>
	<g>
		<path d="M29.7,55.6c-0.6,0-1,0.4-1,1s0.4,1,1,1h0.9c0.6,0,1-0.4,1-1s-0.4-1-1-1H29.7z"/>
	</g>
	<g>
		<path d="M42.1,55.6h-0.9c-0.6,0-1,0.4-1,1s0.4,1,1,1h0.9c0.6,0,1-0.4,1-1S42.7,55.6,42.1,55.6z"/>
	</g>
	<g>
		<path d="M52.8,57.6h0.9c0.6,0,1-0.4,1-1s-0.4-1-1-1h-0.9c-0.6,0-1,0.4-1,1S52.2,57.6,52.8,57.6z"/>
	</g>
</g>
</svg>
