<svg xmlns="http://www.w3.org/2000/svg" viewBox="0 0 191.98 67.63"><defs><style>.cls-1{fill:#fff;}</style></defs><title>svglogo udc svg</title><g id="Capa_2" data-name="Capa 2"><g id="Capa_1-2" data-name="Capa 1"><path class="cls-1" d="M54.94,67.47.19,67.63,0,.54,191.79,0,192,67.08l-136.2.39c.31,0,.61-.13.93-.15a5.46,5.46,0,0,0,3.63-1.47,3.27,3.27,0,0,0,.36-.61,16,16,0,0,1-2.43,1.15,9.06,9.06,0,0,1-6-.38c-2.33-1-4.58-2.14-6.87-3.23a1.55,1.55,0,0,0-.23-.06l.1-.18.56-.11a4.5,4.5,0,0,0,3.74-3.14,4.67,4.67,0,0,0-1.16-5.08,5,5,0,0,0-6.06-.87l-.74.38-.13-.67L41,53c-.91,0-.91,0-.9.9,0,2.8,0,5.59,0,8.39,0,.71,0,1.43,0,2.15a.6.6,0,0,0,.22.47c.79.3,1.23,0,1.23-.85V61.91l1,.56a47.9,47.9,0,0,0,9.85,4.43C53.26,67.13,54.11,67.28,54.94,67.47Zm-40-44.37A22.33,22.33,0,1,0,37.17.66,22.36,22.36,0,0,0,14.92,23.1ZM161,58.6a6.48,6.48,0,0,0-13,.17,6.48,6.48,0,0,0,13-.17ZM2.14,51.05H.48a1,1,0,0,0-.06.21c0,3.7,0,7.39,0,11.08a3,3,0,0,0,2.74,3,5.82,5.82,0,0,0,1.32,0,3.09,3.09,0,0,0,3.14-3c0-3.66,0-7.31,0-11,0-.34-.12-.44-.45-.47s-.62.15-.62.62c0,3.11,0,6.23,0,9.34a14.72,14.72,0,0,1-.08,1.49,2,2,0,0,1-1.62,1.85,2.18,2.18,0,0,1-2.76-2.35l0-10.12ZM67,58.92c0,1.79,0,3.59,0,5.39,0,.29,0,.56.41.56,1.5,0,3,.1,4.48,0a6.2,6.2,0,0,0,5.49-7.67A5.82,5.82,0,0,0,72,52.86c-1.48,0-3,.06-4.43.06-.5,0-.65.17-.64.66C67,55.36,67,57.14,67,58.92Zm40.46-.13c0,1.73,0,3.47,0,5.2,0,.58.11.82.75.78s1.52,0,2.28,0a15.27,15.27,0,0,0,2.54-.18,6.15,6.15,0,0,0,4.9-7.06,5.84,5.84,0,0,0-5.49-4.82c-1.45-.05-2.91.07-4.36.07-.5,0-.66.16-.65.65C107.41,55.24,107.4,57,107.41,58.79Zm-19,.06c0,1.79,0,3.59,0,5.38,0,.45.13.6.58.59.82,0,1.64.07,2.45,0a13.82,13.82,0,0,0,2.89-.28,6,6,0,0,0,4.55-6.85,5.82,5.82,0,0,0-5.92-4.94c-1.38,0-2.75.07-4.13.09-.45,0-.45.27-.45.59C88.35,55.26,88.36,57.05,88.36,58.85Zm19.92-31a3.84,3.84,0,0,0,4.12-4,4.13,4.13,0,0,0-8.25,0A3.77,3.77,0,0,0,108.28,27.87Zm37.84,34.69-.33.29a6.07,6.07,0,0,1-7.85-.17,8,8,0,0,1-2.24-7.75,4.44,4.44,0,0,1,3.92-3.68,7.79,7.79,0,0,1,2.55,0c1.63.3,3,1,3.37,2.85,0,.09.18.16.27.24.08-.1.21-.19.22-.29a15.26,15.26,0,0,0,0-1.79,1,1,0,0,0-.4-.69,8.1,8.1,0,0,0-5.21-1.23,7.38,7.38,0,0,0-4.75,12.32c2.21,2.35,5,2.72,8,2a6,6,0,0,0,2.9-1.61Zm35-9,.22,0v.69q0,4.85,0,9.7c0,.43.11.6.57.59s.65-.1.64-.6c0-1.12,0-2.23,0-3.35,0-2.46,0-4.91,0-7.37,0-.43-.09-.7-.59-.63a1.93,1.93,0,0,1-.48,0c-.52-.08-.78.13-1,.63-.52,1.51-1.1,3-1.66,4.49-.07.19-.17.37-.31.69-.13-.35-.2-.53-.26-.71-.42-1.29-.83-2.58-1.26-3.87s-.41-1.2-1.7-1.22c-.53,0-.67.15-.67.68,0,3.55,0,7.1,0,10.66,0,.19,0,.38,0,.61l.74,0c0-1.88,0-3.69,0-5.5s0-3.61,0-5.41l.19,0c.87,2.43,1.74,4.86,2.66,7.45C179.24,58.44,180.17,56,181.09,53.58ZM10.32,56.25l.16,0,.53.85c1.5,2.57,3,5.13,4.48,7.71.21.34.47.54.82.38.14-.07.23-.41.23-.63,0-3.59,0-7.19,0-10.78,0-.19,0-.38,0-.59h-.77l0,8.83a2.09,2.09,0,0,1-.57-.68q-2.29-3.89-4.57-7.79c-.2-.32-.44-.51-.77-.37a.78.78,0,0,0-.27.6c0,3.57,0,7.14,0,10.72,0,.62.06.66.76.46ZM170.59,27.4a7.06,7.06,0,0,0,.88.15c.72,0,1.44.05,2.15,0a3.65,3.65,0,0,0,3.49-3.13c.22-2.35-.7-4-2.73-4.39a17,17,0,0,0-3.5-.06c-.1,0-.29.26-.29.4C170.58,22.7,170.59,25,170.59,27.4Zm-14.76-3.66c0,1.08,0,2.16,0,3.23,0,.38.11.56.5.56.83,0,1.67.11,2.5.08a3.64,3.64,0,0,0,3.53-3.21c.22-2.31-.81-4-2.87-4.35a19.31,19.31,0,0,0-3.14-.06c-.42,0-.54.18-.53.58C155.84,21.63,155.83,22.69,155.83,23.74Zm-101,37.84a3,3,0,0,0,.58.2,1.38,1.38,0,0,0,1.41-.71,1.53,1.53,0,0,0-.41-1.75,2.88,2.88,0,0,0-3-.6A2.65,2.65,0,0,0,51.49,61a3.25,3.25,0,0,0,1.69,3.53,5.66,5.66,0,0,0,5.89-.35,3.58,3.58,0,0,0-.32-6.08C57.9,57.52,57,57,56.1,56.48A5.23,5.23,0,0,1,55,55.65a1.3,1.3,0,0,1,.73-2.24,1.6,1.6,0,0,1,2.15,1.37,1.36,1.36,0,0,0,.06.29.24.24,0,0,0,.17.13.26.26,0,0,0,.18-.11c0-.6,0-1.2,0-1.79,0,0-.1-.12-.17-.15-.33-.12-.67-.24-1-.34a2.59,2.59,0,0,0-3,1.12,2.36,2.36,0,0,0,.43,3,15.61,15.61,0,0,0,2,1.49c.64.44,1.35.79,2,1.26a2.49,2.49,0,0,1,.06,3.9,4.47,4.47,0,0,1-5.78-.44,2.69,2.69,0,0,1-.32-3,2.38,2.38,0,0,1,2.56-.86c.45.11.84.3.9.82a1.1,1.1,0,0,1-.63,1.19ZM79.67,27.67c0-.21,0-.37,0-.53,0-1.57,0-3.15,0-4.73,0-.48.16-.65.62-.59a2.82,2.82,0,0,1,.41,0c.51.1.91.35,1,.92a1,1,0,0,1-.8,1c-.27.09-.56.14-.9.22l2.15,4,1.6-.91-1.35-2.25a7.23,7.23,0,0,0,1.12-1.34,2.14,2.14,0,0,0-1.68-3.08,19.3,19.3,0,0,0-3.57-.11c-.15,0-.43.31-.43.48,0,2.21,0,4.43,0,6.64,0,.31.13.44.44.4S79.16,27.72,79.67,27.67ZM140,23.8a4.58,4.58,0,0,0,.67-1.3,1.88,1.88,0,0,0-1.76-2.27,23.74,23.74,0,0,0-3.16-.07c-.14,0-.39.27-.4.42,0,2.2,0,4.39,0,6.59a.51.51,0,0,0,.38.36,25.23,25.23,0,0,0,2.75,0c1.56-.12,2.36-1,2.16-2.32A5.17,5.17,0,0,0,140,23.8Zm-21.92.07L113.82,20l0,7.71.85-.07c.89-.09.88-.09.87-1s0-1.73,0-2.76l4.33,3.9V27c0-1.9,0-3.79,0-5.69,0-1.38.16-1.15-1.23-1.15-.45,0-.58.17-.56.61C118.1,21.72,118.08,22.71,118.08,23.87ZM97.52,27.78a12.61,12.61,0,0,1,1.27-.1c.52,0,.69-.16.67-.68,0-1.3,0-1.3,1.25-1.39h.06A2.74,2.74,0,0,0,103.42,23a2.43,2.43,0,0,0-2.27-2.78,18.79,18.79,0,0,0-3.27,0c-.13,0-.35.29-.36.46,0,.59,0,1.19,0,1.79C97.51,24.22,97.51,26,97.52,27.78ZM32.61,53.08l0,.15V64.6c0,.33.14.42.43.41h4.55c.34,0,.46-.14.45-.46,0-.56,0-1.12,0-1.68a1.69,1.69,0,0,0-.18-.45c-.1.14-.27.26-.3.42-.24,1-.52,1.35-1.56,1.51-.45.08-.91.06-1.37.1s-.55-.16-.54-.57C34,62,34,60,34,58.13c0-.14,0-.27,0-.52.54,0,1.08,0,1.61,0,.13,0,.25-.26.37-.39-.13-.11-.25-.29-.39-.31a9.59,9.59,0,0,0-1.2,0c-.32,0-.46-.14-.45-.47,0-.54,0-1.08,0-1.62,0-1.23,0-1.24,1.24-1.15s2.15.26,2.26,1.68c0,.1.17.17.26.26.07-.11.18-.22.18-.33,0-.62,0-1.24,0-1.85,0-.12-.2-.32-.31-.32C36,53.06,34.29,53.07,32.61,53.08Zm89-27.67c0,.54,0,1,0,1.45a.53.53,0,0,0,.48.64,12.65,12.65,0,0,0,2.58.28,2.33,2.33,0,0,0,2.18-2.29,2.15,2.15,0,0,0-2-2.44,4.23,4.23,0,0,1-1.08-.32.85.85,0,0,1-.41-.67.88.88,0,0,1,.59-.55,1.73,1.73,0,0,1,1,.17,4.77,4.77,0,0,1,.87.7l.87-1.31a3.53,3.53,0,0,0-3.7-1,2.4,2.4,0,0,0-1.6,2.42c.06,1.07.5,1.55,1.74,1.89.24.07.5.12.75.18.7.17,1,.48,1,.94s-.54.76-1.22.71a3.18,3.18,0,0,1-.86-.21C122.36,25.86,122,25.65,121.56,25.41ZM91,25.55c0,.48,0,.93,0,1.38a.61.61,0,0,0,.46.67,4.69,4.69,0,0,0,2.64.27,2.41,2.41,0,0,0,2.13-2.37c0-1.3-.57-2-2-2.37a7.28,7.28,0,0,1-.92-.23c-.36-.12-.66-.35-.57-.79a.66.66,0,0,1,.81-.54A4,4,0,0,1,94.7,22c.17.09.25.34.42.58l.95-1.43a3.47,3.47,0,0,0-3.73-1,2.36,2.36,0,0,0-1.54,2.5c0,1,.54,1.49,1.76,1.81a5.44,5.44,0,0,1,1.09.28c.24.13.54.46.53.68a1,1,0,0,1-.54.74,1.87,1.87,0,0,1-1.1,0A12,12,0,0,1,91,25.55ZM27.15,62.8H27c-.08-.26-.17-.52-.24-.78-.8-2.8-1.59-5.6-2.4-8.39-.05-.2-.22-.48-.38-.51a7.07,7.07,0,0,0-1.22,0,1.2,1.2,0,0,0,0,.28q1.76,5.75,3.49,11.49c.1.33.29.41.62.42s.48-.18.57-.48l3.31-11.29a2.42,2.42,0,0,0,0-.38c-.54-.18-.8,0-.94.5-.48,1.75-1,3.49-1.51,5.23Zm98.16-10c-1.66,0-3.23,0-4.8,0-.44,0-.59.14-.59.58,0,1.24,0,2.47,0,3.71,0,2.33,0,4.67,0,7,0,.36,0,.67.52.66,1.47,0,3,0,4.42,0,.34,0,.46-.14.45-.47,0-.58,0-1.16,0-1.74,0-.13-.11-.26-.17-.39-.08.13-.22.24-.25.38-.25,1.09-.54,1.39-1.65,1.57-.45.07-.92,0-1.37.08s-.49-.15-.49-.5c0-1.94,0-3.87,0-5.81,0-.35.12-.51.48-.51a6.08,6.08,0,0,0,1.13,0c.16,0,.28-.24.41-.36-.14-.12-.27-.31-.42-.34-.51-.08-1.25.09-1.47-.18s-.13-1-.13-1.56c0-1.69,0-1.69,1.72-1.46,1.22.17,1.51.43,1.8,1.56,0,.13.15.22.24.33.06-.11.17-.21.17-.32C125.32,54.31,125.31,53.61,125.31,52.81Zm-38.59,12c0-.24-.08-.42-.13-.58l-2.07-6.81c-.42-1.39-.83-2.78-1.28-4.16a2.3,2.3,0,0,0-.44-.61c-.17.2-.34.41-.5.63a.57.57,0,0,0-.07.22c-.82,2.65-1.63,5.29-2.44,7.94-.34,1.1-.66,2.2-1,3.3.52.22.74,0,.87-.43.35-1.22.72-2.44,1.08-3.66.5-1.7.5-1.68,2.24-1.7a.7.7,0,0,1,.81.64c.41,1.57.83,3.12,1.27,4.67.06.21.25.49.43.53A6.12,6.12,0,0,0,86.72,64.83Zm105.11-.3c-.07-.27-.09-.42-.14-.57-1.12-3.68-2.23-7.36-3.37-11a2.14,2.14,0,0,0-.4-.56c-.17.18-.42.34-.49.55-1.08,3.48-2.14,7-3.21,10.45l-.33,1.12c.5.15.74,0,.86-.43.35-1.22.7-2.45,1.09-3.66.67-2.12.08-1.63,2.28-1.72.47,0,.66.17.77.61q.63,2.4,1.31,4.78a.72.72,0,0,0,.43.44A6.71,6.71,0,0,0,191.83,64.53ZM87,24.55c.46,0,1,0,1.46,0s.69-.17.67-.69c0-.8,0-.8-.84-.8a8.68,8.68,0,0,1-1,0,.53.53,0,0,1-.39-.24c-.26-.73,0-1.07.77-1.08h2.09a4.22,4.22,0,0,0-.19-1,.77.77,0,0,0-.52-.4c-1.2,0-2.4,0-3.6,0-.33,0-.45.13-.45.46,0,2.16,0,4.31,0,6.47,0,.32.1.46.45.46,1.27,0,2.55,0,3.83,0,.15,0,.39-.1.42-.21.13-.39.19-.79.3-1.28H88.22c-1.49,0-1.49,0-1.3-1.5C86.92,24.67,86.94,24.66,87,24.55Zm71.65-10.07a3.11,3.11,0,0,0-3.28-3.32A3.21,3.21,0,0,0,152,14.4a3.35,3.35,0,0,0,6.69.08ZM164,27.6c.09-1.34,1-1.27,1.87-1.21a3,3,0,0,0,.6,0c.88-.14,1.56.07,1.81,1,0,0,.06,0,.14.12l1.57-.63-4-7.22L162.23,27Zm-35.33.07a3.82,3.82,0,0,0,.25-.51.84.84,0,0,1,1-.68,8.92,8.92,0,0,0,1.79,0,1,1,0,0,1,1.18.74c.06.15.35.36.48.32a9.64,9.64,0,0,0,1.36-.52l-4-7.22L127,27.1ZM69,40.83v-.68l-.06-19.41q0-6.31,0-12.64c0-.25.18-.67-.32-.68s-.32.44-.37.71a1.08,1.08,0,0,0,0,.18q0,9.25,0,18.51,0,6.7,0,13.42C68.27,40.67,68.26,41.08,69,40.83Zm67.85-29.06.16,0c.11.17.24.34.34.51,1,1.67,1.94,3.35,3,5,.11.19.42.26.65.38a1.72,1.72,0,0,0,.23-.59c0-1.95,0-3.91,0-5.86,0-.41,0-.72.56-.67.11,0,.24-.22.36-.34-.12-.1-.23-.28-.35-.28-.62,0-1.24,0-1.85,0-.13,0-.25.18-.37.28.12.12.24.34.35.34.42,0,.5.2.5.56,0,1.28,0,2.55,0,3.83a4.85,4.85,0,0,1-.09.56c-.19-.29-.3-.44-.4-.6-.8-1.38-1.65-2.73-2.4-4.14A1.25,1.25,0,0,0,136,9.87c-.3.07-.8-.25-.85.31,0,.15.43.33.76.57l0,6.05a1.48,1.48,0,0,0-.51.06.53.53,0,0,0-.27.35c0,.08.18.26.28.27.73,0,1.46,0,2.26,0l-.06-.65c-.67.12-.81-.18-.79-.73,0-1,0-2.07,0-3.11ZM93,34.08a4.09,4.09,0,1,0-4.09,4.14A4,4,0,0,0,93,34.08Zm70,24.54c0,1.82,0,3.63,0,5.45,0,.34,0,.56.48.56,1.36,0,2.71,0,4.07,0,.38,0,.47-.16.46-.5,0-.58,0-1.16,0-1.74a1.38,1.38,0,0,0-.22-.46,2.22,2.22,0,0,0-.23.43c-.25,1.1-.53,1.38-1.65,1.57a4.63,4.63,0,0,1-.65,0c-.81,0-.81,0-.81-.77,0-3.27,0-6.54,0-9.81,0-.56-.18-.71-.71-.7s-.76.09-.74.68C163,55.11,163,56.87,163,58.62Zm-32.62-41a3.87,3.87,0,0,0,4-4,4,4,0,0,0-4-4,3.92,3.92,0,0,0-4,4A3.9,3.9,0,0,0,130.35,17.64ZM108.09,30.78a3.22,3.22,0,0,1,0,.38c-.67,1.92-1.33,3.84-2,5.75-.07.18-.37.26-.55.41s-.28.22-.26.3.18.34.29.34c.65,0,1.31,0,2,0a.47.47,0,0,0,.28-.33c0-.11-.18-.26-.31-.31a2.74,2.74,0,0,0-.63-.06c.19-.62.33-1.15.53-1.67a.58.58,0,0,1,.44-.29c.72,0,1.44,0,2.15,0,.14,0,.35.09.39.19.22.57.39,1.15.6,1.77a1.63,1.63,0,0,0-.48,0,3.54,3.54,0,0,0-.44.32c.14.12.28.33.43.34.64,0,1.28,0,1.91,0a.46.46,0,0,0,.32-.3c0-.11-.17-.34-.27-.34-.4,0-.49-.24-.59-.54-.3-.91-.62-1.81-.93-2.71-.36-1.07-.73-2.14-1.11-3.27l.92-.1c.14-.43.06-.65-.41-.64-.86,0-1.71,0-2.57,0-.52,0-.56.24-.41.65Zm-26-.19a2.64,2.64,0,0,0-1.87-.65A2.18,2.18,0,0,0,78,31.56,2,2,0,0,0,79.46,34c.46.17,1,.27,1.43.42a5.7,5.7,0,0,1,1,.37A1.3,1.3,0,0,1,82.1,37a1.73,1.73,0,0,1-1.69.31,2.5,2.5,0,0,1-1.66-1.51.78.78,0,0,0-.58-.33c-.11,0-.31.31-.32.49a12.63,12.63,0,0,0,0,1.74.52.52,0,0,0,.37.32c.13,0,.29-.16.4-.29s0-.22.07-.39c.13.09.23.14.33.2a3.33,3.33,0,0,0,2.66.6,2.33,2.33,0,0,0,1.87-1.86,2.07,2.07,0,0,0-1.25-2.34,13.77,13.77,0,0,0-1.53-.52A9.68,9.68,0,0,1,79.37,33a1.09,1.09,0,0,1,0-1.94,2.2,2.2,0,0,1,1.13-.24A2,2,0,0,1,82.2,32c.08.15.36.2.54.3a1.59,1.59,0,0,0,.22-.48,5.47,5.47,0,0,0,0-1.07,2.24,2.24,0,0,0-.26-.57ZM86.46,10V10c-.54,0-1.08,0-1.61,0-.16,0-.31.2-.46.31.13.11.25.3.39.31.34,0,.45.16.45.48,0,1.79,0,3.59,0,5.38,0,.31-.1.47-.44.49-.14,0-.26.2-.39.31.15.1.29.31.44.31,1,0,2,0,3.05,0a3.5,3.5,0,0,0,3.59-3.18c.27-2.09-.6-3.84-2.89-4.29A18.9,18.9,0,0,0,86.46,10Zm73.45,1.37,0,6.16c1.28.15,1.37.07,1.35-1.1,0-.3,0-.6,0-.9s0-.59,0-.89l.18,0,3.36,3c0-2.09,0-4,0-5.87a.46.46,0,0,0-.25-.34c-.8-.25-1.18,0-1.16.87,0,.48,0,1,.06,1.44,0,.2,0,.4,0,.76ZM101.24,35.65c-.48-.13-.79-.12-1,.34a2.61,2.61,0,0,1-3.07,1.26,3.26,3.26,0,0,1-2.27-4A3,3,0,0,1,97.1,30.8c1.41-.28,2.2.08,3.09,1.41,0,0,0,.09.06.1a1.37,1.37,0,0,0,.55.1c.09,0,.21-.22.21-.35a14.59,14.59,0,0,0,0-1.62c0-.12-.19-.33-.3-.33s-.3.15-.42.27a.9.9,0,0,0-.11.33,3.9,3.9,0,0,0-4.12-.44,4.24,4.24,0,0,0-1.87,5.55,4,4,0,0,0,5.17,2.08A3.09,3.09,0,0,0,101.24,35.65Zm13.63-18.74c-.45,0-.72-.06-.86-.51-.58-1.78-1.2-3.55-1.8-5.32a2.88,2.88,0,0,1-.09-.46,1.61,1.61,0,0,0,.53,0c.14-.05.23-.2.34-.31-.11-.11-.22-.3-.33-.31-.92,0-1.84,0-2.76,0-.11,0-.21.21-.31.32a1.1,1.1,0,0,0,.35.3,2.26,2.26,0,0,0,.57.06c-.07.25-.12.44-.18.62-.57,1.64-1.16,3.27-1.71,4.92-.16.47-.33.85-1,.77l0,.62c.74,0,1.43,0,2.13,0,.1,0,.25-.2.28-.33s-.15-.24-.27-.28a2.64,2.64,0,0,0-.64-.07c.2-.62.36-1.15.56-1.66a.55.55,0,0,1,.41-.26c.68,0,1.36,0,2,0a.61.61,0,0,1,.45.29c.21.51.36,1,.55,1.61l-1,.16c.19.25.31.53.45.54.73,0,1.47,0,2.24,0ZM94.81,10.64c.16-.51,0-.67-.44-.65-.58,0-1.16,0-1.73,0a.44.44,0,0,0-.32.3c0,.1.18.33.27.32.54-.05.57.27.56.67,0,1.32,0,2.63,0,3.95a2.25,2.25,0,0,0,2.54,2.49,4.87,4.87,0,0,0,.54,0,2,2,0,0,0,2-1.73,12,12,0,0,0,.11-1.9c0-1.13,0-2.26,0-3.4a1.5,1.5,0,0,0,.36-.07c.17-.11.32-.24.48-.36-.16-.1-.31-.27-.48-.28a4.31,4.31,0,0,0-1.19,0c-.31,0-.81-.26-.86.29,0,.15.42.34.65.52l.15-.09c0,.91,0,1.82,0,2.73a21.13,21.13,0,0,1-.11,2.39A1.23,1.23,0,0,1,96,17c-1.36.06-1.91-.44-1.93-1.81,0-1.22,0-2.43,0-3.65C94,10.93,94.07,10.51,94.81,10.64Zm76,53.92.55,0c.89,0,.89,0,.89-.91,0-3.45,0-6.9,0-10.35,0-.58-.2-.71-.72-.7s-.79,0-.78.7c0,3.53,0,7.06,0,10.59C170.82,64.12,170.83,64.31,170.85,64.56ZM150.9,26c-.81,0-1.54,0-2.26,0-.48,0-.63-.17-.62-.63,0-1.37,0-2.75,0-4.12s.33-1.28-1.38-1.22c0,0-.09,0-.11,0s-.41.31-.41.46q0,3.29,0,6.58a.54.54,0,0,0,.37.38c1.25,0,2.51,0,3.76,0a.43.43,0,0,0,.35-.23C150.72,26.89,150.79,26.5,150.9,26ZM64.34,64.89c0-.27,0-.43,0-.58,0-3.58,0-7.15,0-10.73,0-.64-.3-.64-.77-.64s-.75.06-.74.67c0,2.64,0,5.27,0,7.91,0,1,0,1.92,0,2.87,0,.4.13.54.52.51S64,64.9,64.34,64.89Zm-43.76,0a.82.82,0,0,0,0-.14l0-11.3c0-.12,0-.32-.08-.33a5.73,5.73,0,0,0-1.17-.05c-.09,0-.21.38-.21.58,0,3.39,0,6.77,0,10.16,0,1.27,0,1.28,1.29,1.14A.62.62,0,0,0,20.58,64.94ZM82.11,13.27H80c-.32,0-.48-.1-.47-.44,0-.58,0-1.16,0-1.74,0-.31.11-.43.42-.42.66,0,1.32,0,2,0,.88,0,.9,0,.91.88,0,.46.48.57.53.42a5,5,0,0,0,.25-1.55c0-.13-.24-.27-.37-.4h-.06c-1.65,0-3.31,0-5,0-.15,0-.3.2-.45.32.13.1.26.29.4.3.32,0,.42.16.42.45,0,1.81,0,3.63,0,5.44a.56.56,0,0,1-.34.42c-.24.07-.54.05-.44.39a.67.67,0,0,0,.52.29c1.28,0,2.56,0,3.83,0,1.51,0,1.51,0,1.48-1.52,0-.65-.08-.7-.79-.48a5.79,5.79,0,0,1,0,.93c0,.15-.23.39-.35.4-.86,0-1.72,0-2.58,0a.53.53,0,0,1-.35-.33c0-.86,0-1.71,0-2.68.74,0,1.43,0,2.12,0C82.14,14,82.3,13.8,82.11,13.27Zm24.7-1,.16-.18c0-.63,0-1.27,0-1.9,0-.11-.2-.29-.32-.3a.6.6,0,0,0-.4.22.86.86,0,0,0-.08.38c-1.59-.84-2.64-1-3.86-.41a4.06,4.06,0,0,0-2.08,5,3.8,3.8,0,0,0,4.58,2.52,2.85,2.85,0,0,0,2.32-2.35.71.71,0,0,0-1,.4,2.47,2.47,0,0,1-2.81,1.19c-2.65-.51-2.85-3.87-1.72-5.29s3.89-1.4,4.54.29C106.23,12.06,106.58,12.14,106.81,12.27Zm15.22,3c-.7-.15-.7-.15-1,.37a2.53,2.53,0,0,1-2.82,1.2,3,3,0,0,1-2.33-2.57,3.2,3.2,0,0,1,1.45-3.41c1.19-.66,3.1-.52,3.7,1,.17.42.47.32.83.23,0-.64,0-1.26,0-1.87a.48.48,0,0,0-.29-.34c-.11,0-.27.14-.37.26s-.06.2-.1.36l-.3-.16a3.57,3.57,0,0,0-3.2-.4A4,4,0,0,0,115.1,15a3.81,3.81,0,0,0,4.66,2.62A2.84,2.84,0,0,0,122,15.27ZM151.34,13c0-.39,0-.77,0-1.14a.47.47,0,0,0-.47-.56,7.49,7.49,0,0,0-1.9.09A3.18,3.18,0,0,0,147,15.66c.62,1.85,2.42,2.27,4,1.83a.67.67,0,0,0,.38-.44,11.4,11.4,0,0,0,0-1.31c-1.25.6-2,.55-2.58-.15a1.85,1.85,0,0,1-.11-2.13C149.21,12.7,149.92,12.57,151.34,13Zm-7.19,7.07h-1.39c-.42,0-.58.18-.57.62,0,1.84,0,3.67,0,5.5,0,1.48,0,1.46,1.48,1.36.4,0,.5-.18.49-.55,0-.77,0-1.55,0-2.33C144.16,23.17,144.16,21.66,144.15,20.08ZM152,23.83c0,.84,0,1.68,0,2.51,0,1.29,0,1.26,1.3,1.2.49,0,.64-.18.63-.67,0-1.87,0-3.74,0-5.61,0-1.4.31-1.26-1.33-1.21-.42,0-.6.18-.59.62C152,21.72,152,22.78,152,23.83ZM117.65,35.74c0,.39,0,.71,0,1s-.14.54-.52.52a13.53,13.53,0,0,0-1.56,0c-.56.05-.76-.13-.75-.72,0-1.71,0-3.43,0-5.15,0-.21,0-.42,0-.66a1.82,1.82,0,0,0,.51-.05,2.66,2.66,0,0,0,.44-.33c-.15-.11-.3-.31-.45-.32a18.68,18.68,0,0,0-2,0c-.13,0-.26.21-.38.32.12.12.25.33.36.33.5,0,.55.24.55.63,0,1.77,0,3.55,0,5.32,0,.38,0,.67-.53.65-.12,0-.25.21-.37.33.12.1.24.28.36.28,1.57,0,3.15,0,4.72,0a.46.46,0,0,0,.33-.3c0-.61,0-1.22,0-1.87ZM103,30.87a.85.85,0,0,1,0,.17l0,5.86c0,.36-.19.4-.49.44-.13,0-.24.22-.36.34.12.1.23.29.35.3a18.48,18.48,0,0,0,2,0c.13,0,.25-.22.37-.34-.12-.11-.24-.31-.35-.3-.53.05-.58-.25-.58-.66,0-1.78,0-3.55,0-5.32,0-.4.07-.65.55-.62.12,0,.25-.21.37-.32-.13-.11-.25-.31-.39-.32a7.59,7.59,0,0,0-1.43,0c-.3,0-.81-.26-.86.32S102.73,30.6,103,30.87ZM123,17.49h2.48v-.64c-.74.2-.8-.2-.79-.74,0-1.62,0-3.24,0-4.85,0-.22,0-.43,0-.64a.8.8,0,0,0,.29-.06c.18-.1.34-.22.51-.33-.17-.11-.34-.3-.51-.31a11.78,11.78,0,0,0-1.68,0c-.13,0-.25.21-.38.32.11.1.22.3.33.3.48,0,.5.27.5.62,0,1.62,0,3.23,0,4.85,0,.59-.06,1-.8.89ZM129.82,9c.8-.28,1.08-1.06,1.72-1.68C130.19,7.21,130.31,8.38,129.82,9Z"/><path d="M54.94,67.47c-.83-.19-1.68-.34-2.49-.57a47.9,47.9,0,0,1-9.85-4.43l-1-.56v2.16c0,.82-.44,1.15-1.23.85a.6.6,0,0,1-.22-.47c0-.72,0-1.44,0-2.15,0-2.8,0-5.59,0-8.39,0-.91,0-.92.9-.9l.51,0,.13.67.74-.38a5,5,0,0,1,6.06.87,4.67,4.67,0,0,1,1.16,5.08,4.5,4.5,0,0,1-3.74,3.14l-.56.11-.1.18a1.55,1.55,0,0,1,.23.06C47.7,63.87,50,65,52.28,66a9.06,9.06,0,0,0,6,.38,16,16,0,0,0,2.43-1.15,3.27,3.27,0,0,1-.36.61,5.46,5.46,0,0,1-3.63,1.47c-.32,0-.62.1-.93.15ZM42.05,60.83a21.15,21.15,0,0,0,2,.85,3.32,3.32,0,0,0,4.31-2.49,4.62,4.62,0,0,0-1-4.14A3.8,3.8,0,0,0,42,54.24a1.2,1.2,0,0,0-.42.83c0,1.85,0,3.71,0,5.56,0,.17,0,.34.05.58Z"/><path d="M14.92,23.1A22.33,22.33,0,1,1,37.29,45.35,22.35,22.35,0,0,1,14.92,23.1Zm.78,0A21.57,21.57,0,1,0,37.16,1.43,21.62,21.62,0,0,0,15.7,23.06Z"/><path d="M161,58.6a6.48,6.48,0,0,1-13,.17,6.48,6.48,0,0,1,13-.17Zm-1.4.88a6.26,6.26,0,0,0-4.06-5.8c-2.56-.9-5.07.18-5.8,2.54-1.06,3.43,1.48,7.89,5.82,7.53A4.17,4.17,0,0,0,159.56,59.48Z"/><path d="M2.14,51.05v.77l0,10.12a2.18,2.18,0,0,0,2.76,2.35,2,2,0,0,0,1.62-1.85A14.72,14.72,0,0,0,6.63,61c0-3.11,0-6.23,0-9.34,0-.47.14-.65.62-.62s.45.13.45.47c0,3.65,0,7.3,0,11a3.09,3.09,0,0,1-3.14,3,5.82,5.82,0,0,1-1.32,0,3,3,0,0,1-2.74-3C.4,58.65.43,55,.42,51.26a1,1,0,0,1,.06-.21Z"/><path d="M67,58.92c0-1.78,0-3.56,0-5.34,0-.49.14-.66.64-.66,1.48,0,3-.11,4.43-.06a5.82,5.82,0,0,1,5.35,4.32,6.2,6.2,0,0,1-5.49,7.67c-1.48.12-3,0-4.48,0-.42,0-.41-.27-.41-.56C67,62.51,67,60.71,67,58.92Zm1.38,0c0,1.45,0,2.91,0,4.36,0,.23.19.59.36.64a6.29,6.29,0,0,0,4.71-.2,5.46,5.46,0,0,0,2.14-7.18c-1.42-3-4.19-3.44-6.88-2.57a.82.82,0,0,0-.35.64C68.31,56.07,68.33,57.5,68.33,58.94Z"/><path d="M107.41,58.79c0-1.78,0-3.55,0-5.33,0-.49.15-.65.65-.65,1.45,0,2.91-.12,4.36-.07a5.84,5.84,0,0,1,5.49,4.82,6.15,6.15,0,0,1-4.9,7.06,15.27,15.27,0,0,1-2.54.18c-.76,0-1.52-.08-2.28,0s-.76-.2-.75-.78C107.44,62.26,107.41,60.52,107.41,58.79Zm1.38.07c0,1.45,0,2.91,0,4.36,0,.21.16.56.31.6a6.2,6.2,0,0,0,4.87-.28,5.54,5.54,0,0,0,1.8-7.5c-1.6-2.73-4.29-2.95-6.71-2.15-.15,0-.29.39-.29.6C108.77,56,108.78,57.4,108.79,58.86Z"/><path d="M88.36,58.85c0-1.8,0-3.59,0-5.39,0-.32,0-.58.45-.59,1.38,0,2.75-.12,4.13-.09a5.82,5.82,0,0,1,5.92,4.94,6,6,0,0,1-4.55,6.85,13.82,13.82,0,0,1-2.89.28c-.81,0-1.63,0-2.45,0-.45,0-.59-.14-.58-.59C88.38,62.44,88.37,60.64,88.36,58.85Zm1.38,0c0,1.46,0,2.92,0,4.38,0,.22.18.59.34.64a6.39,6.39,0,0,0,4.67-.18,5.34,5.34,0,0,0,2.48-6.38c-1-3.28-3.9-4.48-7.15-3.39a.75.75,0,0,0-.36.62C89.72,56,89.74,57.43,89.74,58.86Z"/><path d="M108.28,27.87a3.77,3.77,0,0,1-4.13-3.95,4.13,4.13,0,0,1,8.25,0A3.84,3.84,0,0,1,108.28,27.87Zm0-1.84a2,2,0,0,0,2-2.09,2,2,0,0,0-2-2.17,2.06,2.06,0,0,0-2,2.13A2,2,0,0,0,108.26,26Z"/><path d="M146.12,62.56l.44.51a6,6,0,0,1-2.9,1.61c-3,.72-5.79.35-8-2a7.38,7.38,0,0,1,4.75-12.32,8.1,8.1,0,0,1,5.21,1.23,1,1,0,0,1,.4.69,15.26,15.26,0,0,1,0,1.79c0,.1-.14.19-.22.29-.09-.08-.25-.15-.27-.24-.37-1.84-1.74-2.55-3.37-2.85a7.79,7.79,0,0,0-2.55,0,4.44,4.44,0,0,0-3.92,3.68,8,8,0,0,0,2.24,7.75,6.07,6.07,0,0,0,7.85.17Z"/><path d="M181.09,53.58c-.92,2.43-1.85,4.86-2.84,7.46-.92-2.59-1.79-5-2.66-7.45l-.19,0c0,1.8,0,3.6,0,5.41s0,3.62,0,5.5l-.74,0c0-.23,0-.42,0-.61,0-3.56,0-7.11,0-10.66,0-.53.14-.69.67-.68,1.29,0,1.3,0,1.7,1.22s.84,2.58,1.26,3.87c.06.18.13.36.26.71.14-.32.24-.5.31-.69.56-1.49,1.14-3,1.66-4.49.18-.5.44-.71,1-.63a1.93,1.93,0,0,0,.48,0c.5-.07.59.2.59.63,0,2.46,0,4.91,0,7.37,0,1.12,0,2.23,0,3.35,0,.5-.19.59-.64.6s-.57-.16-.57-.59q0-4.86,0-9.7V53.6Z"/><path d="M10.32,56.25l0,8.68c-.7.2-.76.16-.76-.46,0-3.58,0-7.15,0-10.72a.78.78,0,0,1,.27-.6c.33-.14.57.05.77.37q2.26,3.91,4.57,7.79a2.09,2.09,0,0,0,.57.68l0-8.83h.77c0,.21,0,.4,0,.59,0,3.59,0,7.19,0,10.78,0,.22-.09.56-.23.63-.35.16-.61,0-.82-.38-1.48-2.58-3-5.14-4.48-7.71l-.53-.85Z"/><path d="M170.59,27.4c0-2.38,0-4.7,0-7,0-.14.19-.4.29-.4a17,17,0,0,1,3.5.06c2,.41,3,2,2.73,4.39a3.65,3.65,0,0,1-3.49,3.13c-.71,0-1.43,0-2.15,0A7.06,7.06,0,0,1,170.59,27.4Zm1.84-3.71c0,.56,0,1.12,0,1.67s.2.61.64.59a2.25,2.25,0,0,0,1.85-3.36,1.93,1.93,0,0,0-2-1.13c-.31.05-.47.17-.46.5C172.44,22.54,172.43,23.12,172.43,23.69Z"/><path d="M155.83,23.74c0-1,0-2.11,0-3.17,0-.4.11-.59.53-.58a19.31,19.31,0,0,1,3.14.06c2.06.37,3.09,2,2.87,4.35a3.64,3.64,0,0,1-3.53,3.21c-.83,0-1.67-.06-2.5-.08-.39,0-.5-.18-.5-.56C155.85,25.9,155.84,24.82,155.83,23.74Zm1.86,0c0,.56,0,1.12,0,1.67s.18.58.6.56a2.25,2.25,0,0,0,1.87-3.31,1.94,1.94,0,0,0-2-1.18c-.35,0-.48.18-.47.53C157.7,22.61,157.69,23.19,157.69,23.76Z"/><path d="M54.79,61.58l.55-.26A1.1,1.1,0,0,0,56,60.13c-.06-.52-.45-.71-.9-.82a2.38,2.38,0,0,0-2.56.86,2.69,2.69,0,0,0,.32,3,4.47,4.47,0,0,0,5.78.44,2.49,2.49,0,0,0-.06-3.9c-.62-.47-1.33-.82-2-1.26a15.61,15.61,0,0,1-2-1.49,2.36,2.36,0,0,1-.43-3,2.59,2.59,0,0,1,3-1.12c.34.1.68.22,1,.34.07,0,.17.1.17.15,0,.59,0,1.19,0,1.79a.26.26,0,0,1-.18.11.24.24,0,0,1-.17-.13,1.36,1.36,0,0,1-.06-.29,1.6,1.6,0,0,0-2.15-1.37A1.3,1.3,0,0,0,55,55.65a5.23,5.23,0,0,0,1.09.83c.88.55,1.8,1,2.65,1.62a3.58,3.58,0,0,1,.32,6.08,5.66,5.66,0,0,1-5.89.35A3.25,3.25,0,0,1,51.49,61a2.65,2.65,0,0,1,1.87-2.28,2.88,2.88,0,0,1,3,.6,1.53,1.53,0,0,1,.41,1.75,1.38,1.38,0,0,1-1.41.71A3,3,0,0,1,54.79,61.58Z"/><path d="M79.67,27.67c-.51,0-1,.09-1.42.15s-.44-.09-.44-.4c0-2.21,0-4.43,0-6.64,0-.17.28-.48.43-.48a19.3,19.3,0,0,1,3.57.11,2.14,2.14,0,0,1,1.68,3.08,7.23,7.23,0,0,1-1.12,1.34l1.35,2.25-1.6.91L80,24c.34-.08.63-.13.9-.22a1,1,0,0,0,.8-1c0-.57-.45-.82-1-.92a2.82,2.82,0,0,0-.41,0c-.46-.06-.63.11-.62.59,0,1.58,0,3.16,0,4.73C79.7,27.3,79.68,27.46,79.67,27.67Z"/><path d="M140,23.8a5.17,5.17,0,0,1,.66,1.41c.2,1.36-.6,2.2-2.16,2.32a25.23,25.23,0,0,1-2.75,0,.51.51,0,0,1-.38-.36c0-2.2,0-4.39,0-6.59,0-.15.26-.42.4-.42a23.74,23.74,0,0,1,3.16.07,1.88,1.88,0,0,1,1.76,2.27A4.58,4.58,0,0,1,140,23.8Zm-2.94-1.5c0,1,0,1,.58,1,.83,0,1.3-.34,1.3-.92s-.53-.93-1.34-1S137.14,22,137.06,22.3Zm.53,2.12c-.52-.12-.56.26-.49.64s-.36,1.13.58,1.13c.73,0,1.17-.34,1.16-.91S138.42,24.43,137.59,24.42Z"/><path d="M118.08,23.87c0-1.16,0-2.15,0-3.14,0-.44.11-.61.56-.61,1.39,0,1.22-.23,1.23,1.15,0,1.9,0,3.79,0,5.69v.82l-4.33-3.9c0,1,0,1.89,0,2.76s0,.92-.87,1l-.85.07,0-7.71Z"/><path d="M97.52,27.78c0-1.83,0-3.56,0-5.29,0-.6,0-1.2,0-1.79,0-.17.23-.46.36-.46a18.79,18.79,0,0,1,3.27,0A2.43,2.43,0,0,1,103.42,23a2.74,2.74,0,0,1-2.65,2.59h-.06c-1.25.09-1.27.09-1.25,1.39,0,.52-.15.71-.67.68A12.61,12.61,0,0,0,97.52,27.78Zm1.83-5v.42c0,.68.29.9,1,.75a2.19,2.19,0,0,0,.34-.1,1.06,1.06,0,0,0,.65-1.32,1.4,1.4,0,0,0-1.49-.83c-.73.09-.39.65-.47,1Z"/><path d="M32.61,53.08c1.68,0,3.35,0,5,0,.11,0,.3.2.31.32,0,.61,0,1.23,0,1.85,0,.11-.11.22-.18.33-.09-.09-.25-.16-.26-.26-.11-1.42-1.14-1.61-2.26-1.68S34,53.56,34,54.79c0,.54,0,1.08,0,1.62,0,.33.13.47.45.47a9.59,9.59,0,0,1,1.2,0c.14,0,.26.2.39.31-.12.13-.24.37-.37.39-.53,0-1.07,0-1.61,0,0,.25,0,.38,0,.52C34,60,34,62,34,63.87c0,.41.12.6.54.57s.92,0,1.37-.1c1-.16,1.32-.47,1.56-1.51,0-.16.2-.28.3-.42a1.69,1.69,0,0,1,.18.45c0,.56,0,1.12,0,1.68,0,.32-.11.46-.45.46H33c-.29,0-.43-.08-.43-.41V53.23Z"/><path d="M121.56,25.41c.46.24.8.45,1.16.6a3.18,3.18,0,0,0,.86.21c.68.05,1.15-.24,1.22-.71s-.25-.77-1-.94c-.25-.06-.51-.11-.75-.18-1.24-.34-1.68-.82-1.74-1.89a2.4,2.4,0,0,1,1.6-2.42,3.53,3.53,0,0,1,3.7,1l-.87,1.31a4.77,4.77,0,0,0-.87-.7,1.73,1.73,0,0,0-1-.17.88.88,0,0,0-.59.55.85.85,0,0,0,.41.67,4.23,4.23,0,0,0,1.08.32,2.15,2.15,0,0,1,2,2.44,2.33,2.33,0,0,1-2.18,2.29A12.65,12.65,0,0,1,122,27.5a.53.53,0,0,1-.48-.64C121.58,26.41,121.56,26,121.56,25.41Z"/><path d="M91,25.55a12,12,0,0,0,1.53.66,1.87,1.87,0,0,0,1.1,0,1,1,0,0,0,.54-.74c0-.22-.29-.55-.53-.68a5.44,5.44,0,0,0-1.09-.28c-1.22-.32-1.71-.83-1.76-1.81a2.36,2.36,0,0,1,1.54-2.5,3.47,3.47,0,0,1,3.73,1l-.95,1.43c-.17-.24-.25-.49-.42-.58a4,4,0,0,0-1.13-.46.66.66,0,0,0-.81.54c-.09.44.21.67.57.79a7.28,7.28,0,0,0,.92.23c1.42.36,2,1.07,2,2.37a2.41,2.41,0,0,1-2.13,2.37,4.69,4.69,0,0,1-2.64-.27.61.61,0,0,1-.46-.67C91,26.48,91,26,91,25.55Z"/><path d="M27.15,62.8l1.15-3.94c.51-1.74,1-3.48,1.51-5.23.14-.52.4-.68.94-.5a2.42,2.42,0,0,1,0,.38L27.42,64.8c-.09.3-.21.49-.57.48s-.52-.09-.62-.42q-1.74-5.74-3.49-11.49a1.2,1.2,0,0,1,0-.28,7.07,7.07,0,0,1,1.22,0c.16,0,.33.31.38.51.81,2.79,1.6,5.59,2.4,8.39.07.26.16.52.24.78Z"/><path d="M125.31,52.81c0,.8,0,1.5,0,2.2,0,.11-.11.21-.17.32-.09-.11-.21-.2-.24-.33-.29-1.13-.58-1.39-1.8-1.56-1.73-.23-1.74-.23-1.72,1.46,0,.54-.14,1.22.13,1.56s1,.1,1.47.18c.15,0,.28.22.42.34-.13.12-.25.34-.41.36a6.08,6.08,0,0,1-1.13,0c-.36,0-.49.16-.48.51,0,1.94,0,3.87,0,5.81,0,.35.12.52.49.5s.92,0,1.37-.08c1.11-.18,1.4-.48,1.65-1.57,0-.14.17-.25.25-.38.06.13.17.26.17.39,0,.58,0,1.16,0,1.74,0,.33-.11.47-.45.47-1.47,0-3,0-4.42,0-.52,0-.52-.3-.52-.66,0-2.33,0-4.67,0-7,0-1.24,0-2.47,0-3.71,0-.44.15-.59.59-.58C122.08,52.83,123.65,52.82,125.31,52.81Z"/><path d="M86.72,64.83a6.12,6.12,0,0,1-1.22,0c-.18,0-.37-.32-.43-.53-.44-1.55-.86-3.1-1.27-4.67A.7.7,0,0,0,83,59c-1.74,0-1.74,0-2.24,1.7-.36,1.22-.73,2.44-1.08,3.66-.13.45-.35.65-.87.43.33-1.1.65-2.2,1-3.3.81-2.65,1.62-5.29,2.44-7.94a.57.57,0,0,1,.07-.22c.16-.22.33-.43.5-.63a2.3,2.3,0,0,1,.44.61c.45,1.38.86,2.77,1.28,4.16l2.07,6.81C86.64,64.41,86.67,64.59,86.72,64.83Zm-4.2-10h-.19l-.82,2.94h1.8Z"/><path d="M191.83,64.53a6.71,6.71,0,0,1-1.2,0,.72.72,0,0,1-.43-.44q-.67-2.38-1.31-4.78c-.11-.44-.3-.63-.77-.61-2.2.09-1.61-.4-2.28,1.72-.39,1.21-.74,2.44-1.09,3.66-.12.45-.36.58-.86.43l.33-1.12c1.07-3.48,2.13-7,3.21-10.45.07-.21.32-.37.49-.55a2.14,2.14,0,0,1,.4.56c1.14,3.67,2.25,7.35,3.37,11C191.74,64.11,191.76,64.26,191.83,64.53Zm-3.42-7-.79-3h-.19c-.27,1-.54,1.93-.83,2.95Z"/><path d="M87,24.55c-.09.11-.11.12-.11.14-.19,1.5-.19,1.5,1.3,1.5H90c-.11.49-.17.89-.3,1.28,0,.11-.27.21-.42.21-1.28,0-2.56,0-3.83,0-.35,0-.45-.14-.45-.46,0-2.16,0-4.31,0-6.47,0-.33.12-.46.45-.46,1.2,0,2.4,0,3.6,0a.77.77,0,0,1,.52.4,4.22,4.22,0,0,1,.19,1H87.68c-.77,0-1,.35-.77,1.08a.53.53,0,0,0,.39.24,8.68,8.68,0,0,0,1,0c.83,0,.8,0,.84.8,0,.52-.13.73-.67.69S87.49,24.55,87,24.55Z"/><path d="M158.68,14.48A3.35,3.35,0,0,1,152,14.4a3.21,3.21,0,0,1,3.41-3.24A3.11,3.11,0,0,1,158.68,14.48ZM157,14.43a1.66,1.66,0,1,0-3.32,0,1.66,1.66,0,1,0,3.32,0Z"/><path d="M164,27.6l-1.78-.6L166,19.69l4,7.22-1.57.63c-.08-.07-.13-.09-.14-.12-.25-1-.93-1.17-1.81-1a3,3,0,0,1-.6,0C165,26.33,164.1,26.26,164,27.6ZM165.12,25h2l-1-2L166,23Z"/><path d="M128.68,27.67,127,27.1l3.78-7.31,4,7.22a9.64,9.64,0,0,1-1.36.52c-.13,0-.42-.17-.48-.32a1,1,0,0,0-1.18-.74,8.92,8.92,0,0,1-1.79,0,.84.84,0,0,0-1,.68A3.82,3.82,0,0,1,128.68,27.67ZM131,23.12h-.18l-.9,2h2Z"/><path d="M69,40.83c-.71.25-.7-.16-.7-.59q0-6.72,0-13.42,0-9.26,0-18.51a1.08,1.08,0,0,1,0-.18c0-.27-.16-.72.37-.71s.32.43.32.68q0,6.33,0,12.64L69,40.15Z"/><path d="M136.82,11.77V13c0,1,0,2.08,0,3.11,0,.55.12.85.79.73l.06.65c-.8,0-1.53,0-2.26,0-.1,0-.29-.19-.28-.27a.53.53,0,0,1,.27-.35,1.48,1.48,0,0,1,.51-.06l0-6.05c-.33-.24-.77-.42-.76-.57.05-.56.55-.24.85-.31a1.25,1.25,0,0,1,1.49.83c.75,1.41,1.6,2.76,2.4,4.14.1.16.21.31.4.6a4.85,4.85,0,0,0,.09-.56c0-1.28,0-2.55,0-3.83,0-.36-.08-.56-.5-.56-.11,0-.23-.22-.35-.34.12-.1.24-.27.37-.28.61,0,1.23,0,1.85,0,.12,0,.23.18.35.28-.12.12-.25.34-.36.34-.54-.05-.57.26-.56.67,0,1.95,0,3.91,0,5.86a1.72,1.72,0,0,1-.23.59c-.23-.12-.54-.19-.65-.38-1-1.65-2-3.33-3-5-.1-.17-.23-.34-.34-.51Z"/><path d="M93,34.08a4.09,4.09,0,1,1-4.08-4.16A4,4,0,0,1,93,34.08Zm-4.08,3.28A3.16,3.16,0,0,0,92,34.07a3.15,3.15,0,1,0-6.29,0A3.15,3.15,0,0,0,88.87,37.36Z"/><path d="M163,58.62c0-1.75,0-3.51,0-5.27,0-.59.23-.67.74-.68s.71.14.71.7c0,3.27,0,6.54,0,9.81,0,.79,0,.79.81.77a4.63,4.63,0,0,0,.65,0c1.12-.19,1.4-.47,1.65-1.57a2.22,2.22,0,0,1,.23-.43,1.38,1.38,0,0,1,.22.46c0,.58,0,1.16,0,1.74,0,.34-.08.51-.46.5-1.36,0-2.71,0-4.07,0-.44,0-.48-.22-.48-.56C163,62.25,163,60.44,163,58.62Z"/><path d="M130.35,17.64a3.9,3.9,0,0,1-4-4,3.92,3.92,0,0,1,4-4,4,4,0,0,1,4,4A3.87,3.87,0,0,1,130.35,17.64Zm3-4a3,3,0,0,0-3-3.22,3.07,3.07,0,0,0-3,3.21,3,3,0,0,0,3,3.19A3,3,0,0,0,133.3,13.69Z"/><path d="M108.09,30.78l-.8-.07c-.15-.41-.11-.66.41-.65.86,0,1.71,0,2.57,0,.47,0,.55.21.41.64l-.92.1c.38,1.13.75,2.2,1.11,3.27.31.9.63,1.8.93,2.71.1.3.19.55.59.54.1,0,.28.23.27.34a.46.46,0,0,1-.32.3c-.63,0-1.27,0-1.91,0-.15,0-.29-.22-.43-.34a3.54,3.54,0,0,1,.44-.32,1.63,1.63,0,0,1,.48,0c-.21-.62-.38-1.2-.6-1.77,0-.1-.25-.18-.39-.19-.71,0-1.43,0-2.15,0a.58.58,0,0,0-.44.29c-.2.52-.34,1-.53,1.67a2.74,2.74,0,0,1,.63.06c.13,0,.31.2.31.31a.47.47,0,0,1-.28.33c-.66,0-1.32,0-2,0-.11,0-.27-.21-.29-.34s.15-.21.26-.3.48-.23.55-.41c.69-1.91,1.35-3.83,2-5.75A3.22,3.22,0,0,0,108.09,30.78Zm2,3.73L109,31.19l-.16,0-1.1,3.29Z"/><path d="M82.09,30.59l.61-.44a2.24,2.24,0,0,1,.26.57,5.47,5.47,0,0,1,0,1.07,1.59,1.59,0,0,1-.22.48c-.18-.1-.46-.15-.54-.3a2,2,0,0,0-1.74-1.2,2.2,2.2,0,0,0-1.13.24,1.09,1.09,0,0,0,0,1.94,9.68,9.68,0,0,0,1.41.46,13.77,13.77,0,0,1,1.53.52,2.07,2.07,0,0,1,1.25,2.34,2.33,2.33,0,0,1-1.87,1.86,3.33,3.33,0,0,1-2.66-.6c-.1-.06-.2-.11-.33-.2,0,.17,0,.31-.07.39s-.27.29-.4.29a.52.52,0,0,1-.37-.32,12.63,12.63,0,0,1,0-1.74c0-.18.21-.49.32-.49a.78.78,0,0,1,.58.33,2.5,2.5,0,0,0,1.66,1.51A1.73,1.73,0,0,0,82.1,37a1.3,1.3,0,0,0-.21-2.2,5.7,5.7,0,0,0-1-.37c-.48-.15-1-.25-1.43-.42A2,2,0,0,1,78,31.56a2.18,2.18,0,0,1,2.24-1.62A2.64,2.64,0,0,1,82.09,30.59Z"/><path d="M86.46,10a18.9,18.9,0,0,1,2.14.19c2.29.45,3.16,2.2,2.89,4.29a3.5,3.5,0,0,1-3.59,3.18c-1,.05-2,0-3.05,0-.15,0-.29-.21-.44-.31.13-.11.25-.3.39-.31.34,0,.44-.18.44-.49,0-1.79,0-3.59,0-5.38,0-.32-.11-.46-.45-.48-.14,0-.26-.2-.39-.31.15-.11.3-.3.46-.31.53,0,1.07,0,1.61,0Zm4.08,3.89a2.8,2.8,0,0,0-2.29-3.11,14.27,14.27,0,0,0-1.48-.14c-.48-.05-.66.14-.65.64,0,1.5,0,3,0,4.49S85.86,17,87.46,17A2.89,2.89,0,0,0,90.54,13.84Z"/><path d="M159.91,11.32l3.47,3.13c0-.36.05-.56,0-.76,0-.48,0-1-.06-1.44,0-.82.36-1.12,1.16-.87a.46.46,0,0,1,.25.34c0,1.89,0,3.78,0,5.87l-3.36-3-.18,0c0,.3,0,.59,0,.89s0,.6,0,.9c0,1.17-.07,1.25-1.35,1.1Z"/><path d="M101.24,35.65a3.09,3.09,0,0,1-1.89,2.25,4,4,0,0,1-5.17-2.08,4.24,4.24,0,0,1,1.87-5.55,3.9,3.9,0,0,1,4.12.44.9.9,0,0,1,.11-.33c.12-.12.28-.27.42-.27s.29.21.3.33a14.59,14.59,0,0,1,0,1.62c0,.13-.12.34-.21.35a1.37,1.37,0,0,1-.55-.1s0-.07-.06-.1c-.89-1.33-1.68-1.69-3.09-1.41a3,3,0,0,0-2.24,2.46,3.26,3.26,0,0,0,2.27,4A2.61,2.61,0,0,0,100.2,36C100.45,35.53,100.76,35.52,101.24,35.65Z"/><path d="M114.87,16.91v.64c-.77,0-1.51,0-2.24,0-.14,0-.26-.29-.45-.54l1-.16c-.19-.57-.34-1.1-.55-1.61a.61.61,0,0,0-.45-.29c-.67,0-1.35,0-2,0a.55.55,0,0,0-.41.26c-.2.51-.36,1-.56,1.66a2.64,2.64,0,0,1,.64.07c.12,0,.29.21.27.28s-.18.33-.28.33c-.7,0-1.39,0-2.13,0l0-.62c.62.08.79-.3,1-.77.55-1.65,1.14-3.28,1.71-4.92.06-.18.11-.37.18-.62a2.26,2.26,0,0,1-.57-.06,1.1,1.1,0,0,1-.35-.3c.1-.11.2-.32.31-.32.92,0,1.84,0,2.76,0,.11,0,.22.2.33.31-.11.11-.2.26-.34.31a1.61,1.61,0,0,1-.53,0,2.88,2.88,0,0,0,.09.46c.6,1.77,1.22,3.54,1.8,5.32C114.15,16.85,114.42,16.94,114.87,16.91ZM111.28,11h-.16l-1,3.24h2.32Z"/><path d="M94.81,10.64c-.74-.13-.8.29-.78.87,0,1.22,0,2.43,0,3.65S94.63,17,96,17a1.23,1.23,0,0,0,1.37-1.14,21.13,21.13,0,0,0,.11-2.39c0-.91,0-1.82,0-2.73l-.15.09c-.23-.18-.67-.37-.65-.52,0-.55.55-.25.86-.29a4.31,4.31,0,0,1,1.19,0c.17,0,.32.18.48.28-.16.12-.31.25-.48.36a1.5,1.5,0,0,1-.36.07c0,1.14,0,2.27,0,3.4a12,12,0,0,1-.11,1.9,2,2,0,0,1-2,1.73,4.87,4.87,0,0,1-.54,0,2.25,2.25,0,0,1-2.54-2.49c0-1.32,0-2.63,0-3.95,0-.4,0-.72-.56-.67-.09,0-.28-.22-.27-.32a.44.44,0,0,1,.32-.3c.57,0,1.15,0,1.73,0C94.8,10,95,10.13,94.81,10.64Z"/><path d="M170.85,64.56c0-.25,0-.44,0-.64,0-3.53,0-7.06,0-10.59,0-.65.26-.7.78-.7s.72.12.72.7c0,3.45,0,6.9,0,10.35,0,.92,0,.92-.89.91Z"/><path d="M150.9,26c-.11.49-.18.88-.3,1.25a.43.43,0,0,1-.35.23c-1.25,0-2.51,0-3.76,0a.54.54,0,0,1-.37-.38q0-3.3,0-6.58c0-.15.26-.31.41-.46s.07,0,.11,0c1.71-.06,1.36-.22,1.38,1.22s0,2.75,0,4.12c0,.46.14.65.62.63C149.36,26,150.09,26,150.9,26Z"/><path d="M64.34,64.89c-.35,0-.65,0-.94,0s-.53-.11-.52-.51c0-1,0-1.91,0-2.87,0-2.64,0-5.27,0-7.91,0-.61.25-.68.74-.67s.77,0,.77.64c0,3.58,0,7.15,0,10.73C64.36,64.46,64.35,64.62,64.34,64.89Z"/><path d="M20.58,64.94a.62.62,0,0,1-.14.06c-1.29.14-1.29.13-1.29-1.14,0-3.39,0-6.77,0-10.16,0-.2.12-.56.21-.58a5.73,5.73,0,0,1,1.17.05s.08.21.08.33l0,11.3A.82.82,0,0,1,20.58,64.94Z"/><path d="M82.11,13.27c.19.53,0,.72-.44.72-.69,0-1.38,0-2.12,0,0,1,0,1.82,0,2.68a.53.53,0,0,0,.35.33c.86,0,1.72,0,2.58,0,.12,0,.32-.25.35-.4a5.79,5.79,0,0,0,0-.93c.71-.22.78-.17.79.48,0,1.52,0,1.52-1.48,1.52-1.27,0-2.55,0-3.83,0a.67.67,0,0,1-.52-.29c-.1-.34.2-.32.44-.39a.56.56,0,0,0,.34-.42c0-1.81,0-3.63,0-5.44,0-.29-.1-.43-.42-.45-.14,0-.27-.2-.4-.3.15-.12.3-.32.45-.32,1.65,0,3.31,0,5,0h.06c.13.13.37.27.37.4A5,5,0,0,1,83.37,12c-.05.15-.52,0-.53-.42,0-.88,0-.88-.91-.88-.66,0-1.32,0-2,0-.31,0-.42.11-.42.42,0,.58,0,1.16,0,1.74,0,.34.15.45.47.44Z"/><path d="M106.81,12.27c-.23-.13-.58-.21-.65-.39-.65-1.69-3.35-1.79-4.54-.29s-.93,4.78,1.72,5.29a2.47,2.47,0,0,0,2.81-1.19.71.71,0,0,1,1-.4,2.85,2.85,0,0,1-2.32,2.35,3.8,3.8,0,0,1-4.58-2.52,4.06,4.06,0,0,1,2.08-5c1.22-.54,2.27-.43,3.86.41a.86.86,0,0,1,.08-.38.6.6,0,0,1,.4-.22c.12,0,.32.19.32.3,0,.63,0,1.27,0,1.9Z"/><path d="M122,15.27a2.84,2.84,0,0,1-2.27,2.31A3.81,3.81,0,0,1,115.1,15a4,4,0,0,1,2.47-5.05,3.57,3.57,0,0,1,3.2.4l.3.16c0-.16,0-.29.1-.36s.26-.27.37-.26a.48.48,0,0,1,.29.34c0,.61,0,1.23,0,1.87-.36.09-.66.19-.83-.23-.6-1.49-2.51-1.63-3.7-1a3.2,3.2,0,0,0-1.45,3.41,3,3,0,0,0,2.33,2.57,2.53,2.53,0,0,0,2.82-1.2C121.33,15.12,121.33,15.12,122,15.27Z"/><path d="M151.34,13c-1.42-.44-2.13-.31-2.61.45a1.85,1.85,0,0,0,.11,2.13c.59.7,1.33.75,2.58.15a11.4,11.4,0,0,1,0,1.31.67.67,0,0,1-.38.44c-1.59.44-3.39,0-4-1.83A3.18,3.18,0,0,1,149,11.4a7.49,7.49,0,0,1,1.9-.09.47.47,0,0,1,.47.56C151.32,12.24,151.34,12.62,151.34,13Z"/><path d="M144.15,20.08c0,1.58,0,3.09,0,4.6,0,.78,0,1.56,0,2.33,0,.37-.09.52-.49.55-1.48.1-1.48.12-1.48-1.36,0-1.83,0-3.66,0-5.5,0-.44.15-.62.57-.62Z"/><path d="M152,23.83c0-1,0-2.11,0-3.16,0-.44.17-.61.59-.62,1.64-.05,1.31-.19,1.33,1.21,0,1.87,0,3.74,0,5.61,0,.49-.14.65-.63.67-1.3.06-1.29.09-1.3-1.2Z"/><path d="M117.65,35.74h.79c0,.65,0,1.26,0,1.87a.46.46,0,0,1-.33.3c-1.57,0-3.15,0-4.72,0-.12,0-.24-.18-.36-.28.12-.12.25-.34.37-.33.5,0,.53-.27.53-.65,0-1.77,0-3.55,0-5.32,0-.39,0-.67-.55-.63-.11,0-.24-.21-.36-.33.12-.11.25-.31.38-.32a18.68,18.68,0,0,1,2,0c.15,0,.3.21.45.32a2.66,2.66,0,0,1-.44.33,1.82,1.82,0,0,1-.51.05c0,.24,0,.45,0,.66,0,1.72,0,3.44,0,5.15,0,.59.19.77.75.72a13.53,13.53,0,0,1,1.56,0c.38,0,.55-.13.52-.52S117.66,36.13,117.65,35.74Z"/><path d="M103,30.87c-.24-.27-.84.14-.79-.46s.56-.29.86-.32a7.59,7.59,0,0,1,1.43,0c.14,0,.26.21.39.32-.12.11-.25.33-.37.32-.48,0-.56.22-.55.62,0,1.77,0,3.54,0,5.32,0,.41,0,.71.58.66.11,0,.23.19.35.3-.12.12-.24.33-.37.34a18.48,18.48,0,0,1-2,0c-.12,0-.23-.2-.35-.3.12-.12.23-.33.36-.34.3,0,.5-.08.49-.44L103,31A.85.85,0,0,0,103,30.87Z"/><path d="M123,17.49V16.9c.74.11.81-.3.8-.89,0-1.62,0-3.23,0-4.85,0-.35,0-.64-.5-.62-.11,0-.22-.2-.33-.3.13-.11.25-.31.38-.32a11.78,11.78,0,0,1,1.68,0c.17,0,.34.2.51.31-.17.11-.33.23-.51.33a.8.8,0,0,1-.29.06c0,.21,0,.42,0,.64,0,1.61,0,3.23,0,4.85,0,.54,0,.94.79.74v.64Z"/><path d="M129.82,9c.49-.57.37-1.74,1.72-1.68C130.9,7.89,130.62,8.67,129.82,9Z"/><path class="cls-1" d="M42.05,60.83l-.42.38c0-.24-.05-.41-.05-.58,0-1.85,0-3.71,0-5.56a1.2,1.2,0,0,1,.42-.83,3.8,3.8,0,0,1,5.37.81,4.62,4.62,0,0,1,1,4.14,3.32,3.32,0,0,1-4.31,2.49A21.15,21.15,0,0,1,42.05,60.83Z"/><path class="cls-1" d="M15.7,23.06A21.57,21.57,0,1,1,37,44.59,21.52,21.52,0,0,1,15.7,23.06ZM37.4,43.3A20.28,20.28,0,1,0,17.09,23.1,20.24,20.24,0,0,0,37.4,43.3Z"/><path class="cls-1" d="M159.56,59.48a4.17,4.17,0,0,1-4,4.27c-4.34.36-6.88-4.1-5.82-7.53.73-2.36,3.24-3.44,5.8-2.54A6.26,6.26,0,0,1,159.56,59.48Z"/><path class="cls-1" d="M68.33,58.94c0-1.44,0-2.87,0-4.31a.82.82,0,0,1,.35-.64c2.69-.87,5.46-.42,6.88,2.57a5.46,5.46,0,0,1-2.14,7.18,6.29,6.29,0,0,1-4.71.2c-.17,0-.35-.41-.36-.64C68.33,61.85,68.34,60.39,68.33,58.94Z"/><path class="cls-1" d="M108.79,58.86c0-1.46,0-2.91,0-4.37,0-.21.14-.55.29-.6,2.42-.8,5.11-.58,6.71,2.15a5.54,5.54,0,0,1-1.8,7.5,6.2,6.2,0,0,1-4.87.28c-.15,0-.3-.39-.31-.6C108.78,61.77,108.79,60.31,108.79,58.86Z"/><path class="cls-1" d="M89.74,58.86c0-1.43,0-2.87,0-4.31a.75.75,0,0,1,.36-.62c3.25-1.09,6.16.11,7.15,3.39a5.34,5.34,0,0,1-2.48,6.38,6.39,6.39,0,0,1-4.67.18c-.16-.05-.33-.42-.34-.64C89.74,61.78,89.75,60.32,89.74,58.86Z"/><path class="cls-1" d="M108.26,26a2,2,0,0,1-2.06-2.13,2.06,2.06,0,0,1,2-2.13,2,2,0,0,1,2,2.17A2,2,0,0,1,108.26,26Z"/><path class="cls-1" d="M172.43,23.69c0-.57,0-1.15,0-1.73,0-.33.15-.45.46-.5a1.93,1.93,0,0,1,2,1.13A2.25,2.25,0,0,1,173.07,26c-.44,0-.67-.09-.64-.59S172.43,24.25,172.43,23.69Z"/><path class="cls-1" d="M157.69,23.76c0-.57,0-1.15,0-1.73,0-.35.12-.5.47-.53a1.94,1.94,0,0,1,2,1.18A2.25,2.25,0,0,1,158.29,26c-.42,0-.63-.09-.6-.56S157.69,24.32,157.69,23.76Z"/><path class="cls-1" d="M137.06,22.3c.08-.32-.26-.9.54-.87s1.35.39,1.34,1-.47.91-1.3.92C137.06,23.32,137.06,23.32,137.06,22.3Z"/><path class="cls-1" d="M137.59,24.42c.83,0,1.24.3,1.25.86s-.43.91-1.16.91c-.94,0-.51-.71-.58-1.13S137.07,24.3,137.59,24.42Z"/><path class="cls-1" d="M99.35,22.8v-.06c.08-.37-.26-.93.47-1a1.4,1.4,0,0,1,1.49.83,1.06,1.06,0,0,1-.65,1.32,2.19,2.19,0,0,1-.34.1c-.68.15-1-.07-1-.75Z"/><path class="cls-1" d="M82.52,54.87l.79,2.94h-1.8l.82-2.94Z"/><path class="cls-1" d="M188.41,57.53H186.6c.29-1,.56-2,.83-2.95h.19Z"/><path class="cls-1" d="M157,14.43a1.66,1.66,0,1,1-3.32,0,1.66,1.66,0,1,1,3.32,0Z"/><path class="cls-1" d="M165.12,25l.89-2,.17,0,1,2Z"/><path class="cls-1" d="M131,23.12l.95,2h-2l.9-2Z"/><path class="cls-1" d="M88.87,37.36a3.29,3.29,0,0,1,0-6.58A3.11,3.11,0,0,1,92,34.07,3.16,3.16,0,0,1,88.87,37.36Z"/><path class="cls-1" d="M133.3,13.69a3,3,0,0,1-3,3.18,3,3,0,0,1-3-3.19,3.07,3.07,0,0,1,3-3.21A3,3,0,0,1,133.3,13.69Z"/><path class="cls-1" d="M110.12,34.51H107.7l1.1-3.29.16,0Z"/><path class="cls-1" d="M90.54,13.84A2.89,2.89,0,0,1,87.46,17c-1.6,0-1.29.19-1.31-1.25s0-3,0-4.49c0-.5.17-.69.65-.64a14.27,14.27,0,0,1,1.48.14A2.8,2.8,0,0,1,90.54,13.84Z"/><path class="cls-1" d="M111.28,11l1.13,3.24h-2.32l1-3.24Z"/><path d="M37.4,43.3A20.28,20.28,0,1,1,57.62,23.19,20.3,20.3,0,0,1,37.4,43.3Zm0-.8A19.48,19.48,0,1,0,17.87,23.08,19.56,19.56,0,0,0,37.4,42.5Z"/><path class="cls-1" d="M37.4,42.5A19.48,19.48,0,1,1,56.83,22.91a19.27,19.27,0,0,1-.63,5A19.59,19.59,0,0,1,37.4,42.5ZM34.79,11.67c-.4.22-.76.43-1.14.61a4.26,4.26,0,0,1-1.15.48,1.9,1.9,0,0,1-1.93-.82,1.56,1.56,0,0,1-.13-1.84,2,2,0,0,0-.51-2.44,1.69,1.69,0,0,0-2.15-.24,4,4,0,0,0-1.28,1c-.94,1.23-1.81,2.54-2.73,3.85a1.25,1.25,0,0,0,1.41-.57c.47-.58.88-1.19,1.35-1.76a2.85,2.85,0,0,1,.59-.42l.13.16-1.82,2.51A.9.9,0,0,0,26.66,12c.3-.31.53-.69.83-1a7.48,7.48,0,0,1,.75-.62l.19.21c-.78.81-1.21,1.92-2.33,2.43.34.49.72.62,1.15.3a6.07,6.07,0,0,0,.83-.85c.2-.21.39-.44.59-.66l.21.18L27,14.25a.78.78,0,0,0,1.17.12,6,6,0,0,0,.69-.74c.13-.14.27-.26.41-.39l.13.12L28.37,15c1.06.33,1.46-.73,2.21-1a1.94,1.94,0,0,1-1,1.29,2.08,2.08,0,0,1-2.33,0v4.72l.6-.07c-.09.29-.13.5-.2.69a2.71,2.71,0,0,0-.31.76c-.05,1.46-.05,2.92-.06,4.38.8-.18,1.11-.84,1.28-1.68A6.1,6.1,0,0,1,29,25.82c.05,1.68,0,3.35,0,5,0,.36-.13.94.45.94s.46-.55.47-.93c0-.79,0-1.59,0-2.39a4.16,4.16,0,0,1,.06-.55c.45.48.45.48.47,1.59s.18,1.13,1.06.89c.84.91,1.64,1.83,2.48,2.7a.72.72,0,0,1,.16.94,5.82,5.82,0,0,1-2.51,2.89l1.86,1.56c.47-1.29.88-2.47,1.33-3.64.06-.17.26-.28.39-.42a1.45,1.45,0,0,1,0,.58c-.36,1.12-.76,2.23-1.12,3.35a.65.65,0,0,0,.1.55,7,7,0,0,0,1,.56c.06-.19.12-.32.15-.45.26-1,.5-2,.78-3a2.37,2.37,0,0,1,.36-.55,2,2,0,0,1,.12.61c-.26,1.49-.55,3-.84,4.51h2.82c0-.22,0-.4,0-.57-.21-1.07-.43-2.14-.65-3.22a9.34,9.34,0,0,1-.16-1.06c0-.08.09-.2.17-.25s.19.07.23.14a2.38,2.38,0,0,1,.15.45c.29,1.11.59,2.22.89,3.39.27-.15.47-.28.68-.37.45-.19.56-.44.36-.93-.4-1-.74-2.06-1.08-3.1a2.9,2.9,0,0,1-.07-.66l.29-.07L41,38.47l1.85-1.57A5.63,5.63,0,0,1,40.31,34a.82.82,0,0,1,0-.69c.87-1,1.78-2,2.69-3,.76.33,1,.16,1.06-.74a7.53,7.53,0,0,1,0-.95,5.05,5.05,0,0,1,.3-.82l.18.05c0,1,0,1.95,0,2.93,0,.38-.08,1,.49,1s.47-.59.47-1c0-1.78,0-3.56,0-5.33a9.21,9.21,0,0,1,.32-1.63c.39,1.36.69,1.75,1.44,1.78,0-.43-.09-.86-.09-1.29,0-1,0-2.08,0-3.12a.89.89,0,0,0-.31-.61c-.36-.26-.32-.49-.11-.78l.47.08V15.22c-2.14.38-3.29-.19-3.44-1.75.71.58,1,1.86,2.29,1.27l-1.23-1.8.16-.12c.33.36.65.73,1,1.09a.89.89,0,0,0,1.45-.05L46.68,13c1.07.32,1.37.25,1.79-.46-1-.46-2.53-2-2.47-2.64.26.19.48.33.68.51.51.44,1,.92,1.52,1.34.15.11.45,0,.68.06a3.75,3.75,0,0,0-.14-.6c-.12-.26-.29-.48-.43-.72l.13-.09c.34.38.66.78,1,1.15a1.19,1.19,0,0,0,1.29.39c-.39-.52-.79-1-1.13-1.54a7.74,7.74,0,0,0-3.38-3.27,1.68,1.68,0,0,0-2.13.35,1.82,1.82,0,0,0-.48,2.22A2.69,2.69,0,0,1,43.84,11a2,2,0,0,1-2.29,1.54,1.37,1.37,0,0,0-1.18.18c-.13.1-.36.08-.55.11l0-.14,1-.64a3.53,3.53,0,0,1-.8-.57,2.23,2.23,0,0,0-1.93-.88c-1.06-.05-1.06-.15-1.32.87a2,2,0,0,0-.14.91c.19.65.16.82-.46,1.1a1.46,1.46,0,0,0-.81.63c-.13.25-.53.36-.83.51-.15.09-.4.08-.47.2-.41.68-1.16.81-1.78,1.14a9.21,9.21,0,0,1-3.7,1c-.27-.83-.17-1,.59-1.12s1.45,0,1.84-.79c0-.05.2,0,.28-.05a11.44,11.44,0,0,0,1.37-.65c.32-.19.56-.64.88-.68.6-.08,1.09,0,1-.9,0-.26.43-.54.65-.82s.45-.65.95-.26l.52-2c.93.36,1.77.77,2.72.25a9.22,9.22,0,0,0-1.33-.75c-.51-.26-1.22-.42-1.46-.84-.44-.8-.75-1.53-1.83-1.63-.7-.07-1.24.32-1.12.88.6.39,1.1.69,1.58,1,.08,0,0,.28,0,.42.06.55-.39,1.17.29,1.63C34.48,10.89,34.64,10.77,34.79,11.67ZM25,12.75c-1.07.43-1.07.43-1.07,1.44q0,3.78,0,7.53a1.39,1.39,0,0,0,1.12-1.51c0-2.34,0-4.67,0-7C25.05,13.07,25,12.94,25,12.75Zm24.44-.13c0,2.59,0,5.12,0,7.65a1.33,1.33,0,0,0,1.24,1.32c0-.47-.12-.93-.12-1.4,0-2,0-4.07,0-6.1C50.56,13.06,50.56,13.06,49.44,12.62Zm-.39,21.72a12,12,0,0,1-.12-1.28c0-1.77,0-3.54,0-5.31,0-.86-.19-1.06-1.12-1.16,0,2.15,0,4.3,0,6.45A1.39,1.39,0,0,0,49.05,34.34ZM23.88,35A1.41,1.41,0,0,0,25.1,33.5c0-1.89,0-3.79,0-5.69a2.5,2.5,0,0,0-.07-.44C24,27.71,24,27.71,24,28.7c0,1.69,0,3.39,0,5.08C24,34.18,23.92,34.57,23.88,35Zm25.6-7.66c0,2.12,0,4.19,0,6.26a1.37,1.37,0,0,0,1.19,1.32c0-.69-.07-1.39-.08-2.09,0-1.42,0-2.83,0-4.24C50.6,27.62,50.58,27.59,49.48,27.33Zm-23.87,7a1.32,1.32,0,0,0,1.17-1.49c0-2,0-4,0-6a1.51,1.51,0,0,0-.05-.28c-1,.24-1,.3-1,1.22,0,1.39,0,2.79,0,4.18C25.69,32.79,25.64,33.58,25.61,34.35Zm2.85-8.54c-1.07.3-1.07.3-1.07,1.21,0,1.7,0,3.39,0,5.08a1.45,1.45,0,0,0,0,.59c.12.25.3.62.5.66.45.08.51-.33.54-.69,0-.19,0-.39,0-.59,0-1.75,0-3.5,0-5.26Zm17.67,0c0,.13,0,.27,0,.41,0,2,0,4.06,0,6.1,0,.14,0,.31,0,.41a4.43,4.43,0,0,0,.49.58c.18-.18.42-.33.51-.54A2,2,0,0,0,47.2,32c0-1.68,0-3.35,0-5C47.18,26.09,47.09,26,46.13,25.83ZM25.71,13.43c-.14,2.56.16,5.07-.15,7.56a1.41,1.41,0,0,0,1.2-1.55c0-1.21-.06-2.43,0-3.64A2.51,2.51,0,0,0,25.71,13.43Zm23.17.06-.34-.08a4.52,4.52,0,0,0-.76,1.52c-.1,1.51,0,3,0,4.54a1.32,1.32,0,0,0,1.14,1.41ZM39.49,6a3.52,3.52,0,0,1-2.69-.1,5.25,5.25,0,0,0-.74-.23,1.46,1.46,0,0,0-.53.1c0,.18,0,.45.15.52.65.39.83,1.1,1.2,1.66a2.62,2.62,0,0,0,1.88,1c.12,0,.21-.18.32-.28a1,1,0,0,0-.28-.23c-.32-.11-.66-.15-1-.29a1.94,1.94,0,0,1-.47-.44c1.51.31,1.77.27,1.88-.4-.46-.21-1.11.2-1.6-.48.49,0,.84,0,1.19,0S39.55,6.54,39.49,6ZM49,26.45c0-.52-.09-1-.1-1.5,0-.91,0-1.83,0-2.74s-.21-1-1.11-1.09c0,1.35,0,2.71,0,4.06A1.42,1.42,0,0,0,49,26.45Zm.48-4.62c0,.21,0,.36,0,.52,0,1,0,2.08,0,3.11a1.35,1.35,0,0,0,1.23,1.32c0-.45-.11-.89-.12-1.34,0-.78,0-1.56,0-2.34C50.59,22.13,50.59,22.13,49.49,21.83ZM24,26.84a1.41,1.41,0,0,0,1.11-1.55c0-.9,0-1.79,0-2.69,0-.24,0-.49,0-.75C24,22.19,24,22.19,24,23.22,24,24.42,24,25.63,24,26.84Zm2.77-5.76c-1.07.33-1.06.33-1.07,1.33,0,1.37,0,2.73-.05,4.07a1.34,1.34,0,0,0,1.12-1.23C26.77,23.87,26.74,22.5,26.74,21.08Z"/><path d="M34.79,11.67c-.15-.9-.31-.78.78-1-.68-.46-.23-1.08-.29-1.63,0-.14,0-.37,0-.42-.48-.34-1-.64-1.58-1-.12-.56.42-1,1.12-.88,1.08.1,1.39.83,1.83,1.63.24.42,1,.58,1.46.84A9.22,9.22,0,0,1,39.4,10c-.95.52-1.79.11-2.72-.25l-.52,2c-.5-.39-.71,0-.95.26s-.67.56-.65.82c0,.87-.44.82-1,.9-.32,0-.56.49-.88.68a11.44,11.44,0,0,1-1.37.65c-.08,0-.25,0-.28.05-.39.78-1.18.67-1.84.79s-.86.29-.59,1.12a9.21,9.21,0,0,0,3.7-1c.62-.33,1.37-.46,1.78-1.14.07-.12.32-.11.47-.2.3-.15.7-.26.83-.51a1.46,1.46,0,0,1,.81-.63c.62-.28.65-.45.46-1.1a2,2,0,0,1,.14-.91c.26-1,.26-.92,1.32-.87a2.23,2.23,0,0,1,1.93.88,3.53,3.53,0,0,0,.8.57l-1,.64,0,.14c.19,0,.42,0,.55-.11a1.37,1.37,0,0,1,1.18-.18A2,2,0,0,0,43.84,11a2.69,2.69,0,0,0-.22-1.27A1.82,1.82,0,0,1,44.1,7.5a1.68,1.68,0,0,1,2.13-.35,7.74,7.74,0,0,1,3.38,3.27c.34.53.74,1,1.13,1.54a1.19,1.19,0,0,1-1.29-.39c-.35-.37-.67-.77-1-1.15l-.13.09c.14.24.31.46.43.72a3.75,3.75,0,0,1,.14.6c-.23,0-.53.05-.68-.06-.53-.42-1-.9-1.52-1.34-.2-.18-.42-.32-.68-.51-.06.61,1.49,2.18,2.47,2.64-.42.71-.72.78-1.79.46l.79.84a.89.89,0,0,1-1.45.05c-.34-.36-.66-.73-1-1.09l-.16.12,1.23,1.8c-1.27.59-1.58-.69-2.29-1.27.15,1.56,1.3,2.13,3.44,1.75v4.63l-.47-.08c-.21.29-.25.52.11.78a.89.89,0,0,1,.31.61c0,1,0,2.08,0,3.12,0,.43.06.86.09,1.29-.75,0-1-.42-1.44-1.78a9.21,9.21,0,0,0-.32,1.63c0,1.77,0,3.55,0,5.33,0,.4.09,1-.47,1s-.48-.59-.49-1c0-1,0-1.95,0-2.93l-.18-.05a5.05,5.05,0,0,0-.3.82,7.53,7.53,0,0,0,0,.95c0,.9-.3,1.07-1.06.74-.91,1-1.82,2-2.69,3a.82.82,0,0,0,0,.69,5.63,5.63,0,0,0,2.52,2.92L41,38.47l-1.55-4.13-.29.07a2.9,2.9,0,0,0,.07.66c.34,1,.68,2.08,1.08,3.1.2.49.09.74-.36.93-.21.09-.41.22-.68.37-.3-1.17-.6-2.28-.89-3.39a2.38,2.38,0,0,0-.15-.45c0-.07-.19-.16-.23-.14s-.18.17-.17.25A9.34,9.34,0,0,0,38,36.8c.22,1.08.44,2.15.65,3.22,0,.17,0,.35,0,.57H35.84c.29-1.54.58-3,.84-4.51a2,2,0,0,0-.12-.61,2.37,2.37,0,0,0-.36.55c-.28,1-.52,2-.78,3,0,.13-.09.26-.15.45a7,7,0,0,1-1-.56.65.65,0,0,1-.1-.55c.36-1.12.76-2.23,1.12-3.35a1.45,1.45,0,0,0,0-.58c-.13.14-.33.25-.39.42-.45,1.17-.86,2.35-1.33,3.64l-1.86-1.56A5.82,5.82,0,0,0,34.23,34a.72.72,0,0,0-.16-.94c-.84-.87-1.64-1.79-2.48-2.7-.88.24-1.05.11-1.06-.89s0-1.11-.47-1.59a4.16,4.16,0,0,0-.06.55c0,.8,0,1.6,0,2.39,0,.38.08.94-.47.93s-.45-.58-.45-.94c0-1.68,0-3.35,0-5A6.1,6.1,0,0,0,28.61,24c-.17.84-.48,1.5-1.28,1.68,0-1.46,0-2.92.06-4.38a2.71,2.71,0,0,1,.31-.76c.07-.19.11-.4.2-.69l-.6.07V15.21a2.08,2.08,0,0,0,2.33,0,1.94,1.94,0,0,0,1-1.29c-.75.3-1.15,1.36-2.21,1l1.05-1.64-.13-.12c-.14.13-.28.25-.41.39a6,6,0,0,1-.69.74A.78.78,0,0,1,27,14.25L28.88,12l-.21-.18c-.2.22-.39.45-.59.66a6.07,6.07,0,0,1-.83.85c-.43.32-.81.19-1.15-.3,1.12-.51,1.55-1.62,2.33-2.43l-.19-.21a7.48,7.48,0,0,0-.75.62c-.3.32-.53.7-.83,1a.9.9,0,0,1-1.23.13l1.82-2.51-.13-.16a2.85,2.85,0,0,0-.59.42c-.47.57-.88,1.18-1.35,1.76a1.25,1.25,0,0,1-1.41.57c.92-1.31,1.79-2.62,2.73-3.85a4,4,0,0,1,1.28-1,1.69,1.69,0,0,1,2.15.24,2,2,0,0,1,.51,2.44,1.56,1.56,0,0,0,.13,1.84,1.9,1.9,0,0,0,1.93.82,4.26,4.26,0,0,0,1.15-.48C34,12.1,34.39,11.89,34.79,11.67Zm2.41,1.61c-.52.44-1,.89-1.55,1.31a15.84,15.84,0,0,1-7.24,2.94c-.43.07-.53.25-.48.63.12.92.23,1.85.36,2.78.82,5.94,3.92,10.47,8.66,14a.63.63,0,0,0,.61,0,21.63,21.63,0,0,0,7.1-8.56,24.47,24.47,0,0,0,1.8-7.58c.11-1.22.1-1.23-1.1-1.49a16,16,0,0,1-7.94-3.91A.75.75,0,0,0,37.2,13.28Zm3.5,1.11c-.28.64,0,.91.41,1,1.42.48,2.84,1,4.28,1.41.62.19.7,0,.68-.59,0-.46-.33-.48-.64-.56a13.19,13.19,0,0,1-6.29-3.34A1,1,0,0,0,38,12.19c-.31.11-.67.3-.42.67s.28.88.9.43c.18-.14.53,0,.76-.06-.12.31-.35.61-.27.76C39.3,14.67,40,14.56,40.7,14.39Z"/><path d="M25,12.75c0,.19.05.32.05.45,0,2.34,0,4.67,0,7A1.39,1.39,0,0,1,24,21.72q0-3.75,0-7.53C23.93,13.18,23.93,13.18,25,12.75Z"/><path d="M49.44,12.62c1.12.44,1.12.44,1.12,1.47,0,2,0,4.06,0,6.1,0,.47.08.93.12,1.4a1.33,1.33,0,0,1-1.24-1.32C49.44,17.74,49.45,15.21,49.44,12.62Z"/><path d="M49.05,34.34A1.39,1.39,0,0,1,47.82,33c0-2.15,0-4.3,0-6.45.93.1,1.12.3,1.12,1.16,0,1.77,0,3.54,0,5.31A12,12,0,0,0,49.05,34.34Z"/><path d="M23.88,35c0-.42.1-.81.1-1.21,0-1.69,0-3.39,0-5.08,0-1,0-1,1.05-1.33a2.5,2.5,0,0,1,.07.44c0,1.9,0,3.8,0,5.69A1.41,1.41,0,0,1,23.88,35Z"/><path d="M49.48,27.33c1.1.26,1.12.29,1.12,1.25,0,1.41,0,2.82,0,4.24,0,.7.06,1.4.08,2.09a1.37,1.37,0,0,1-1.19-1.32C49.48,31.52,49.49,29.45,49.48,27.33Z"/><path d="M25.61,34.35c0-.77.08-1.56.08-2.35,0-1.39,0-2.79,0-4.18,0-.92,0-1,1-1.22a1.51,1.51,0,0,1,.05.28c0,2,0,4,0,6A1.32,1.32,0,0,1,25.61,34.35Z"/><path d="M28.46,25.81v1c0,1.76,0,3.51,0,5.26,0,.2,0,.4,0,.59,0,.36-.09.77-.54.69-.2,0-.38-.41-.5-.66a1.45,1.45,0,0,1,0-.59c0-1.69,0-3.38,0-5.08C27.39,26.11,27.39,26.11,28.46,25.81Z"/><path d="M46.13,25.83c1,.16,1,.26,1.06,1.16,0,1.68,0,3.35,0,5a2,2,0,0,1-.06.77c-.09.21-.33.36-.51.54a4.43,4.43,0,0,1-.49-.58c-.07-.1,0-.27,0-.41,0-2,0-4.07,0-6.1C46.09,26.1,46.12,26,46.13,25.83Z"/><path d="M25.71,13.43a2.51,2.51,0,0,1,1.07,2.37c-.08,1.21,0,2.43,0,3.64A1.41,1.41,0,0,1,25.56,21C25.87,18.5,25.57,16,25.71,13.43Z"/><path d="M48.88,13.49l0,7.39a1.32,1.32,0,0,1-1.14-1.41c0-1.51-.08-3,0-4.54a4.52,4.52,0,0,1,.76-1.52Z"/><path d="M39.49,6c.06.59-.25.75-.66.79s-.7,0-1.19,0c.49.68,1.14.27,1.6.48-.11.67-.37.71-1.88.4a1.94,1.94,0,0,0,.47.44c.31.14.65.18,1,.29a1,1,0,0,1,.28.23c-.11.1-.2.26-.32.28a2.62,2.62,0,0,1-1.88-1c-.37-.56-.55-1.27-1.2-1.66-.11-.07-.1-.34-.15-.52a1.46,1.46,0,0,1,.53-.1,5.25,5.25,0,0,1,.74.23A3.52,3.52,0,0,0,39.49,6Z"/><path d="M49,26.45a1.42,1.42,0,0,1-1.21-1.27c0-1.35,0-2.71,0-4.06.9.06,1.11.27,1.11,1.09s0,1.83,0,2.74C48.92,25.44,49,25.93,49,26.45Z"/><path d="M49.49,21.83c1.1.3,1.1.3,1.1,1.27,0,.78,0,1.56,0,2.34,0,.45.08.89.12,1.34a1.35,1.35,0,0,1-1.23-1.32c-.05-1,0-2.07,0-3.11C49.46,22.19,49.48,22,49.49,21.83Z"/><path d="M24,26.84c0-1.21,0-2.42,0-3.62,0-1,0-1,1.08-1.37,0,.26,0,.51,0,.75,0,.9,0,1.79,0,2.69A1.41,1.41,0,0,1,24,26.84Z"/><path d="M26.74,21.08c0,1.42,0,2.79,0,4.17a1.34,1.34,0,0,1-1.12,1.23c0-1.34,0-2.7.05-4.07C25.68,21.41,25.67,21.41,26.74,21.08Z"/><path class="cls-1" d="M37.2,13.28a.75.75,0,0,1,.22.13,16,16,0,0,0,7.94,3.91c1.2.26,1.21.27,1.1,1.49a24.47,24.47,0,0,1-1.8,7.58A21.63,21.63,0,0,1,37.56,35a.63.63,0,0,1-.61,0c-4.74-3.51-7.84-8-8.66-14-.13-.93-.24-1.86-.36-2.78-.05-.38.05-.56.48-.63a15.84,15.84,0,0,0,7.24-2.94C36.18,14.17,36.68,13.72,37.2,13.28Zm4.89,3.6,0-.05c-.12,0-.29-.11-.34-.06s-.37.35-.4.55.28.28.44.43a5.66,5.66,0,0,0,.43-.54C42.22,17.14,42.12,17,42.09,16.88Zm-7-1.34.18.89c.51-.17.77-.37.56-.79s-.46-.42-.75-.09Zm9.45,3.91c0-.36,0-.37-.52-.53a26.79,26.79,0,0,1-6.44-2.83.87.87,0,0,0-.74,0A25.14,25.14,0,0,1,30.36,19c-.37.1-.49.28-.44.63.13.83.22,1.66.37,2.48a16,16,0,0,0,6.63,10.49.53.53,0,0,0,.73,0C42.07,29.43,44.15,25,44.59,19.45ZM41.66,30.3c-.07-.11-.18-.38-.27-.38a2.94,2.94,0,0,0-.77.28l.46.38ZM37.23,15.08h.29l.13-.66L37,14.34ZM32.9,30.5a6.26,6.26,0,0,0,.37-.72s-.23-.23-.24-.22a2.73,2.73,0,0,0-.49.53A3.42,3.42,0,0,0,32.9,30.5Zm9.91-3.21-.07.15.44.56.45-.64Zm1.61-1.67h-.91l.66.69ZM34,31.81l.36-1-.76.34Z"/><path class="cls-1" d="M40.7,14.39c-.75.17-1.4.28-1.73-.4-.08-.15.15-.45.27-.76-.23,0-.58-.08-.76.06-.62.45-.74-.19-.9-.43s.11-.56.42-.67a1,1,0,0,1,1.14.17,13.19,13.19,0,0,0,6.29,3.34c.31.08.62.1.64.56,0,.64-.06.78-.68.59-1.44-.43-2.86-.93-4.28-1.41C40.68,15.3,40.42,15,40.7,14.39Z"/><path d="M44.59,19.45c-.44,5.55-2.52,10-6.94,13.17a.53.53,0,0,1-.73,0A16,16,0,0,1,30.29,22.1c-.15-.82-.24-1.65-.37-2.48-.05-.35.07-.53.44-.63a25.14,25.14,0,0,0,6.53-2.9.87.87,0,0,1,.74,0,26.79,26.79,0,0,0,6.44,2.83C44.6,19.08,44.6,19.09,44.59,19.45ZM41.5,19l-1-.07c-.31,0-.62-.14-.94-.16a8.8,8.8,0,0,0-1.54,0c-.76.09-.89.29-.89,1.06,0,2.05,0,4.1,0,6.15,0,.24,0,.47,0,.74h2.9l.84,0c.46,0,.63-.24.62-.73,0-2.13,0-4.26,0-6.39C41.54,19.37,41.52,19.19,41.5,19Zm-4.45,7.75a1,1,0,0,0,.06-.25c0-2.33,0-4.66,0-7a.8.8,0,0,0-.41-.54,2.34,2.34,0,0,0-1-.19c-.76,0-1.5.18-2.26.24-.43,0-.56.21-.55.64q0,3.23,0,6.46c0,.41.1.65.55.65Zm2.6.43a12,12,0,0,1-1.28.16c-.84,0-1.69,0-2.53,0-.2,0-.41-.12-.59-.08s-.38.22-.4.36c-.37,2.54-.08,3.22,2,4.72a2,2,0,0,0,.24.16c.09,0,.23.09.27.06.77-.63,1.52-1.28,2.28-1.92,0,0,0-.12,0-.17C39.66,29.38,39.66,28.33,39.65,27.16Zm.18,3,.27.19c.17-.24.31-.5.5-.72a16.63,16.63,0,0,0,3.74-9.95.7.7,0,0,0-.4-.51c-1.21-.48-2.43-.91-3.64-1.35-.13-.05-.27-.07-.4-.11-.21.79-.11.94.62,1h.83c.43,0,.6.19.6.62q0,3.66,0,7.3c0,.36-.12.51-.48.52a7.43,7.43,0,0,0-1.25.06c-.16,0-.4.23-.4.36C39.8,28.41,39.82,29.29,39.83,30.16Zm-5.35.2.25-.19c0-.85,0-1.71,0-2.56,0-.13-.26-.32-.41-.34a6.49,6.49,0,0,0-1.08,0c-.47,0-.65-.21-.65-.7,0-2.14,0-4.27,0-6.41,0-1.35,0-1.35,1.36-1.47H34c.69-.09.79-.26.54-.91-1.41.49-2.81,1-4.21,1.5a.65.65,0,0,0-.21.53q.11,1.13.3,2.25A15.51,15.51,0,0,0,34,29.66,7.47,7.47,0,0,1,34.48,30.36Zm5.11-12a.88.88,0,0,0-.58-1.2,8.2,8.2,0,0,1-1.34-.78.65.65,0,0,0-.86,0,8.8,8.8,0,0,1-1.38.82.84.84,0,0,0-.53,1.15c.75.14,1.42.28,2.1.39a1.43,1.43,0,0,0,.46,0Z"/><path d="M41.66,30.3l-.58.28-.46-.38a2.94,2.94,0,0,1,.77-.28C41.48,29.92,41.59,30.19,41.66,30.3Z"/><path class="cls-1" d="M37.23,15.08,37,14.34l.63.08-.13.66Z"/><path class="cls-1" d="M32.9,30.5a3.42,3.42,0,0,1-.36-.41,2.73,2.73,0,0,1,.49-.53s.26.18.24.22A6.26,6.26,0,0,1,32.9,30.5Z"/><path d="M35.13,15.55c.29-.33.56-.27.75.09s-.05.62-.56.79c-.06-.32-.12-.6-.18-.89a1.08,1.08,0,0,0,.13.37.9.9,0,0,0,.39.25s.21-.2.19-.24a1.18,1.18,0,0,0-.33-.43C35.43,15.44,35.26,15.53,35.13,15.55Z"/><path d="M42.81,27.29l.82.07-.45.64-.44-.56Z"/><path d="M44.42,25.62l-.25.69-.66-.69Z"/><path class="cls-1" d="M42.05,16.83l0,.05c0,.1.06.22,0,.29a1.73,1.73,0,0,1-.37.44.82.82,0,0,1-.32-.23,1.9,1.9,0,0,1,.34-.54C41.81,16.79,42,16.83,42.05,16.83Z"/><path d="M34,31.81l-.4-.66.76-.34Z"/><path d="M42.05,16.83c-.1,0-.24,0-.29,0a1.9,1.9,0,0,0-.34.54.82.82,0,0,0,.32.23,1.73,1.73,0,0,0,.37-.44c0-.07,0-.19,0-.29,0,.11.13.26.09.33a5.66,5.66,0,0,1-.43.54c-.16-.15-.45-.31-.44-.43s.24-.39.4-.55S41.93,16.81,42.05,16.83Z"/><path class="cls-1" d="M41.5,19c0,.21,0,.39,0,.56,0,2.13,0,4.26,0,6.39,0,.49-.16.7-.62.73l-.84,0h-2.9c0-.27,0-.5,0-.74,0-2.05,0-4.1,0-6.15,0-.77.13-1,.89-1.06a8.8,8.8,0,0,1,1.54,0c.32,0,.63.12.94.16ZM39,21.9l.88-1.35-.06,0-.93,1,.13.37c0,.16,0,.47-.06.48a2.39,2.39,0,0,1-.8,0c-.12,0-.2-.19-.31-.29.4.92,1.06.69,1.59.48l.12-.66Zm-.3,1.89-.45-.47a4.67,4.67,0,0,0-.11.63,4.84,4.84,0,0,0,.09.65Zm2.24-.62-.48-.11a3.45,3.45,0,0,1-.17.78,3.84,3.84,0,0,1-.56.66l.15.12Z"/><path class="cls-1" d="M37.05,26.73H33.4c-.45,0-.55-.24-.55-.65q0-3.24,0-6.46c0-.43.12-.61.55-.64.76-.06,1.5-.2,2.26-.24a2.34,2.34,0,0,1,1,.19.8.8,0,0,1,.41.54c0,2.34,0,4.67,0,7A1,1,0,0,1,37.05,26.73Zm-3.65-5.3c-.18.25-.4.53-.08.77a1.78,1.78,0,0,0,1,.43c.32,0,.57-.26.64-.71a1.9,1.9,0,0,0-.71-1.75l-.82,1.28Zm.65,1.76a6.19,6.19,0,0,1,2,2.54l.47-.38a3.67,3.67,0,0,1-1.32-2.81Z"/><path class="cls-1" d="M39.65,27.16c0,1.17,0,2.22,0,3.28,0,0,0,.14,0,.17-.76.64-1.51,1.29-2.28,1.92,0,0-.18,0-.27-.06a2,2,0,0,1-.24-.16c-2.07-1.5-2.36-2.18-2-4.72,0-.14.25-.32.4-.36s.39.08.59.08c.84,0,1.69,0,2.53,0A12,12,0,0,0,39.65,27.16Z"/><path class="cls-1" d="M39.83,30.16c0-.87,0-1.75,0-2.62,0-.13.24-.34.4-.36a7.43,7.43,0,0,1,1.25-.06c.36,0,.49-.16.48-.52q0-3.64,0-7.3c0-.43-.17-.63-.6-.62h-.83c-.73,0-.83-.18-.62-1,.13,0,.27.06.4.11,1.21.44,2.43.87,3.64,1.35a.7.7,0,0,1,.4.51,16.63,16.63,0,0,1-3.74,10c-.19.22-.33.48-.5.72Z"/><path class="cls-1" d="M34.48,30.36a7.47,7.47,0,0,0-.52-.7A15.51,15.51,0,0,1,30.46,22q-.2-1.12-.3-2.25a.65.65,0,0,1,.21-.53c1.4-.52,2.8-1,4.21-1.5.25.65.15.82-.54.91h-.11c-1.37.12-1.37.12-1.36,1.47,0,2.14,0,4.27,0,6.41,0,.49.18.7.65.7a6.49,6.49,0,0,1,1.08,0c.15,0,.4.21.41.34,0,.85,0,1.71,0,2.56Z"/><path class="cls-1" d="M39.59,18.36l-2.13.34a1.43,1.43,0,0,1-.46,0c-.68-.11-1.35-.25-2.1-.39a.84.84,0,0,1,.53-1.15,8.8,8.8,0,0,0,1.38-.82.65.65,0,0,1,.86,0,8.2,8.2,0,0,0,1.34.78A.88.88,0,0,1,39.59,18.36Z"/><path class="cls-1" d="M35.13,15.55c.13,0,.3-.11.39-.06a1.18,1.18,0,0,1,.33.43s-.15.25-.19.24a.9.9,0,0,1-.39-.25,1.08,1.08,0,0,1-.13-.37Z"/><path d="M39,21.9l.56,0-.12.66c-.53.21-1.19.44-1.59-.48.11.1.19.27.31.29a2.39,2.39,0,0,0,.8,0s0-.32.06-.48Z"/><path d="M38.66,23.79l-.47.81A4.84,4.84,0,0,1,38.1,24a4.67,4.67,0,0,1,.11-.63Z"/><path d="M40.9,23.17l-1.06,1.45-.15-.12a3.84,3.84,0,0,0,.56-.66,3.45,3.45,0,0,0,.17-.78Z"/><path d="M39,21.89l-.13-.37.93-1,.06,0c-.3.45-.59.9-.88,1.35Z"/><path d="M34.05,23.19l1.18-.65a3.67,3.67,0,0,0,1.32,2.81l-.47.38A6.19,6.19,0,0,0,34.05,23.19Z"/><path d="M33.38,21.45l.82-1.28a1.9,1.9,0,0,1,.71,1.75c-.07.45-.32.71-.64.71a1.78,1.78,0,0,1-1-.43c-.32-.24-.1-.52.08-.77a2.06,2.06,0,0,0,.22.81.84.84,0,0,0,.67.28.54.54,0,0,0,.43-.76A4.59,4.59,0,0,0,34.3,21Z"/><path class="cls-1" d="M33.38,21.45,34.3,21a4.59,4.59,0,0,1,.42.77.54.54,0,0,1-.43.76.84.84,0,0,1-.67-.28,2.06,2.06,0,0,1-.22-.81Z"/></g></g></svg>