<svg xmlns="http://www.w3.org/2000/svg" viewBox="0 0 213.32 215.98"><defs><style>.cls-1{fill:#fff;}</style></defs><title>logoUCOL.svg</title><g id="Capa_2" data-name="Capa 2"><g id="Capa_1-2" data-name="Capa 1"><path class="cls-1" d="M108.92,0h104.4V216H0V0H103.4c-.42.1-.83.22-1.26.29-3,.43-6,.63-8.85,1.32a56.58,56.58,0,0,0,8.93,111.54,55.13,55.13,0,0,0,21.72-2.71,56.69,56.69,0,0,0,37.49-66.06C156.32,21.13,136.4,3.11,112.8.52,111.51.37,110.22.17,108.92,0Zm-20,149.84c.71.37,1.12.6,1.54.81,4.59,2.34,9.11,4.83,13.79,7,5.36,2.47,10.83,4.71,17,4.08,3.21-.32,6.26-.92,8.58-3.38a8.37,8.37,0,0,0,.89-1.64,31,31,0,0,1-4.36,2.52A18.56,18.56,0,0,1,113,159c-5.34-2.08-10.42-4.81-15.61-7.28-.16-.07-.28-.25-.59-.54,3.52-.44,6.44-1.67,8.35-4.57a10.78,10.78,0,0,0,1.32-9.4,10.1,10.1,0,0,0-5.14-6.07c-4.15-2.2-8.23-1.56-12.24.77l-.27-1.52H87.34c-1.64,0-1.64,0-1.64,1.59q0,11.16,0,22.32c0,2.4-.34,2,2.11,2.1.92,0,1.16-.29,1.13-1.17C88.88,153.53,88.92,151.82,88.92,149.84Zm28.71,53.23c1.07-.11,2.15-.16,3.2-.36a13.28,13.28,0,0,0,10.69-15.56c-1-6.35-7.3-12.49-16.5-11.06-8.37,1.29-13.25,9.27-11,17.42A13.52,13.52,0,0,0,117.63,203.07Zm-98.87-13.6c0,4,0,7.92,0,11.87,0,.91.27,1.17,1.16,1.15,1.84,0,3.68,0,5.51.12a17.48,17.48,0,0,0,7.86-1.12c8.64-3.41,11.28-14.55,5-21.1a13.36,13.36,0,0,0-9.77-4.12c-2.84-.06-5.67.17-8.51.18-1,0-1.31.24-1.29,1.26C18.79,181.63,18.76,185.55,18.76,189.47ZM188.68,143.4c0,3.92,0,7.84,0,11.76,0,1,.32,1.28,1.29,1.25a51.63,51.63,0,0,1,5.28.11,17.52,17.52,0,0,0,7.86-1.08c8.66-3.34,11.4-14.45,5.22-21.05a13.37,13.37,0,0,0-9.87-4.2c-2.87-.06-5.75.17-8.62.19-.89,0-1.17.24-1.16,1.15C188.71,135.49,188.68,139.44,188.68,143.4ZM142.2,156.33l1.24.06c1.79,0,3.6,0,5.39.14A15.91,15.91,0,0,0,159.2,154c4.91-3.4,6.7-8.18,5.51-13.9-1.1-5.31-4.71-8.37-9.91-9.55-4.12-.93-8.28,0-12.42-.09,0,0-.12.1-.18.16ZM15.14,127.83v1.53c0,6.64,0,13.28,0,19.92,0,4.11-2,5.94-5.61,5.36-2.17-.35-3.36-1.87-3.37-4.38q0-10.08,0-20.16c0-2.36,0-2.31-2.34-2.36-1,0-1.24.32-1.23,1.24,0,3.64,0,7.28,0,10.92s0,7.43.09,11.15a5.75,5.75,0,0,0,4.86,5.73,12.75,12.75,0,0,0,4.18,0,6,6,0,0,0,5.3-4.53,11.33,11.33,0,0,0,.35-2.72c0-6.8,0-13.6,0-20.4v-1.34Zm151.69,67,6.35-16.57a3.75,3.75,0,0,1,.27.67q0,9.24,0,18.47c0,1.44-.09,2.88-.1,4.31a.92.92,0,0,0,.29.7,1.59,1.59,0,0,0,2.43-1.44V179.25c0-2.79,0-2.75-2.74-2.79a1.37,1.37,0,0,0-1.55,1.07c-1.22,3.34-2.49,6.65-3.76,10-.16.42-.37.83-.66,1.48-.27-.71-.47-1.14-.61-1.58-.88-2.73-1.75-5.47-2.64-8.2s-.9-2.71-3.76-2.74c-1,0-1.29.29-1.29,1.28,0,7.84,0,15.68,0,23.52,0,1.3.12,1.37,1.72,1V178.76l.35,0ZM99.45,198a11.12,11.12,0,0,1-7.9,3.25c-3.65.12-6.89-.76-9.44-3.49-3.82-4.07-5-9-4.37-14.39A9.43,9.43,0,0,1,84.32,175a13.14,13.14,0,0,1,8.92.11c2.54.95,4.59,2.45,5,5.42,0,.21.4.37.61.56.15-.24.43-.47.44-.72,0-1.12,0-2.24,0-3.35a1.86,1.86,0,0,0-1.18-2,17.5,17.5,0,0,0-11.41-2.2A14.48,14.48,0,0,0,75.06,182a14.78,14.78,0,0,0,1.74,15c3.52,4.78,8.51,6.34,14.25,6a15.3,15.3,0,0,0,9.4-3.84Zm-78-67.48v25.86l1.52-.07V137.26l.31-.1c.24.39.49.76.72,1.16,3.36,5.8,6.73,11.6,10.06,17.43.44.78,1,1.25,1.78.88.34-.16.49-1,.5-1.49,0-7.75,0-15.51,0-23.26v-1.32c-1.35-.43-1.66.06-1.65,1.17,0,5.52,0,11,0,16.55,0,.45-.06.9-.1,1.35a3.89,3.89,0,0,1-1.14-1.33c-3.28-5.62-6.58-11.23-9.82-16.88A1.62,1.62,0,0,0,21.48,130.53Zm96.19,18.54a3.15,3.15,0,0,0,.62.37,3.11,3.11,0,0,0,3.41-1.15,3.32,3.32,0,0,0-.47-3.79c-1.82-2-4.15-2.3-6.6-1.69a5.73,5.73,0,0,0-4.34,4.79,6.93,6.93,0,0,0,2.28,6.93c4.05,3.51,11.36,3.2,15.18-.57,2.5-2.47,3.75-7.94-.18-11.2a51,51,0,0,0-4.6-3.21c-1.4-.92-2.91-1.68-4.26-2.67a3.18,3.18,0,0,1-1.25-3.9,3.7,3.7,0,0,1,3.91-1.68c1.88.35,2.49,1.09,3,3.5.05.25.3.46.46.68.14-.24.4-.48.41-.73a29.52,29.52,0,0,0,0-3.12,1.12,1.12,0,0,0-.5-.79,12.76,12.76,0,0,0-1.9-.71,5.68,5.68,0,0,0-6.58,2.14,5.12,5.12,0,0,0,.65,6.59,35,35,0,0,0,4.87,3.63c1.27.89,2.69,1.59,3.92,2.53a5.38,5.38,0,0,1-.18,8.65,9.71,9.71,0,0,1-11.84-.83,5.77,5.77,0,0,1-1.62-5.4c.46-2.57,3.12-3.94,6.12-3.25.9.21,1.69.61,1.86,1.63a2.49,2.49,0,0,1-1.21,2.67C118.52,148.67,118.2,148.8,117.67,149.07ZM72.8,138.55c-.1-.19-.16-.26-.16-.33,0-1.32-.07-2.64,0-3.95.06-2.92-.58-2.62,2.61-2.54,2.94.09,4.69.79,4.89,3.58,0,.23.33.44.51.66.16-.28.44-.54.45-.82,0-1.24,0-2.48,0-3.72,0-.76-.24-1.05-1-1.05q-4.86.06-9.72,0c-.8,0-1,.3-1,1.05q0,12,0,24c0,.7.22,1,1,1,3.28,0,6.55,0,9.83,0,.74,0,1-.26,1-1,0-1.24,0-2.48,0-3.72a4.07,4.07,0,0,0-.4-1.12c-.23.36-.62.69-.66,1.07a3.24,3.24,0,0,1-2.69,3.1,34.14,34.14,0,0,1-3.93.33c-.64,0-.8-.32-.8-.89,0-4.32,0-8.64,0-12.95,0-.69.28-.92.92-.91,1.11,0,2.21,0,3.34,0v-1.8Zm-23.49,46.1v-5.36a2.09,2.09,0,0,1,0-.71c.12-.28.38-.75.54-.73a32.06,32.06,0,0,1,5.28.69c1.32.34,1.45,1.76,1.69,2.94,0,.21.31.38.47.57.16-.23.46-.45.47-.68,0-1.24,0-2.48,0-3.72.06-1-.35-1.2-1.26-1.19q-4.62.07-9.24,0c-1,0-1.31.27-1.3,1.27,0,4,0,8.08,0,12.11v11.51c0,.57-.06,1.14.82,1.13,3.4,0,6.79,0,10.19,0,.24,0,.68-.28.68-.45.06-1.63.05-3.27,0-4.91,0-.14-.28-.35-.46-.4s-.35.18-.41.33a4.15,4.15,0,0,0-.19.93,3.18,3.18,0,0,1-2.75,2.92,20.93,20.93,0,0,1-3.8.26,1.18,1.18,0,0,1-.79-.83c-.05-4.32,0-8.64,0-13,0-.67.24-.94.9-.93,1.11,0,2.21,0,3.37,0v-1.78Zm16.34-54.11c-1.84-.28-1.85-.29-2.31,1.27q-2.28,7.8-4.57,15.59c-.41,1.38-.85,2.74-1.27,4.11a2.9,2.9,0,0,1-.71-1.33c-1.77-6.24-3.52-12.5-5.31-18.74-.11-.38-.46-.94-.76-1a21.21,21.21,0,0,0-2.89,0c.13.54.2.89.3,1.23q3.66,12.06,7.31,24.13c.21.71.42,1.15,1.32,1.17s1.21-.51,1.42-1.24c1.18-4,2.38-8,3.57-12C63.05,139.33,64.33,135,65.65,130.54Zm130.52,71.93c-.14-.54-.23-.92-.34-1.29l-5.25-17.53c-.69-2.29-1.36-4.59-2.09-6.87-.11-.33-.58-.82-.8-.78s-.66.48-.95.8a1.34,1.34,0,0,0-.2.55q-3.33,10.74-6.65,21.48c-.36,1.16-.69,2.33-1,3.49,1.2.42,1.71,0,2-1,.72-2.62,1.53-5.2,2.34-7.79.38-1.21.5-2.85,1.34-3.45s2.46-.18,3.73-.25c.81-.05,1.19.23,1.41,1.06.91,3.56,1.88,7.09,2.88,10.62.1.38.48.92.79,1A20,20,0,0,0,196.17,202.47Zm-11-46.26L182.06,146c-1.51-5-3-10.08-4.53-15.13-.21-.7-.46-1.27-1.28-.95-.28.11-.48.59-.59.94q-2.64,8.38-5.22,16.79c-.89,2.84-1.76,5.69-2.65,8.59,1.1.33,1.7.14,2-1,1-3.49,2.08-6.95,3.09-10.44.24-.82.61-1.2,1.5-1.13a19.56,19.56,0,0,0,2.76,0,1.24,1.24,0,0,1,1.49,1.12c.74,3,1.58,5.93,2.38,8.89s.77,2.9,3.83,2.65C184.9,156.35,184.93,156.32,185.13,156.21Zm-49.51,33.14q0,6,0,12c0,.64,0,1.16.91,1.15,3-.05,6.07,0,9.1,0,.67,0,.93-.21.91-.89,0-1.44,0-2.88,0-4.32,0-.29-.33-.57-.51-.86-.17.3-.46.57-.5.88-.32,2.3-1,3.05-3.26,3.47a13.42,13.42,0,0,1-1.78.18c-1.6.05-1.6,0-1.6-1.51,0-7,0-14,0-21,0-2.24.33-1.91-2-2-1,0-1.3.27-1.28,1.27C135.65,181.6,135.62,185.48,135.62,189.35ZM44.37,143.52c0-3.92,0-7.83,0-11.75,0-1.11-.34-1.55-1.43-1.38a1.29,1.29,0,0,1-.48,0c-1.08-.16-1.42.23-1.42,1.37.06,7.55,0,15.11,0,22.66,0,2.25-.33,1.88,2,2,1.12.05,1.34-.39,1.32-1.38C44.34,151.2,44.37,147.36,44.37,143.52Zm110.16,46V188.4c0-3.48-.06-7,0-10.44,0-1.24-.38-1.68-1.57-1.49a1.29,1.29,0,0,1-.48,0c-1-.15-1.29.24-1.28,1.25,0,7.6,0,15.19,0,22.79,0,2.24-.33,1.87,2,2,1.12.05,1.33-.4,1.31-1.39C154.5,197.23,154.53,193.35,154.53,189.48Zm-20.32-46.19q0,5.94,0,11.88c0,.37.1,1.07.21,1.08a10.77,10.77,0,0,0,2.72,0c.18,0,.32-.9.32-1.38q0-11.2,0-22.42c0-2.41.18-2-2-2.09-1,0-1.27.29-1.26,1.28C134.24,135.54,134.21,139.42,134.21,143.29Z"/><path class="cls-1" d="M108.92,0c1.3.17,2.59.37,3.88.52,23.6,2.59,43.52,20.61,48.63,43.86a56.69,56.69,0,0,1-37.49,66.06,55.13,55.13,0,0,1-21.72,2.71A56.58,56.58,0,0,1,93.29,1.61c2.89-.69,5.9-.89,8.85-1.32.43-.07.84-.19,1.26-.29ZM51.71,56.68c-.18,29.46,23.84,53.9,53.27,54.53A54.53,54.53,0,1,0,51.71,56.68Z"/><path class="cls-1" d="M88.92,149.84c0,2,0,3.69,0,5.4,0,.88-.21,1.2-1.13,1.17-2.45-.09-2.1.3-2.11-2.1q0-11.16,0-22.32c0-1.59,0-1.59,1.64-1.59H88.8l.27,1.52c4-2.33,8.09-3,12.24-.77a10.1,10.1,0,0,1,5.14,6.07,10.78,10.78,0,0,1-1.32,9.4c-1.91,2.9-4.83,4.13-8.35,4.57.31.29.43.47.59.54,5.19,2.47,10.27,5.2,15.61,7.28a18.56,18.56,0,0,0,13.37.19,31,31,0,0,0,4.36-2.52,8.37,8.37,0,0,1-.89,1.64c-2.32,2.46-5.37,3.06-8.58,3.38-6.16.63-11.63-1.61-17-4.08-4.68-2.14-9.2-4.63-13.79-7C90,150.44,89.63,150.21,88.92,149.84Zm.92-2.55A44.7,44.7,0,0,0,94,149.16a7.35,7.35,0,0,0,9.67-5.44,10.44,10.44,0,0,0-4.84-11.11,8,8,0,0,0-9.09.57,1.92,1.92,0,0,0-.77,1.23c0,4.39,0,8.78,0,13.18,0,.13.11.25.27.58Z"/><path class="cls-1" d="M117.63,203.07a13.52,13.52,0,0,1-13.58-9.56c-2.28-8.15,2.6-16.13,11-17.42,9.2-1.43,15.5,4.71,16.5,11.06a13.28,13.28,0,0,1-10.69,15.56C119.78,202.91,118.7,203,117.63,203.07ZM116,178c-4.62,0-8.23,2.81-9,7.19a12.83,12.83,0,0,0,3.82,12,10.91,10.91,0,0,0,11.73,2.6c4.43-1.45,6.46-5.2,5.9-10.48C127.8,183.25,122,178,116,178Z"/><path class="cls-1" d="M18.76,189.47c0-3.92,0-7.84,0-11.76,0-1,.32-1.25,1.29-1.26,2.84,0,5.67-.24,8.51-.18a13.36,13.36,0,0,1,9.77,4.12c6.24,6.55,3.6,17.69-5,21.1a17.48,17.48,0,0,1-7.86,1.12c-1.83-.15-3.67-.15-5.51-.12-.89,0-1.17-.24-1.16-1.15C18.79,197.39,18.76,193.43,18.76,189.47Zm3,0c0,3.16,0,6.31,0,9.47,0,.93.29,1.41,1.21,1.55,1.18.18,2.34.49,3.52.58a10.93,10.93,0,0,0,8.15-2.4c4.88-4,5-12.27,1.28-16.68-3.55-4.2-8-4.61-12.95-3.3a1.35,1.35,0,0,0-1.21,1.56C21.78,183.32,21.75,186.4,21.75,189.47Z"/><path class="cls-1" d="M188.68,143.4c0-4,0-7.91,0-11.87,0-.91.27-1.15,1.16-1.15,2.87,0,5.75-.25,8.62-.19a13.37,13.37,0,0,1,9.87,4.2c6.18,6.6,3.44,17.71-5.22,21.05a17.52,17.52,0,0,1-7.86,1.08,51.63,51.63,0,0,0-5.28-.11c-1,0-1.31-.23-1.29-1.25C188.72,151.24,188.68,147.32,188.68,143.4Zm3,0c0,3.16,0,6.31,0,9.47,0,.93.29,1.41,1.21,1.55,1.18.18,2.34.49,3.52.58a10.93,10.93,0,0,0,8.15-2.4c4.88-4,5-12.27,1.28-16.68-3.55-4.2-8-4.61-12.95-3.3a1.35,1.35,0,0,0-1.21,1.56C191.7,137.24,191.67,140.32,191.67,143.39Z"/><path class="cls-1" d="M142.2,156.33v-25.7c.06-.06.13-.16.18-.16,4.14.09,8.3-.84,12.42.09,5.2,1.18,8.81,4.24,9.91,9.55,1.19,5.72-.6,10.5-5.51,13.9a15.91,15.91,0,0,1-10.37,2.52c-1.79-.12-3.6-.1-5.39-.14Zm2.91-12.94c0,3.16,0,6.31,0,9.47,0,.93.29,1.41,1.21,1.55,1.18.18,2.34.49,3.52.58a10.93,10.93,0,0,0,8.15-2.4c4.88-4,5-12.27,1.28-16.68-3.55-4.2-8-4.61-12.95-3.3a1.35,1.35,0,0,0-1.21,1.56C145.14,137.24,145.11,140.32,145.11,143.39Z"/><path class="cls-1" d="M15.14,127.83h2.25v1.34c0,6.8,0,13.6,0,20.4a11.33,11.33,0,0,1-.35,2.72,6,6,0,0,1-5.3,4.53,12.75,12.75,0,0,1-4.18,0,5.75,5.75,0,0,1-4.86-5.73c-.12-3.72-.08-7.44-.09-11.15s0-7.28,0-10.92c0-.92.26-1.26,1.23-1.24,2.34.05,2.34,0,2.34,2.36q0,10.08,0,20.16c0,2.51,1.2,4,3.37,4.38,3.64.58,5.59-1.25,5.61-5.36,0-6.64,0-13.28,0-19.92Z"/><path class="cls-1" d="M166.83,194.82l-5.68-16.1-.35,0v23.48c-1.6.39-1.72.32-1.72-1,0-7.84,0-15.68,0-23.52,0-1,.29-1.3,1.29-1.28,2.86,0,2.87,0,3.76,2.74s1.76,5.47,2.64,8.2c.14.44.34.87.61,1.58.29-.65.5-1.06.66-1.48,1.27-3.32,2.54-6.63,3.76-10a1.37,1.37,0,0,1,1.55-1.07c2.74,0,2.74,0,2.74,2.79V201a1.59,1.59,0,0,1-2.43,1.44.92.92,0,0,1-.29-.7c0-1.43.09-2.87.1-4.31q0-9.22,0-18.47a3.75,3.75,0,0,0-.27-.67Z"/><path class="cls-1" d="M99.45,198l1,1.18a15.3,15.3,0,0,1-9.4,3.84c-5.74.34-10.73-1.22-14.25-6a14.78,14.78,0,0,1-1.74-15,14.48,14.48,0,0,1,11.7-9.17,17.5,17.5,0,0,1,11.41,2.2,1.86,1.86,0,0,1,1.18,2c-.09,1.11,0,2.23,0,3.35,0,.25-.29.48-.44.72-.21-.19-.58-.35-.61-.56-.42-3-2.47-4.47-5-5.42a13.14,13.14,0,0,0-8.92-.11,9.43,9.43,0,0,0-6.58,8.37c-.67,5.39.55,10.32,4.37,14.39,2.55,2.73,5.79,3.61,9.44,3.49A11.12,11.12,0,0,0,99.45,198Z"/><path class="cls-1" d="M21.48,130.53a1.62,1.62,0,0,1,2.21.89c3.24,5.65,6.54,11.26,9.82,16.88a3.89,3.89,0,0,0,1.14,1.33c0-.45.1-.9.1-1.35,0-5.52,0-11,0-16.55,0-1.11.3-1.6,1.65-1.17v1.32c0,7.75,0,15.51,0,23.26,0,.52-.16,1.33-.5,1.49-.77.37-1.34-.1-1.78-.88-3.33-5.83-6.7-11.63-10.06-17.43-.23-.4-.48-.77-.72-1.16l-.31.1v19.06l-1.52.07Z"/><path class="cls-1" d="M117.67,149.07c.53-.27.85-.4,1.14-.58a2.49,2.49,0,0,0,1.21-2.67c-.17-1-1-1.42-1.86-1.63-3-.69-5.66.68-6.12,3.25a5.77,5.77,0,0,0,1.62,5.4,9.71,9.71,0,0,0,11.84.83,5.38,5.38,0,0,0,.18-8.65c-1.23-.94-2.65-1.64-3.92-2.53a35,35,0,0,1-4.87-3.63,5.12,5.12,0,0,1-.65-6.59,5.68,5.68,0,0,1,6.58-2.14,12.76,12.76,0,0,1,1.9.71,1.12,1.12,0,0,1,.5.79,29.52,29.52,0,0,1,0,3.12c0,.25-.27.49-.41.73-.16-.22-.41-.43-.46-.68-.49-2.41-1.1-3.15-3-3.5a3.7,3.7,0,0,0-3.91,1.68,3.18,3.18,0,0,0,1.25,3.9c1.35,1,2.86,1.75,4.26,2.67a51,51,0,0,1,4.6,3.21c3.93,3.26,2.68,8.73.18,11.2-3.82,3.77-11.13,4.08-15.18.57a6.93,6.93,0,0,1-2.28-6.93,5.73,5.73,0,0,1,4.34-4.79c2.45-.61,4.78-.31,6.6,1.69a3.32,3.32,0,0,1,.47,3.79,3.11,3.11,0,0,1-3.41,1.15A3.15,3.15,0,0,1,117.67,149.07Z"/><path class="cls-1" d="M72.8,138.55h4v1.8c-1.13,0-2.23,0-3.34,0-.64,0-.93.22-.92.91,0,4.31,0,8.63,0,12.95,0,.57.16.93.8.89a34.14,34.14,0,0,0,3.93-.33,3.24,3.24,0,0,0,2.69-3.1c0-.38.43-.71.66-1.07a4.07,4.07,0,0,1,.4,1.12c.05,1.24,0,2.48,0,3.72,0,.71-.24,1-1,1-3.28,0-6.55,0-9.83,0-.75,0-1-.29-1-1q0-12,0-24c0-.75.23-1.06,1-1.05q4.86.06,9.72,0c.79,0,1.06.29,1,1.05,0,1.24,0,2.48,0,3.72,0,.28-.29.54-.45.82-.18-.22-.49-.43-.51-.66-.2-2.79-1.95-3.49-4.89-3.58-3.19-.08-2.55-.38-2.61,2.54,0,1.31,0,2.63,0,3.95C72.64,138.29,72.7,138.36,72.8,138.55Z"/><path class="cls-1" d="M49.31,184.65h4.27v1.78c-1.16,0-2.26,0-3.37,0-.66,0-.91.26-.9.93,0,4.31,0,8.63,0,13a1.18,1.18,0,0,0,.79.83,20.93,20.93,0,0,0,3.8-.26A3.18,3.18,0,0,0,56.69,198a4.15,4.15,0,0,1,.19-.93c.06-.15.31-.36.41-.33s.46.26.46.4c0,1.64,0,3.28,0,4.91,0,.17-.44.45-.68.45-3.4,0-6.79,0-10.19,0-.88,0-.82-.56-.82-1.13V189.84c0-4,0-8.07,0-12.11,0-1,.32-1.29,1.3-1.27q4.62.07,9.24,0c.91,0,1.32.21,1.26,1.19-.07,1.24,0,2.48,0,3.72,0,.23-.31.45-.47.68-.16-.19-.43-.36-.47-.57-.24-1.18-.37-2.6-1.69-2.94a32.06,32.06,0,0,0-5.28-.69c-.16,0-.42.45-.54.73a2.09,2.09,0,0,0,0,.71Z"/><path class="cls-1" d="M65.65,130.54c-1.32,4.44-2.6,8.79-3.9,13.14-1.19,4-2.39,8-3.57,12-.21.73-.42,1.27-1.42,1.24s-1.11-.46-1.32-1.17q-3.63-12.08-7.31-24.13c-.1-.34-.17-.69-.3-1.23a21.21,21.21,0,0,1,2.89,0c.3.05.65.61.76,1,1.79,6.24,3.54,12.5,5.31,18.74a2.9,2.9,0,0,0,.71,1.33c.42-1.37.86-2.73,1.27-4.11q2.29-7.78,4.57-15.59C63.8,130.25,63.81,130.26,65.65,130.54Z"/><path class="cls-1" d="M196.17,202.47a20,20,0,0,1-2.82-.05c-.31,0-.69-.58-.79-1-1-3.53-2-7.06-2.88-10.62-.22-.83-.6-1.11-1.41-1.06-1.27.07-2.87-.37-3.73.25s-1,2.24-1.34,3.45c-.81,2.59-1.62,5.17-2.34,7.79-.3,1.07-.81,1.47-2,1,.35-1.16.68-2.33,1-3.49q3.31-10.74,6.65-21.48a1.34,1.34,0,0,1,.2-.55c.29-.32.6-.75.95-.8s.69.45.8.78c.73,2.28,1.4,4.58,2.09,6.87l5.25,17.53C195.94,201.55,196,201.93,196.17,202.47ZM187,180.81h-.38l-1.84,6.4h3.88C188.12,185,187.58,182.9,187,180.81Z"/><path class="cls-1" d="M185.13,156.21c-.2.11-.23.14-.27.14-3.06.25-3.05.25-3.83-2.65s-1.64-5.91-2.38-8.89a1.24,1.24,0,0,0-1.49-1.12,19.56,19.56,0,0,1-2.76,0c-.89-.07-1.26.31-1.5,1.13-1,3.49-2.11,7-3.09,10.44-.32,1.13-.92,1.32-2,1,.89-2.9,1.76-5.75,2.65-8.59q2.59-8.4,5.22-16.79c.11-.35.31-.83.59-.94.82-.32,1.07.25,1.28.95,1.49,5.05,3,10.09,4.53,15.13ZM176,134.7l-.38.05c-.6,2.08-1.19,4.16-1.82,6.35h3.88C177.07,138.88,176.53,136.79,176,134.7Z"/><path class="cls-1" d="M135.62,189.35c0-3.87,0-7.75,0-11.62,0-1,.28-1.31,1.28-1.27,2.29.09,2-.24,2,2,0,7,0,14,0,21,0,1.55,0,1.56,1.6,1.51a13.42,13.42,0,0,0,1.78-.18c2.27-.42,2.94-1.17,3.26-3.47,0-.31.33-.58.5-.88.18.29.5.57.51.86.05,1.44,0,2.88,0,4.32,0,.68-.24.9-.91.89-3,0-6.07,0-9.1,0-.93,0-.91-.51-.91-1.15Q135.63,195.34,135.62,189.35Z"/><path class="cls-1" d="M44.37,143.52c0,3.84,0,7.68,0,11.52,0,1-.2,1.43-1.32,1.38-2.29-.12-2,.25-2-2,0-7.55,0-15.11,0-22.66,0-1.14.34-1.53,1.42-1.37a1.29,1.29,0,0,0,.48,0c1.09-.17,1.45.27,1.43,1.38C44.33,135.69,44.37,139.6,44.37,143.52Z"/><path class="cls-1" d="M154.53,189.48c0,3.87,0,7.75,0,11.63,0,1-.19,1.44-1.31,1.39-2.3-.12-2,.25-2-2,0-7.6,0-15.19,0-22.79,0-1,.3-1.4,1.28-1.25a1.29,1.29,0,0,0,.48,0c1.19-.19,1.6.25,1.57,1.49-.09,3.48,0,7,0,10.44Z"/><path class="cls-1" d="M134.21,143.29c0-3.87,0-7.75,0-11.63,0-1,.25-1.33,1.26-1.28,2.21.1,2-.32,2,2.09q0,11.21,0,22.42c0,.48-.14,1.35-.32,1.38a10.77,10.77,0,0,1-2.72,0c-.11,0-.21-.71-.21-1.08Q134.21,149.23,134.21,143.29Z"/><path class="cls-1" d="M51.71,56.68A54.51,54.51,0,1,1,105,111.21C75.55,110.58,51.53,86.14,51.71,56.68Zm105.94.06c.24-28-23-51-50.59-51.27A51.55,51.55,0,0,0,55.17,55.71c-.53,28.86,23,51.83,50.33,52.29C134.22,108.49,157.92,84.89,157.65,56.74Z"/><path class="cls-1" d="M89.84,147.29l-.62.88c-.16-.33-.27-.45-.27-.58,0-4.4,0-8.79,0-13.18a1.92,1.92,0,0,1,.77-1.23,8,8,0,0,1,9.09-.57,10.44,10.44,0,0,1,4.84,11.11A7.35,7.35,0,0,1,94,149.16,44.7,44.7,0,0,1,89.84,147.29Z"/><path class="cls-1" d="M116,178c6.05,0,11.81,5.25,12.45,11.33.56,5.28-1.47,9-5.9,10.48a10.91,10.91,0,0,1-11.73-2.6,12.83,12.83,0,0,1-3.82-12C107.76,180.81,111.37,178,116,178Z"/><path class="cls-1" d="M21.75,189.47c0-3.07,0-6.15,0-9.22a1.35,1.35,0,0,1,1.21-1.56c4.94-1.31,9.4-.9,13,3.3,3.73,4.41,3.6,12.66-1.28,16.68a10.93,10.93,0,0,1-8.15,2.4c-1.18-.09-2.34-.4-3.52-.58-.92-.14-1.23-.62-1.21-1.55C21.78,195.78,21.75,192.63,21.75,189.47Z"/><path class="cls-1" d="M191.67,143.39c0-3.07,0-6.15,0-9.22a1.35,1.35,0,0,1,1.21-1.56c4.94-1.31,9.4-.9,12.95,3.3,3.73,4.41,3.6,12.66-1.28,16.68a10.93,10.93,0,0,1-8.15,2.4c-1.18-.09-2.34-.4-3.52-.58-.92-.14-1.23-.62-1.21-1.55C191.7,149.7,191.67,146.55,191.67,143.39Z"/><path class="cls-1" d="M145.11,143.39c0-3.07,0-6.15,0-9.22a1.35,1.35,0,0,1,1.21-1.56c4.94-1.31,9.4-.9,12.95,3.3,3.73,4.41,3.6,12.66-1.28,16.68a10.93,10.93,0,0,1-8.15,2.4c-1.18-.09-2.34-.4-3.52-.58-.92-.14-1.23-.62-1.21-1.55C145.14,149.7,145.11,146.55,145.11,143.39Z"/><path class="cls-1" d="M187,180.81c.55,2.09,1.09,4.18,1.66,6.39h-3.88l1.84-6.4Z"/><path class="cls-1" d="M176,134.7c.55,2.09,1.09,4.18,1.68,6.4h-3.88c.63-2.19,1.22-4.27,1.82-6.35Z"/><path class="cls-1" d="M157.65,56.74c.27,28.15-23.43,51.75-52.15,51.26-27.36-.46-50.86-23.43-50.33-52.29A51.55,51.55,0,0,1,107.06,5.47C134.7,5.77,157.89,28.73,157.65,56.74ZM106.43,7.59a49.17,49.17,0,1,0,49.14,49.09A49.3,49.3,0,0,0,106.43,7.59Z"/><path class="cls-1" d="M106.43,7.59A49.17,49.17,0,1,1,57.24,56.68,49.21,49.21,0,0,1,106.43,7.59ZM77.74,31.37c.5.44.83,1,1.21,1a3.62,3.62,0,0,0,2.22-.3,16.41,16.41,0,0,0,2.25-2.44c.4-.44.84-.83,1.27-1.24l.3.33c-1.68,1.82-2.37,4.51-5.12,5.57a3.78,3.78,0,0,0,1.62.92c1.4.27,2.33-.53,3.13-1.56.46-.59,1-1.13,1.46-1.7l.37.3-2.82,4.29c2.73.78,3.83-1.63,5.67-2.67a4.21,4.21,0,0,1-1.9,2.91,4.74,4.74,0,0,1-6.24.11c0,3,0,5.7,0,8.46,0,1.2-.27,2.4-.42,3.61l1.87-.35c-.29.79-.33,1.55-.71,1.78a1.51,1.51,0,0,0-.73,1.47c-.18,3.87.48,7.77-.48,11.68,2.39-.47,3.34-2.1,3.72-4.35a16.93,16.93,0,0,1,1,4.5c.11,4.31,0,8.63,0,13a3.27,3.27,0,0,0,.16,1.41c.2.41.67,1,1,1s.86-.53,1-.94a4.71,4.71,0,0,0,.27-1.76c0-2.08,0-4.16,0-6.24A10,10,0,0,1,88.07,69c1.33,1.35,1,2.88,1,4.33.05,2.22.91,2.82,2.69,1.93,2.29,2.51,4.55,5,6.78,7.48a1.09,1.09,0,0,1,.2.93c-1.23,3.15-2.94,5.95-6,7.68a8.11,8.11,0,0,0-.69.48l4.71,4c.15-.3.27-.5.35-.71L100,87.23a8.57,8.57,0,0,1,.53-1.33c.11-.2.41-.3.62-.44a2.55,2.55,0,0,1,.34.81,2.86,2.86,0,0,1-.29.9c-1,2.79-1.94,5.58-2.87,8.38-.11.34-.12,1,.08,1.14a30.6,30.6,0,0,0,2.77,1.63,6.25,6.25,0,0,0,.23-.63c.73-2.81,1.43-5.64,2.2-8.44a4.24,4.24,0,0,1,.82-1.16,3.79,3.79,0,0,1,.27,1.32c-.5,2.78-1.06,5.56-1.6,8.33-.21,1.11-.4,2.22-.61,3.37h7.31c-.05-.37-.07-.64-.12-.91-.72-3.67-1.46-7.35-2.15-11-.06-.32.17-.7.26-1,.28.27.68.49.8.82a24.67,24.67,0,0,1,.66,2.42c.61,2.29,1.21,4.58,1.84,7,.49-.27.84-.44,1.18-.64,2-1.2,2-1.2,1.24-3.5-.87-2.53-1.75-5-2.57-7.59-.1-.32.15-.76.24-1.14.25.26.61.48.74.79.44,1,.79,2.09,1.18,3.14l2.38,6.43,4.84-4c-3.39-1.7-5.24-4.5-6.58-7.69a1.47,1.47,0,0,1,0-1.27c2.27-2.57,4.6-5.09,6.94-7.64,1.8,1,2.73.43,2.75-1.89a17.44,17.44,0,0,1,0-2.4,12.31,12.31,0,0,1,.7-2.07l.4.12c0,2.59,0,5.18,0,7.78,0,1.45.59,2.53,1.3,2.35,1.21-.3,1.17-1.36,1.17-2.33,0-4.64-.06-9.28,0-13.92a20.62,20.62,0,0,1,.88-4c.85,3.38,1.91,4.7,3.72,4.6-.11-1.17-.29-2.33-.31-3.51,0-2.72,0-5.44,0-8.16a1.6,1.6,0,0,0-.67-1.19c-1.07-.53-.79-1.15-.41-1.89l1.57.35a21.37,21.37,0,0,1-.43-2.83c-.07-2.24,0-4.48,0-6.72V36.79c-1.91.92-3.65,1.36-5.47.43s-3.23-3-2.93-4.37c.82,1,1.55,2,2.4,2.85,1.12,1.12,2.37,1.06,3.21,0l-3-4.36.33-.25c.83,1,1.65,1.92,2.51,2.85a2.29,2.29,0,0,0,3.82-.44c-1.69-1.06-1.79-1.17-2-2.24,2.63,1.17,3.5,1,4.63-1.06a4.48,4.48,0,0,1-3.83-2.54c-.81-1.3-2.62-1.86-2.67-3.73a7.45,7.45,0,0,1,2,1.4c1.22,1.09,2.37,2.26,3.66,3.26.32.26,1,0,1.59,0a5.57,5.57,0,0,0-.26-1.44,20,20,0,0,0-1.25-1.94l.32-.21c.89,1,1.72,2.09,2.66,3a2.84,2.84,0,0,0,3.57.76A18.38,18.38,0,0,1,138.89,27a19.48,19.48,0,0,1-1.4-2.23c-2.19-3.56-4.73-6.74-8.78-8.36a4.44,4.44,0,0,0-5.32,1.23c-1.23,1.31-2.2,3.36-1,5.46a4.2,4.2,0,0,1-.24,5.05,5.29,5.29,0,0,1-5.36,1.87,2.5,2.5,0,0,0-2.34.39,4.85,4.85,0,0,1-1.64.51l-.13-.41,2.5-1.45c-1.33-1.3-2.47-2.44-3.63-3.56a1.24,1.24,0,0,0-.65-.25l-5.15-.44c-.39,1.33-.86,2.84-1.26,4.38a1.05,1.05,0,0,0,.31.83.9.9,0,0,1-.09,1.53c-1,.66-2,1.2-2.93,1.75-.19.37-.3.87-.6,1.08A19.48,19.48,0,0,1,99,35.52a6.79,6.79,0,0,0-1.13.6,12.91,12.91,0,0,1-1.66,1.41c-1.55.82-3.15,1.55-4.76,2.24a26.09,26.09,0,0,1-7.19,1.62V38.85A18.5,18.5,0,0,0,87,38.52c1.27-.34,3,0,3.45-1.88,0-.13.5-.24.75-.21,2.09.26,3.36-1.36,4.53-2.47a3,3,0,0,1,2.53-1c1,.07,1.3-.23,1.14-1.21a1.87,1.87,0,0,1,.32-1.27c.52-.75,1.17-1.41,1.75-2.12s1-1.39,2,0c.52-2,.94-3.65,1.37-5.31,5,1.64,6,1.72,7.1.47C111,23,110.16,22.41,109.2,22c-1.25-.6-2.57-1.05-3.84-1.61a1.86,1.86,0,0,1-.77-.7c-.59-1-1.06-2.11-1.7-3.09S99.23,15,98.2,15.66a2.41,2.41,0,0,0-1.13,2.69c2-.53,2.76,1.56,4.28,2a.4.4,0,0,1,.15.31,12,12,0,0,1-.45,2.57,1.21,1.21,0,0,0,.35,1.57,7.64,7.64,0,0,1,.59.65c-.82.24-1.8.24-2.11.69s0,1.37,0,1.83C99,28.51,98,29.05,97,29.53a12.63,12.63,0,0,1-2.51,1.09,4.76,4.76,0,0,1-5.08-1.88A3.91,3.91,0,0,1,89.06,24,4.39,4.39,0,0,0,89.62,22a5.59,5.59,0,0,0-2.69-4.92c-1.62-1.1-3.29-.78-4.87.11a17.92,17.92,0,0,0-6.72,7.17c-.87,1.55-2,3-2.94,4.47-.1.15-.17.32-.39.74.66,0,1.22.11,1.52-.1a17.21,17.21,0,0,0,2.9-2.4c1-1.12,1.78-2.45,2.74-3.62a7.17,7.17,0,0,1,1.5-1.08l.33.36c-1.39,1.84-2.78,3.67-4.15,5.52-.19.26-.47.68-.38.87a1.06,1.06,0,0,0,.87.48,5.6,5.6,0,0,0,2.24-.88,21.61,21.61,0,0,0,2.08-2.46c.55-.63,1-1.44,2.2-1.16C81.91,27.14,80.9,30,77.74,31.37Zm-5.54,22a3.56,3.56,0,0,0,3.28-3.84q0-9,0-18.1c0-.3,0-.61-.07-1a11.2,11.2,0,0,1-1.38.66c-1.26.42-1.55,1.25-1.53,2.54.08,5.52,0,11,0,16.55C72.51,51.21,72.32,52.27,72.2,53.39Zm68.15,0a25.79,25.79,0,0,1-.3-2.76c0-5.88,0-11.75,0-17.63a1.86,1.86,0,0,0-.4-1.25,20,20,0,0,0-2.36-1.31c-.11.19-.18.26-.18.32,0,6.48,0,13,0,19.43A3.38,3.38,0,0,0,140.35,53.39Zm-4.26,32.12c-.13-1.2-.35-2.37-.36-3.53,0-4.71,0-9.43,0-14.14a1.7,1.7,0,0,0-.43-1.24,17,17,0,0,0-2.45-1.16c0,.51-.06.86-.06,1.21V81.39A3.79,3.79,0,0,0,136.09,85.51ZM79.8,65.43a14.34,14.34,0,0,1-1.55.64c-1.13.32-1.47,1-1.44,2.2.08,4.07.06,8.15,0,12.23,0,1.67-.2,3.34-.31,5a3.78,3.78,0,0,0,3.28-4c0-4,0-8,0-12Zm4.25-1.93a13.21,13.21,0,0,1-1.52.62c-1.09.29-1.42.94-1.4,2.08.07,4.75,0,9.5,0,14.26a3.47,3.47,0,0,0,.28,1.61,1.63,1.63,0,0,0,1.15.82,1.65,1.65,0,0,0,1.17-.79,3.87,3.87,0,0,0,.33-1.73c0-5.23,0-10.46,0-15.69C84.11,64.33,84.08,64,84.05,63.5Zm44.4-.06c0,6,0,11.8,0,17.56a1.2,1.2,0,0,0,.2.79c.39.43.86,1,1.34,1.08s.87-.63,1.2-1.07a1.82,1.82,0,0,0,.2-1q0-7.62,0-15.24a1.16,1.16,0,0,0-.38-.89A27.37,27.37,0,0,0,128.45,63.44ZM140.38,87a29.49,29.49,0,0,1-.33-3c0-4.71,0-9.42,0-14.12,0-.43-.11-1-.4-1.25a20.06,20.06,0,0,0-2.54-1.25c0,5.62-.05,11,0,16.38A3.55,3.55,0,0,0,140.38,87Zm-65-19.42c-2.79.72-2.84.84-2.9,3.45-.12,5.34.36,10.7-.29,16a3.73,3.73,0,0,0,3.25-3.91q0-7.3,0-14.61C75.48,68.15,75.44,67.85,75.42,67.53Zm1.11-16a3.56,3.56,0,0,0,3.29-3.64c0-3.51-.18-7,.07-10.53.18-2.59-1.7-3.67-2.92-5.28-.12,5.53-.1,11-.13,16.47C76.83,49.5,76.64,50.47,76.53,51.51Zm59-19.56c-.77.88-1.27,1.54-1.86,2.11a3.51,3.51,0,0,0-1.05,2.9c.07,2.28,0,4.56,0,6.84,0,1.52,0,3,.08,4.55.15,1.88,1.87,3.35,3.18,3-.12-1.12-.35-2.22-.36-3.31,0-4.84,0-9.68,0-14.51ZM112.06,13.8c-3.6.43-4.09.4-6.61-.38a20.71,20.71,0,0,0-2.28-.71c-.39-.07-1.13.09-1.2.31-.12.39,0,1.19.26,1.32,1.73.86,2.14,2.68,3.08,4.09s3.28,2.84,4.88,2.6c.3-.05.55-.44.83-.67-.25-.24-.46-.6-.76-.7-.81-.29-1.7-.4-2.5-.74-.44-.19-.76-.69-1.14-1.05,1.12.05,2,.4,2.9.5a1.72,1.72,0,0,0,2.15-1.52c-1.31-.65-3,.54-4.33-1.09,1.24,0,2.2.06,3.14,0A1.59,1.59,0,0,0,112.06,13.8Zm24,51.59c-.12-1.06-.32-2-.33-3,0-2.87,0-5.74,0-8.61a1.46,1.46,0,0,0-.45-1.09,21.9,21.9,0,0,0-2.46-1.16c0,3.7-.08,7.2,0,10.7A3.33,3.33,0,0,0,136.06,65.39Zm-59.52,0a3.63,3.63,0,0,0,3.25-3.75c0-2.19,0-4.38,0-6.58V51.52c-.69.29-1.18.55-1.71.72a1.67,1.67,0,0,0-1.28,1.94c.09,2.39.06,4.79,0,7.18C76.8,62.69,76.64,64,76.54,65.41Zm-4.34,1a3.58,3.58,0,0,0,3.28-3.61c0-2.59,0-5.19,0-7.78V53.46a15.48,15.48,0,0,1-1.73.78c-1,.31-1.28.92-1.25,2,.09,2.31.06,4.63,0,6.94C72.5,64.19,72.31,65.24,72.2,66.36Zm64.89-12.88c0,3.47-.09,6.67,0,9.85a3.27,3.27,0,0,0,3.22,3c-.1-1-.27-2-.29-3-.05-2.51,0-5,0-7.55a1.43,1.43,0,0,0-.47-1.07A20.21,20.21,0,0,0,137.09,53.48ZM96.63,36.21l1.59-1.29-.2-.36-2.21.78Z"/><path class="cls-1" d="M77.74,31.37c3.16-1.38,4.17-4.23,6.12-6.24-1.19-.28-1.65.53-2.2,1.16a21.61,21.61,0,0,1-2.08,2.46,5.6,5.6,0,0,1-2.24.88,1.06,1.06,0,0,1-.87-.48c-.09-.19.19-.61.38-.87,1.37-1.85,2.76-3.68,4.15-5.52l-.33-.36a7.17,7.17,0,0,0-1.5,1.08c-1,1.17-1.73,2.5-2.74,3.62a17.21,17.21,0,0,1-2.9,2.4c-.3.21-.86.07-1.52.1.22-.42.29-.59.39-.74,1-1.49,2.07-2.92,2.94-4.47a17.92,17.92,0,0,1,6.72-7.17c1.58-.89,3.25-1.21,4.87-.11A5.59,5.59,0,0,1,89.62,22,4.39,4.39,0,0,1,89.06,24a3.91,3.91,0,0,0,.38,4.78,4.76,4.76,0,0,0,5.08,1.88A12.63,12.63,0,0,0,97,29.53c1-.48,1.92-1,2.89-1.54,0-.46-.36-1.37,0-1.83s1.29-.45,2.11-.69a7.64,7.64,0,0,0-.59-.65,1.21,1.21,0,0,1-.35-1.57,12,12,0,0,0,.45-2.57.4.4,0,0,0-.15-.31c-1.52-.46-2.24-2.55-4.28-2a2.41,2.41,0,0,1,1.13-2.69c1-.65,4-.12,4.69.89s1.11,2.07,1.7,3.09a1.86,1.86,0,0,0,.77.7c1.27.56,2.59,1,3.84,1.61,1,.46,1.84,1.08,2.77,1.64-1,1.25-2.11,1.17-7.1-.47-.43,1.66-.85,3.32-1.37,5.31-1-1.42-1.48-.69-2,0s-1.23,1.37-1.75,2.12a1.87,1.87,0,0,0-.32,1.27c.16,1-.11,1.28-1.14,1.21a3,3,0,0,0-2.53,1c-1.17,1.11-2.44,2.73-4.53,2.47-.25,0-.72.08-.75.21-.5,1.85-2.18,1.54-3.45,1.88a18.5,18.5,0,0,1-2.81.33v2.54a26.09,26.09,0,0,0,7.19-1.62c1.61-.69,3.21-1.42,4.76-2.24a12.91,12.91,0,0,0,1.66-1.41,6.79,6.79,0,0,1,1.13-.6,19.48,19.48,0,0,0,2.19-1.1c.3-.21.41-.71.6-1.08.93-.55,2-1.09,2.93-1.75a.9.9,0,0,0,.09-1.53,1.05,1.05,0,0,1-.31-.83c.4-1.54.87-3.05,1.26-4.38l5.15.44a1.24,1.24,0,0,1,.65.25c1.16,1.12,2.3,2.26,3.63,3.56l-2.5,1.45.13.41a4.85,4.85,0,0,0,1.64-.51,2.5,2.5,0,0,1,2.34-.39,5.29,5.29,0,0,0,5.36-1.87,4.2,4.2,0,0,0,.24-5.05c-1.16-2.1-.19-4.15,1-5.46a4.44,4.44,0,0,1,5.32-1.23c4,1.62,6.59,4.8,8.78,8.36a19.48,19.48,0,0,0,1.4,2.23,18.38,18.38,0,0,0,1.86,1.78,2.84,2.84,0,0,1-3.57-.76c-.94-1-1.77-2-2.66-3l-.32.21a20,20,0,0,1,1.25,1.94,5.57,5.57,0,0,1,.26,1.44c-.54,0-1.27.3-1.59,0-1.29-1-2.44-2.17-3.66-3.26a7.45,7.45,0,0,0-2-1.4c.05,1.87,1.86,2.43,2.67,3.73A4.48,4.48,0,0,0,135,30.25c-1.13,2.06-2,2.23-4.63,1.06.18,1.07.28,1.18,2,2.24a2.29,2.29,0,0,1-3.82.44c-.86-.93-1.68-1.9-2.51-2.85l-.33.25,3,4.36c-.84,1-2.09,1.07-3.21,0-.85-.87-1.58-1.87-2.4-2.85-.3,1.37,1.17,3.47,2.93,4.37s3.56.49,5.47-.43v2.65c0,2.24,0,4.48,0,6.72a21.37,21.37,0,0,0,.43,2.83l-1.57-.35c-.38.74-.66,1.36.41,1.89a1.6,1.6,0,0,1,.67,1.19c.06,2.72,0,5.44,0,8.16,0,1.18.2,2.34.31,3.51-1.81.1-2.87-1.22-3.72-4.6a20.62,20.62,0,0,0-.88,4c-.11,4.64,0,9.28,0,13.92,0,1,0,2-1.17,2.33-.71.18-1.3-.9-1.3-2.35,0-2.6,0-5.19,0-7.78l-.4-.12a12.31,12.31,0,0,0-.7,2.07,17.44,17.44,0,0,0,0,2.4c0,2.32-1,2.9-2.75,1.89-2.34,2.55-4.67,5.07-6.94,7.64a1.47,1.47,0,0,0,0,1.27c1.34,3.19,3.19,6,6.58,7.69l-4.84,4-2.38-6.43c-.39-1.05-.74-2.11-1.18-3.14-.13-.31-.49-.53-.74-.79-.09.38-.34.82-.24,1.14.82,2.54,1.7,5.06,2.57,7.59.8,2.3.8,2.3-1.24,3.5-.34.2-.69.37-1.18.64-.63-2.4-1.23-4.69-1.84-7a24.67,24.67,0,0,0-.66-2.42c-.12-.33-.52-.55-.8-.82-.09.35-.32.73-.26,1,.69,3.68,1.43,7.36,2.15,11,0,.27.07.54.12.91h-7.31c.21-1.15.4-2.26.61-3.37.54-2.77,1.1-5.55,1.6-8.33a3.79,3.79,0,0,0-.27-1.32,4.24,4.24,0,0,0-.82,1.16c-.77,2.8-1.47,5.63-2.2,8.44a6.25,6.25,0,0,1-.23.63,30.6,30.6,0,0,1-2.77-1.63c-.2-.15-.19-.8-.08-1.14.93-2.8,1.91-5.59,2.87-8.38a2.86,2.86,0,0,0,.29-.9,2.55,2.55,0,0,0-.34-.81c-.21.14-.51.24-.62.44a8.57,8.57,0,0,0-.53,1.33l-2.88,7.86c-.08.21-.2.41-.35.71l-4.71-4a8.11,8.11,0,0,1,.69-.48c3.06-1.73,4.77-4.53,6-7.68a1.09,1.09,0,0,0-.2-.93c-2.23-2.5-4.49-5-6.78-7.48-1.78.89-2.64.29-2.69-1.93,0-1.45.33-3-1-4.33A10,10,0,0,0,88,70.08c0,2.08,0,4.16,0,6.24a4.71,4.71,0,0,1-.27,1.76c-.17.41-.67.94-1,.94s-.82-.55-1-1a3.27,3.27,0,0,1-.16-1.41c0-4.32.07-8.64,0-13a16.93,16.93,0,0,0-1-4.5c-.38,2.25-1.33,3.88-3.72,4.35,1-3.91.3-7.81.48-11.68a1.51,1.51,0,0,1,.73-1.47c.38-.23.42-1,.71-1.78L80.72,49c.15-1.21.39-2.41.42-3.61.06-2.76,0-5.51,0-8.46a4.74,4.74,0,0,0,6.24-.11,4.21,4.21,0,0,0,1.9-2.91c-1.84,1-2.94,3.45-5.67,2.67l2.82-4.29-.37-.3c-.49.57-1,1.11-1.46,1.7-.8,1-1.73,1.83-3.13,1.56a3.78,3.78,0,0,1-1.62-.92c2.75-1.06,3.44-3.75,5.12-5.57l-.3-.33c-.43.41-.87.8-1.27,1.24a16.41,16.41,0,0,1-2.25,2.44,3.62,3.62,0,0,1-2.22.3C78.57,32.34,78.24,31.81,77.74,31.37Zm28.19.91-1.16,1.08c-5.93,5.48-13.11,8.23-20.94,9.47-1.09.17-1.22.64-1.11,1.51.33,2.61.58,5.23,1,7.82,2.26,14.67,10,25.93,21.7,34.7a1.11,1.11,0,0,0,1.65-.06c1.72-1.48,3.51-2.9,5.22-4.4,11.48-10.08,16.35-23.17,17.38-38,.06-.93-.11-1.39-1.19-1.59A42.5,42.5,0,0,1,114.37,38C111.49,36.33,108.84,34.27,105.93,32.28Zm5.57.09c-.34.38-.89.71-1,1.11s.37.87.68,1.23c.78.91,1.79.62,2.72.35.72-.21,1,.15.81.66-.36,1,.15,1.38.86,1.67,2.84,1.14,5.67,2.33,8.57,3.33a26.47,26.47,0,0,0,4.2.74,10.92,10.92,0,0,1,.06-1.2c.18-1.16-.26-1.74-1.45-1.95a19.51,19.51,0,0,1-3.69-1c-4.69-1.81-9.1-4.1-12.68-7.73-.26-.26-.77-.58-1-.49-.92.37-2.43.15-2.53,1.38,0,.66,1,1.42,1.61,2.12.06.08.22.06.32.09A1.63,1.63,0,0,1,111.5,32.37Z"/><path class="cls-1" d="M72.2,53.39c.12-1.12.31-2.18.32-3.23,0-5.51.06-11,0-16.55,0-1.29.27-2.12,1.53-2.54a11.2,11.2,0,0,0,1.38-.66c0,.43.07.74.07,1q0,9,0,18.1A3.56,3.56,0,0,1,72.2,53.39Z"/><path class="cls-1" d="M140.35,53.39a3.38,3.38,0,0,1-3.25-3.2c-.06-6.48,0-12.95,0-19.43,0-.06.07-.13.18-.32a20,20,0,0,1,2.36,1.31A1.86,1.86,0,0,1,140,33c0,5.88,0,11.75,0,17.63A25.79,25.79,0,0,0,140.35,53.39Z"/><path class="cls-1" d="M136.09,85.51a3.79,3.79,0,0,1-3.33-4.12V66.65c0-.35,0-.7.06-1.21a17,17,0,0,1,2.45,1.16,1.7,1.7,0,0,1,.43,1.24c0,4.71,0,9.43,0,14.14C135.74,83.14,136,84.31,136.09,85.51Z"/><path class="cls-1" d="M79.8,65.43v4c0,4,0,8,0,12a3.78,3.78,0,0,1-3.28,4c.11-1.62.29-3.29.31-5,0-4.08.06-8.16,0-12.23,0-1.2.31-1.88,1.44-2.2A14.34,14.34,0,0,0,79.8,65.43Z"/><path class="cls-1" d="M84.05,63.5c0,.49.06.83.06,1.18,0,5.23,0,10.46,0,15.69a3.87,3.87,0,0,1-.33,1.73,1.65,1.65,0,0,1-1.17.79,1.63,1.63,0,0,1-1.15-.82,3.47,3.47,0,0,1-.28-1.61c0-4.76,0-9.51,0-14.26,0-1.14.31-1.79,1.4-2.08A13.21,13.21,0,0,0,84.05,63.5Z"/><path class="cls-1" d="M128.45,63.44a27.37,27.37,0,0,1,2.56,1.2,1.16,1.16,0,0,1,.38.89q0,7.62,0,15.24a1.82,1.82,0,0,1-.2,1c-.33.44-.83,1.11-1.2,1.07s-1-.65-1.34-1.08a1.2,1.2,0,0,1-.2-.79C128.44,75.24,128.45,69.49,128.45,63.44Z"/><path class="cls-1" d="M140.38,87a3.55,3.55,0,0,1-3.28-3.22c-.07-5.38,0-10.76,0-16.38a20.06,20.06,0,0,1,2.54,1.25c.29.2.39.82.4,1.25,0,4.7,0,9.41,0,14.12A29.49,29.49,0,0,0,140.38,87Z"/><path class="cls-1" d="M75.42,67.53c0,.32.06.62.06.93q0,7.31,0,14.61A3.73,3.73,0,0,1,72.23,87c.65-5.3.17-10.66.29-16C72.58,68.37,72.63,68.25,75.42,67.53Z"/><path class="cls-1" d="M76.53,51.51c.11-1,.3-2,.31-3,0-5.47,0-10.94.13-16.47,1.22,1.61,3.1,2.69,2.92,5.28-.25,3.49,0,7-.07,10.53A3.56,3.56,0,0,1,76.53,51.51Z"/><path class="cls-1" d="M135.57,32v1.61c0,4.83,0,9.67,0,14.51,0,1.09.24,2.19.36,3.31-1.31.32-3-1.15-3.18-3-.12-1.51-.07-3-.08-4.55,0-2.28,0-4.56,0-6.84a3.51,3.51,0,0,1,1.05-2.9C134.3,33.49,134.8,32.83,135.57,32Z"/><path class="cls-1" d="M112.06,13.8a1.59,1.59,0,0,1-1.58,1.94c-.94.08-1.9,0-3.14,0,1.3,1.63,3,.44,4.33,1.09a1.72,1.72,0,0,1-2.15,1.52c-.91-.1-1.78-.45-2.9-.5.38.36.7.86,1.14,1.05.8.34,1.69.45,2.5.74.3.1.51.46.76.7-.28.23-.53.62-.83.67-1.6.24-4-1.25-4.88-2.6s-1.35-3.23-3.08-4.09c-.26-.13-.38-.93-.26-1.32.07-.22.81-.38,1.2-.31a20.71,20.71,0,0,1,2.28.71C108,14.2,108.46,14.23,112.06,13.8Z"/><path class="cls-1" d="M136.06,65.39a3.33,3.33,0,0,1-3.25-3.17c-.11-3.5,0-7,0-10.7a21.9,21.9,0,0,1,2.46,1.16,1.46,1.46,0,0,1,.45,1.09c0,2.87,0,5.74,0,8.61C135.74,63.36,135.94,64.33,136.06,65.39Z"/><path class="cls-1" d="M76.54,65.41c.1-1.39.26-2.72.29-4,0-2.39.07-4.79,0-7.18a1.67,1.67,0,0,1,1.28-1.94c.53-.17,1-.43,1.71-.72v3.56c0,2.2,0,4.39,0,6.58A3.63,3.63,0,0,1,76.54,65.41Z"/><path class="cls-1" d="M72.2,66.36c.11-1.12.3-2.17.32-3.22,0-2.31.07-4.63,0-6.94,0-1,.26-1.65,1.25-2a15.48,15.48,0,0,0,1.73-.78V55c0,2.59,0,5.19,0,7.78A3.58,3.58,0,0,1,72.2,66.36Z"/><path class="cls-1" d="M137.09,53.48a20.21,20.21,0,0,1,2.45,1.18,1.43,1.43,0,0,1,.47,1.07c0,2.52,0,5,0,7.55,0,1,.19,2,.29,3a3.27,3.27,0,0,1-3.22-3C137,60.15,137.09,57,137.09,53.48Z"/><path class="cls-1" d="M96.63,36.21l-.82-.87L98,34.56l.2.36Z"/><path class="cls-1" d="M105.93,32.28c2.91,2,5.56,4,8.44,5.73a42.5,42.5,0,0,0,14.09,4.77c1.08.2,1.25.66,1.19,1.59-1,14.86-5.9,27.95-17.38,38-1.71,1.5-3.5,2.92-5.22,4.4a1.11,1.11,0,0,1-1.65.06c-11.71-8.77-19.44-20-21.7-34.7-.4-2.59-.65-5.21-1-7.82-.11-.87,0-1.34,1.11-1.51,7.83-1.24,15-4,20.94-9.47Zm18.9,14.81a3.35,3.35,0,0,0-.9-.53,67.13,67.13,0,0,1-17.11-7.62,1.4,1.4,0,0,0-1.23,0,63.71,63.71,0,0,1-17.12,7.59c-.83.23-1,.59-.88,1.35.28,2,.45,4,.77,5.92a40.64,40.64,0,0,0,17.17,27.46,1,1,0,0,0,1.36,0C118.52,73,123.94,61.42,124.83,47.09Zm-6.91,23.7,2.47,1.51c.24-.75.73-1.47.54-1.87a2,2,0,0,0-1.57-.89C118.9,69.56,118.48,70.27,117.92,70.79Zm-23.2-30L95.85,43l.18-.09-.19-1.2,1.57.52a9.91,9.91,0,0,0-.55-1.52,1,1,0,0,0-.76-.5A5.4,5.4,0,0,0,94.72,40.82Zm27.65,4,.2.07.69-1.23.2,1.93,1.11-1.29-.1,1.34.23,0,.58-2.33-.4-.19-1.16,1.39-.38-1.77H123Zm-4.6,30.61a7.63,7.63,0,0,0-1.16-1.18,1,1,0,0,0-.92,0,4.93,4.93,0,0,0-.89,1l1.86,1.54.15-.15-.59-1.12ZM98,79l1-2.33-.28-.21-2,.85Zm20.36-4.36a1.66,1.66,0,0,1,1.37-1.92l-2.55-.57-.22.27ZM109.51,36l-1.66,2.59a6.11,6.11,0,0,0,2.05.32,1.4,1.4,0,0,0,.78-1.16C110.56,37.19,110,36.72,109.51,36Zm-2.89,1.27c.43-.76.94-1.28,1-1.84a1.51,1.51,0,0,0-.92-1.17,4.87,4.87,0,0,0-1.85.58Zm-6.45.43,1.66,2.62c.5-.66,1-1.1,1.18-1.65a1.39,1.39,0,0,0-.69-1.21A6.24,6.24,0,0,0,100.17,37.7Zm22.22,30.07L120,67.51l-.15.35,1.42,1.74ZM93.28,74.59a6.46,6.46,0,0,0,2,.84,1.41,1.41,0,0,0,1-1,5.46,5.46,0,0,0-.63-1.83Zm34.31-28.77-.53-2.21h-.34l-1.27,2ZM113,80.27l-2.13-1-.27.24.67,2.14Zm-7.35-43.12-2.06-1.32-.25.19.48,2.31Zm18.18,28.14c-.47-1,.21-1.52,1-2h-2.87Zm-37-21.8-.28.1.48,2.28.24,0-.13-1.41,1.54,1.1.27-.13-.53-2.2-.2,0,.12,1.56Zm30.46.13h.59c.33-.54.9-1.07.91-1.61,0-.37-.72-1-1.2-1.08-.87-.15-1.32.56-1.19,1.35C116.51,42.75,117,43.17,117.32,43.62ZM89.79,65.35l.12-1.11,1.18,1.06-.78-1.69L88,64.67l.74,1.56.12-1.51Zm22.53-25.92-.8-.7.11-.34,1.67.29-1.67-1-1.27,2.22,1.49.88-.78-1.38Zm-14.21,2.1c.72.31,1.44.17,1.56-.5.3-1.65-1.4-.38-1.89-1.28l1-.49L98.64,39c-.38.24-1.07.45-1.09.73C97.41,41.25,99,40,99.46,41Zm9.52,40.56,1.43,1.63.22-1.32,1.46.27-1.49-1.77c-.1.5-.07,1-.31,1.3S108.22,82.15,107.63,82.09ZM92.48,41.75l1,2.38L95,43.49l-1.44-.17.75-1-1.16-.09.93-1.1Zm1.56,29-.31-.38a17.59,17.59,0,0,0-1.49,1.86c-.08.11.46.87.6.83a14.63,14.63,0,0,0,2.09-.78l-.18-.37a4.28,4.28,0,0,1-1,.58,4.33,4.33,0,0,1-1.14,0,4.83,4.83,0,0,1,.49-1.05A5,5,0,0,1,94,70.75Zm-2.72-4.21.61,1.28c.18-.95-.07-1.46-.79-1.46-.18,0-.35.75-.53,1.16-.09.22-.2.43-.3.65-.19-.17-.45-.32-.55-.54s0-.46,0-.69l-.38.07a4.53,4.53,0,0,0,.34,1.15c.14.21.53.26.8.38ZM103.68,80.8l-.39-.22a16,16,0,0,0-1,2.16c0,.13.77.74.91.66A14.51,14.51,0,0,0,105,82l-.29-.28a8.38,8.38,0,0,1-1,1.1c-.2.16-.55.1-.84.13,0-.28-.18-.63-.07-.85A10.63,10.63,0,0,1,103.68,80.8Zm3.38,1.8c-.48-.61-1-.59-1.63,0a1.54,1.54,0,0,0,.14,2c.6.42,1.15.38,1.49-.18-.5-.09-1.07-.06-1.39-.32a1.19,1.19,0,0,1,0-1.17C106,82.68,106.56,82.71,107.06,82.6Zm-16.83-40-.26.21,1.72,2,.27-.23V42.16H91.8l-.2,1.91Zm-6,1.59-.44.18a19.93,19.93,0,0,0,1.14,2.08c.06.09,1-.16,1-.33a13.06,13.06,0,0,0,0-2.17l-.32,0a6.28,6.28,0,0,1,.1,1.36c0,.29-.31.55-.48.82-.25-.22-.6-.38-.73-.66A5.49,5.49,0,0,1,84.18,44.14Zm31.24-2c-.44-.24-1-.38-1.1-.64a1.31,1.31,0,0,1,.4-1.19c.39-.18,1,0,1.47.08a1,1,0,0,0-1.51-.54,1.25,1.25,0,0,0-.71,1.76C114.26,42.22,114.72,42.67,115.42,42.15ZM90.88,70.36l2.5-.87-.56-.9Zm30.73-5.52c0,1.1,2.16.64,1.19,2.33.31-.23.69-.74.63-.79A22.42,22.42,0,0,0,121.61,64.84Zm-6,13.19-1.52-2.14-.75.8ZM102,79.37l-.26-.21-1.6,1.92,1.16.93.12-.16-.71-.81Zm18-37.51-.28-.08L119,44l1.41.5.08-.15-1-.54ZM100.64,40.6l.32-.19-1.18-2-.3.17Z"/><path class="cls-1" d="M111.5,32.37a1.63,1.63,0,0,0-2.48.32c-.1,0-.26,0-.32-.09-.58-.7-1.66-1.46-1.61-2.12.1-1.23,1.61-1,2.53-1.38.24-.09.75.23,1,.49,3.58,3.63,8,5.92,12.68,7.73a19.51,19.51,0,0,0,3.69,1c1.19.21,1.63.79,1.45,1.95a10.92,10.92,0,0,0-.06,1.2,26.47,26.47,0,0,1-4.2-.74c-2.9-1-5.73-2.19-8.57-3.33-.71-.29-1.22-.7-.86-1.67.18-.51-.09-.87-.81-.66-.93.27-1.94.56-2.72-.35-.31-.36-.73-.85-.68-1.23S111.16,32.75,111.5,32.37Z"/><path class="cls-1" d="M124.83,47.09c-.89,14.33-6.31,25.89-17.94,34.14a1,1,0,0,1-1.36,0A40.64,40.64,0,0,1,88.36,53.78c-.32-2-.49-4-.77-5.92-.1-.76,0-1.12.88-1.35a63.71,63.71,0,0,0,17.12-7.59,1.4,1.4,0,0,1,1.23,0,67.13,67.13,0,0,0,17.11,7.62A3.35,3.35,0,0,1,124.83,47.09Zm-18.7,18.75c2.13,0,4.07,0,6,0,1.19,0,2.39,0,3.58,0s1.46-.56,1.45-1.65c0-5.24,0-10.47,0-15.71,0-1.94,0-1.93-1.88-2-.48,0-1-.11-1.42-.17-2.09-.25-4.15-.85-6.27-.14a1.84,1.84,0,0,0-1.55,2c.06,5.47,0,10.95,0,16.43C106.05,65.06,106.1,65.49,106.13,65.84Zm-.36.24c0-.64.08-1.15.08-1.66q0-7.91,0-15.82c0-1.9-.19-2.19-2.06-2.52a11.25,11.25,0,0,0-2.72-.1c-1.59.12-3.17.39-4.75.51-.9.07-1.2.39-1.2,1.32.05,5.44,0,10.87,0,16.3,0,1.79,0,1.89,1.85,1.94C99.89,66.14,102.77,66.08,105.77,66.08Zm6.38,1.11a45.13,45.13,0,0,1-6,.83,44.75,44.75,0,0,1-6-.71,30.08,30.08,0,0,1,0,4.37c-.52,3.27.74,5.48,3.44,7.27,3.28,2.18,2,2.32,5.1,0,.29-.22.55-.47.85-.67a5.36,5.36,0,0,0,2.76-5.8,27.15,27.15,0,0,1,0-3.83C112.27,68.23,112.2,67.81,112.15,67.19Zm.67-23.91c-.32,2.29-.29,2.35,1.72,2.53.6,0,1.2,0,1.8,0,1.6,0,1.7.12,1.7,1.7q0,8.68,0,17.38c0,2.34,0,2.34-2.38,2.43h-.12c-2.87.08-2.87.08-2.87,3v5c.55-.51.82-.72,1-1,6.82-7.34,9.54-16.31,10.4-26,.08-.84-.37-1.06-1-1.29-3.11-1.11-6.21-2.26-9.31-3.4Zm-13.31.06a2.74,2.74,0,0,0-.57.11c-3.32,1.22-6.63,2.5-10,3.66-.83.29-.78.79-.7,1.39.21,1.66.4,3.32.68,5a39.57,39.57,0,0,0,8.29,19.22c.67.81,1.41,1.58,2.32,2.6V67.46c-.49,0-.88,0-1.28,0-1,0-2,0-3-.1a.93.93,0,0,1-1-1.08q0-9.59,0-19.19c0-.72.27-1.16,1-1.24s1.66-.13,2.5-.18C99.68,45.56,99.86,45.32,99.51,43.34ZM112.13,45c.49-1.39.26-2-1.16-2.79s-2.66-1.61-4-2.32a1.81,1.81,0,0,0-1.46,0c-1.31.67-2.53,1.5-3.82,2.22-1.69.93-1.7.91-1.34,2.83l5.51,1a2,2,0,0,0,.59,0Z"/><path class="cls-1" d="M117.92,70.79c.56-.52,1-1.23,1.44-1.25a2,2,0,0,1,1.57.89c.19.4-.3,1.12-.54,1.87Z"/><path class="cls-1" d="M94.72,40.82a5.4,5.4,0,0,1,1.38-.58,1,1,0,0,1,.76.5,9.91,9.91,0,0,1,.55,1.52l-1.57-.52.19,1.2-.18.09Z"/><path class="cls-1" d="M122.37,44.77l.6-2h.37l.38,1.77,1.16-1.39.4.19-.58,2.33-.23,0,.1-1.34-1.11,1.29-.2-1.93-.69,1.23Z"/><path class="cls-1" d="M117.77,75.38l-1.55.1.59,1.12-.15.15-1.86-1.54a4.93,4.93,0,0,1,.89-1,1,1,0,0,1,.92,0A7.63,7.63,0,0,1,117.77,75.38Z"/><path class="cls-1" d="M98,79,96.62,77.3l2-.85.28.21Z"/><path class="cls-1" d="M118.32,74.63l-1.4-2.22.22-.27,2.55.57A1.66,1.66,0,0,0,118.32,74.63Z"/><path class="cls-1" d="M109.51,36c.52.72,1,1.19,1.17,1.75a1.4,1.4,0,0,1-.78,1.16,6.11,6.11,0,0,1-2.05-.32Zm1.11,1.7-1-.82a11.66,11.66,0,0,0-.95,1.27s.55.6.67.54A7.15,7.15,0,0,0,110.62,37.7Z"/><path class="cls-1" d="M106.62,37.27l-1.79-2.43a4.87,4.87,0,0,1,1.85-.58,1.51,1.51,0,0,1,.92,1.17C107.56,36,107.05,36.51,106.62,37.27Zm-.06-.77c.84-.47,1-1,.47-1.55s-1-.59-1.52.11Z"/><path class="cls-1" d="M100.17,37.7a6.24,6.24,0,0,1,2.15-.24,1.39,1.39,0,0,1,.69,1.21c-.13.55-.68,1-1.18,1.65Zm.54.59,1.58,1.13c.08-.4.34-.88.2-1.19C102.19,37.52,101.62,37.39,100.71,38.29Z"/><path class="cls-1" d="M122.39,67.77l-1.08,1.83-1.42-1.74.15-.35Z"/><path class="cls-1" d="M93.28,74.59l2.38-2a5.46,5.46,0,0,1,.63,1.83,1.41,1.41,0,0,1-1,1A6.46,6.46,0,0,1,93.28,74.59Zm2.07-1.43-1.06,1.66c.41,0,.92.24,1.22.07C96.22,74.51,96.21,73.93,95.35,73.16Z"/><path class="cls-1" d="M127.59,45.82l-2.14-.25,1.27-2h.34Z"/><path class="cls-1" d="M113,80.27l-1.73,1.33-.67-2.14.27-.24Z"/><path class="cls-1" d="M105.65,37.15l-1.83,1.18L103.34,36l.25-.19Z"/><path class="cls-1" d="M123.83,65.29l-1.9-2h2.87C124,63.77,123.36,64.26,123.83,65.29Z"/><path class="cls-1" d="M86.86,43.49l1.51,1.28-.12-1.56.2,0,.53,2.2-.27.13-1.54-1.1.13,1.41-.24,0-.48-2.28Z"/><path class="cls-1" d="M117.32,43.62c-.31-.45-.81-.87-.89-1.35-.13-.79.32-1.5,1.19-1.35.48.08,1.21.71,1.2,1.08,0,.54-.58,1.07-.91,1.61ZM118.85,42c-.56-.37-1-.83-1.17-.74a1.92,1.92,0,0,0-.86,1c-.06.17.59.8.74.75A5.85,5.85,0,0,0,118.85,42Z"/><path class="cls-1" d="M89.79,65.35l-1-.63-.12,1.51L88,64.67l2.33-1.06.78,1.69-1.18-1.06Z"/><path class="cls-1" d="M112.32,39.43h-1.25l.78,1.38-1.49-.88,1.27-2.22,1.67,1-1.67-.29-.11.34Z"/><path class="cls-1" d="M98.11,41.53,99.46,41c-.51-1-2,.28-1.91-1.23,0-.28.71-.49,1.09-.73l.17.25-1,.49c.49.9,2.19-.37,1.89,1.28C99.55,41.7,98.83,41.84,98.11,41.53Z"/><path class="cls-1" d="M107.63,82.09c.59.06,1.17.27,1.31.11s.21-.8.31-1.3l1.49,1.77-1.46-.27-.22,1.32Z"/><path class="cls-1" d="M92.48,41.75l1.56-.6-.93,1.1,1.16.09-.75,1,1.44.17-1.52.64Z"/><path class="cls-1" d="M94,70.75a5,5,0,0,0-.92.71,4.83,4.83,0,0,0-.49,1.05,4.33,4.33,0,0,0,1.14,0,4.28,4.28,0,0,0,1-.58l.18.37a14.63,14.63,0,0,1-2.09.78c-.14,0-.68-.72-.6-.83a17.59,17.59,0,0,1,1.49-1.86Z"/><path class="cls-1" d="M91.32,66.54l-.82,2c-.27-.12-.66-.17-.8-.38A4.53,4.53,0,0,1,89.36,67l.38-.07c0,.23-.08.5,0,.69s.36.37.55.54c.1-.22.21-.43.3-.65.18-.41.35-1.16.53-1.16.72,0,1,.51.79,1.46Z"/><path class="cls-1" d="M103.68,80.8a10.63,10.63,0,0,0-.93,1.3c-.11.22,0,.57.07.85.29,0,.64,0,.84-.13a8.38,8.38,0,0,0,1-1.1L105,82a14.51,14.51,0,0,1-1.75,1.4c-.14.08-.95-.53-.91-.66a16,16,0,0,1,1-2.16Z"/><path class="cls-1" d="M107.06,82.6c-.5.11-1.07.08-1.38.35a1.19,1.19,0,0,0,0,1.17c.32.26.89.23,1.39.32-.34.56-.89.6-1.49.18a1.54,1.54,0,0,1-.14-2C106,82,106.58,82,107.06,82.6Z"/><path class="cls-1" d="M90.23,42.55l1.37,1.51.2-1.91H92v2.38l-.27.23-1.72-2Z"/><path class="cls-1" d="M84.18,44.14a5.49,5.49,0,0,0,.31,1.3c.13.28.48.44.73.66.17-.27.45-.53.48-.82a6.28,6.28,0,0,0-.1-1.36l.32,0a13.06,13.06,0,0,1,0,2.17c0,.17-.93.42-1,.33a19.93,19.93,0,0,1-1.14-2.08Z"/><path class="cls-1" d="M115.42,42.15c-.7.52-1.16.07-1.45-.53a1.25,1.25,0,0,1,.71-1.76,1,1,0,0,1,1.51.54c-.5,0-1.08-.26-1.47-.08a1.31,1.31,0,0,0-.4,1.19C114.38,41.77,115,41.91,115.42,42.15Z"/><path class="cls-1" d="M90.88,70.36l1.94-1.77.56.9Z"/><path class="cls-1" d="M121.61,64.84a22.42,22.42,0,0,1,1.82,1.54c.06.05-.32.56-.63.79C123.77,65.48,121.56,65.94,121.61,64.84Z"/><path class="cls-1" d="M115.66,78l-2.27-1.34.75-.8Z"/><path class="cls-1" d="M102,79.37,100.73,81l.71.81-.12.16-1.16-.93,1.6-1.92Z"/><path class="cls-1" d="M120,41.86l-.53,2,1,.54-.08.15L119,44l.75-2.24Z"/><path class="cls-1" d="M100.64,40.6l-1.16-2.06.3-.17,1.18,2Z"/><path class="cls-1" d="M106.13,65.84c0-.35-.08-.78-.08-1.21,0-5.48,0-11,0-16.43a1.84,1.84,0,0,1,1.55-2c2.12-.71,4.18-.11,6.27.14.47.06.94.15,1.42.17,1.88.07,1.88.06,1.88,2,0,5.24,0,10.47,0,15.71,0,1.09-.3,1.67-1.45,1.65s-2.39,0-3.58,0C110.2,65.83,108.26,65.84,106.13,65.84ZM114,56l-.84,1.18-.33.54c-1.13.57-1.89,0-2.48-1.94h2.41l-1.63-1.32,2.68-2-.22-.23a11.76,11.76,0,0,1-1.2,1,12.65,12.65,0,0,1-1.48.72l-.15-.26,2.08-3.58-.33-.19a3.37,3.37,0,0,1-.4.63c-.65.66-1.22,1.62-2,1.86a4.92,4.92,0,0,0-3.39,3.29,1.2,1.2,0,0,0,.79,1.72l1.12,3.06.69-1.7c.75.45,1.47.85,2.15,1.3a1.35,1.35,0,0,0,2-.36l2.62-3.27c.14-.58.54-1.3.33-1.71s-1.81-.07-2.24.6A2.93,2.93,0,0,0,114,56Z"/><path class="cls-1" d="M105.77,66.08c-3,0-5.88.06-8.77,0-1.85,0-1.85-.15-1.85-1.94,0-5.43,0-10.86,0-16.3,0-.93.3-1.25,1.2-1.32,1.58-.12,3.16-.39,4.75-.51a11.25,11.25,0,0,1,2.72.1c1.87.33,2.06.62,2.06,2.52q0,7.92,0,15.82C105.85,64.93,105.8,65.44,105.77,66.08Zm-8.12-9.91c0,.27-.05.75.06.8a8.58,8.58,0,0,1,3.71,3.57c.6.91,1.16,1.84,1.85,2.94a1.39,1.39,0,0,0,1.29-1.56c-1.12.39-1.42-.38-1.74-1.13s-.67-1.36-.92-2.07-.32-1.39-.5-2.08-.48-1.61-.72-2.42-.17-2-.52-2.83a9.32,9.32,0,0,0-1.71-2.21c-.06,0-.16.09-.17.15-.07.47-.12.93-.19,1.49l-.73-.33a10.29,10.29,0,0,1-.27,1.12,4.12,4.12,0,0,1-.52,1c-1,1.23-.88,1.72.4,2.61a3.22,3.22,0,0,1,.65.93Z"/><path class="cls-1" d="M112.15,67.19c0,.62.12,1,.12,1.47a27.15,27.15,0,0,0,0,3.83,5.36,5.36,0,0,1-2.76,5.8c-.3.2-.56.45-.85.67-3.11,2.31-1.82,2.17-5.1,0-2.7-1.79-4-4-3.44-7.27a30.08,30.08,0,0,0,0-4.37,44.75,44.75,0,0,0,6,.71A45.13,45.13,0,0,0,112.15,67.19Z"/><path class="cls-1" d="M112.82,43.28l1,.32c3.1,1.14,6.2,2.29,9.31,3.4.66.23,1.11.45,1,1.29-.86,9.73-3.58,18.7-10.4,26-.23.25-.5.46-1,1v-5c0-2.92,0-2.92,2.87-3h.12c2.38-.09,2.38-.09,2.38-2.43q0-8.7,0-17.38c0-1.58-.1-1.68-1.7-1.7-.6,0-1.2,0-1.8,0C112.53,45.63,112.5,45.57,112.82,43.28Z"/><path class="cls-1" d="M99.51,43.34c.35,2,.17,2.22-1.69,2.33-.84,0-1.68.08-2.5.18s-1,.52-1,1.24q0,9.6,0,19.19a.93.93,0,0,0,1,1.08c1,.06,2,.07,3,.1.4,0,.79,0,1.28,0v7.83c-.91-1-1.65-1.79-2.32-2.6a39.57,39.57,0,0,1-8.29-19.22c-.28-1.65-.47-3.31-.68-5-.08-.6-.13-1.1.7-1.39,3.35-1.16,6.66-2.44,10-3.66A2.74,2.74,0,0,1,99.51,43.34Z"/><path class="cls-1" d="M112.13,45l-5.72.92a2,2,0,0,1-.59,0l-5.51-1C100,43,100,43,101.65,42.08c1.29-.72,2.51-1.55,3.82-2.22a1.81,1.81,0,0,1,1.46,0c1.38.71,2.68,1.57,4,2.32S112.62,43.59,112.13,45Z"/><path class="cls-1" d="M110.62,37.7a7.15,7.15,0,0,1-1.27,1c-.12.06-.7-.5-.67-.54a11.66,11.66,0,0,1,.95-1.27Z"/><path class="cls-1" d="M106.56,36.5l-1-1.44c.54-.7,1-.7,1.52-.11S107.4,36,106.56,36.5Z"/><path class="cls-1" d="M100.71,38.29c.91-.9,1.48-.77,1.78-.06.14.31-.12.79-.2,1.19Z"/><path class="cls-1" d="M95.35,73.16c.86.77.87,1.35.16,1.73-.3.17-.81,0-1.22-.07Z"/><path class="cls-1" d="M118.85,42a5.85,5.85,0,0,1-1.29,1c-.15.05-.8-.58-.74-.75a1.92,1.92,0,0,1,.86-1C117.84,41.17,118.29,41.63,118.85,42Z"/><path class="cls-1" d="M106.68,55.64a4.92,4.92,0,0,1,3.39-3.29c.79-.24,1.36-1.2,2-1.86a3.37,3.37,0,0,0,.4-.63l.33.19-2.08,3.58.15.26a12.65,12.65,0,0,0,1.48-.72,11.76,11.76,0,0,0,1.2-1l.22.23-2.68,2,1.63,1.32h-2.41c.59,2,1.35,2.51,2.48,1.94l-1.08.9a13.84,13.84,0,0,0-1.25-1.68A9.88,9.88,0,0,0,109,55.82l-.81,1.26-.22.29h-.11c0-.38.09-.76.09-1.14a11.27,11.27,0,0,0-.06-1.16Zm1.65-.7.28.66c.69-.23,1.4-.43,2.08-.71a.65.65,0,0,0,.2-.61c-.06-.16-.42-.36-.55-.3C109.66,54.26,109,54.61,108.33,54.94Zm-.21-.22,2.42-1.4C109.5,52.57,108.31,53.23,108.12,54.72Z"/><path class="cls-1" d="M108,57.37l.22-.29.81-1.26a9.88,9.88,0,0,1,1.47,1.07,13.84,13.84,0,0,1,1.25,1.68l1.08-.9.33-.54,1.09.17a8.07,8.07,0,0,1-.22,1.11,5.7,5.7,0,0,1-.5.81,1.37,1.37,0,0,1-2.27.45c-.75-.59-1.42-1.26-2.17-1.84A3.93,3.93,0,0,0,108,57.37Z"/><path class="cls-1" d="M108,57.37a3.93,3.93,0,0,1,1.09.46c.75.58,1.42,1.25,2.17,1.84a1.37,1.37,0,0,0,2.27-.45,5.7,5.7,0,0,0,.5-.81,8.07,8.07,0,0,0,.22-1.11l-1.09-.17L114,56l0,0c.41,1.3.67,1.36,2.19.5l0,0-2.62,3.27a1.35,1.35,0,0,1-2,.36c-.68-.45-1.4-.85-2.15-1.3l-.69,1.7-1.12-3.06h.5Z"/><path class="cls-1" d="M107.86,57.37h-.39a1.2,1.2,0,0,1-.79-1.72l1.21-.57a11.27,11.27,0,0,1,.06,1.16C108,56.61,107.89,57,107.86,57.37Z"/><path class="cls-1" d="M114,56a2.93,2.93,0,0,1,.22-.67c.43-.67,2-1.13,2.24-.6s-.19,1.13-.33,1.71l0,0-.07-1.59c-.62.24-1.24.46-1.84.73-.12.05-.19.24-.28.36Z"/><path class="cls-1" d="M97.62,56.2a3.22,3.22,0,0,0-.65-.93c-1.28-.89-1.36-1.38-.4-2.61a4.12,4.12,0,0,0,.52-1,10.29,10.29,0,0,0,.27-1.12l.73.33c.07-.56.12-1,.19-1.49,0-.06.11-.1.17-.15a9.32,9.32,0,0,1,1.71,2.21c.35.87.23,1.92.52,2.83s.5,1.61.72,2.42.27,1.41.5,2.08.62,1.38.92,2.07.62,1.52,1.74,1.13a1.39,1.39,0,0,1-1.29,1.56c-.69-1.1-1.25-2-1.85-2.94A8.58,8.58,0,0,0,97.71,57c-.11,0,0-.53-.06-.8.07.24.07.61.22.69.85.45,2.87-1,2.86-2.07Zm1-4.58c-.59.39-1.12.7-1.6,1.07-.24.18-.61.59-.55.69a6.23,6.23,0,0,0,1.43,2c.3.22,1.43-.14,1.68-.55a2.79,2.79,0,0,0,0-2C99.46,52.38,98.91,52,98.58,51.62Z"/><path class="cls-1" d="M108.33,54.94c.67-.33,1.33-.68,2-1,.13-.06.49.14.55.3a.65.65,0,0,1-.2.61c-.68.28-1.39.48-2.08.71Z"/><path class="cls-1" d="M108.12,54.72c.19-1.49,1.38-2.15,2.42-1.4Z"/><path class="cls-1" d="M114,55.91c.09-.12.16-.31.28-.36.6-.27,1.22-.49,1.84-.73l.07,1.59C114.62,57.27,114.36,57.21,114,55.91Z"/><path class="cls-1" d="M98.58,51.62c.33.39.88.76,1,1.26a2.79,2.79,0,0,1,0,2c-.25.41-1.38.77-1.68.55a6.23,6.23,0,0,1-1.43-2c-.06-.1.31-.51.55-.69C97.46,52.32,98,52,98.58,51.62Z"/><path class="cls-1" d="M97.62,56.2l3.11-1.41c0,1.09-2,2.52-2.86,2.07-.15-.08-.15-.45-.22-.69Z"/></g></g></svg>